<ttFont>
    <TTGlyph name="A" xMin="-10" yMin="0" xMax="719" yMax="705">
      <contour>
        <pt x="-10" y="0" on="1"/>
        <pt x="-10" y="46" on="1"/>
        <pt x="84" y="68" on="1"/>
        <pt x="327" y="705" on="1"/>
        <pt x="399" y="705" on="1"/>
        <pt x="627" y="67" on="1"/>
        <pt x="719" y="46" on="1"/>
        <pt x="719" y="0" on="1"/>
        <pt x="425" y="0" on="1"/>
        <pt x="425" y="46" on="1"/>
        <pt x="499" y="63" on="1"/>
        <pt x="451" y="198" on="1"/>
        <pt x="206" y="198" on="1"/>
        <pt x="154" y="66" on="1"/>
        <pt x="242" y="46" on="1"/>
        <pt x="242" y="0" on="1"/>
      </contour>
      <contour>
        <pt x="228" y="257" on="1"/>
        <pt x="429" y="257" on="1"/>
        <pt x="331" y="530" on="1"/>
      </contour>
    </TTGlyph>
    <TTGlyph name="AE" xMin="-11" yMin="0" xMax="997" yMax="700">
      <contour>
        <pt x="-11" y="0" on="1"/>
        <pt x="-11" y="46" on="1"/>
        <pt x="81" y="68" on="1"/>
        <pt x="533" y="700" on="1"/>
        <pt x="967" y="700" on="1"/>
        <pt x="967" y="495" on="1"/>
        <pt x="921" y="495" on="1"/>
        <pt x="878" y="633" on="1"/>
        <pt x="656" y="633" on="1"/>
        <pt x="656" y="383" on="1"/>
        <pt x="877" y="403" on="1"/>
        <pt x="877" y="314" on="1"/>
        <pt x="656" y="333" on="1"/>
        <pt x="656" y="67" on="1"/>
        <pt x="878" y="67" on="1"/>
        <pt x="951" y="216" on="1"/>
        <pt x="997" y="216" on="1"/>
        <pt x="967" y="0" on="1"/>
        <pt x="441" y="0" on="1"/>
        <pt x="441" y="46" on="1"/>
        <pt x="533" y="68" on="1"/>
        <pt x="533" y="237" on="1"/>
        <pt x="286" y="237" on="1"/>
        <pt x="165" y="67" on="1"/>
        <pt x="254" y="46" on="1"/>
        <pt x="254" y="0" on="1"/>
      </contour>
      <contour>
        <pt x="331" y="301" on="1"/>
        <pt x="533" y="301" on="1"/>
        <pt x="533" y="584" on="1"/>
      </contour>
    </TTGlyph>
    <TTGlyph name="Aacute" xMin="-10" yMin="0" xMax="719" yMax="904">
      <component glyphName="A" x="0" y="0" flags="0x204"/>
      <component glyphName="acute.case" x="255" y="0" flags="0x4"/>
    </TTGlyph>
    <TTGlyph name="Acircumflex" xMin="-10" yMin="0" xMax="719" yMax="904">
      <component glyphName="A" x="0" y="0" flags="0x204"/>
      <component glyphName="circumflex.case" x="175" y="-9" flags="0x4"/>
    </TTGlyph>
    <TTGlyph name="Adieresis" xMin="-10" yMin="0" xMax="719" yMax="888">
      <component glyphName="A" x="0" y="0" flags="0x204"/>
      <component glyphName="dieresis.case" x="168" y="-4" flags="0x4"/>
    </TTGlyph>
    <TTGlyph name="Agrave" xMin="-10" yMin="0" xMax="719" yMax="904">
      <component glyphName="A" x="0" y="0" flags="0x204"/>
      <component glyphName="grave.case" x="225" y="0" flags="0x4"/>
    </TTGlyph>
    <TTGlyph name="Aring" xMin="-9" yMin="0" xMax="720" yMax="873">
      <contour>
        <pt x="364" y="873" on="1"/>
        <pt x="407" y="873" on="0"/>
        <pt x="473" y="810" on="0"/>
        <pt x="473" y="764" on="1"/>
        <pt x="473" y="718" on="0"/>
        <pt x="440" y="686" on="1"/>
        <pt x="427" y="674" on="0"/>
        <pt x="413" y="667" on="1"/>
        <pt x="628" y="67" on="1"/>
        <pt x="720" y="46" on="1"/>
        <pt x="720" y="0" on="1"/>
        <pt x="426" y="0" on="1"/>
        <pt x="426" y="46" on="1"/>
        <pt x="500" y="63" on="1"/>
        <pt x="452" y="198" on="1"/>
        <pt x="207" y="198" on="1"/>
        <pt x="155" y="66" on="1"/>
        <pt x="243" y="46" on="1"/>
        <pt x="243" y="0" on="1"/>
        <pt x="-9" y="0" on="1"/>
        <pt x="-9" y="46" on="1"/>
        <pt x="85" y="68" on="1"/>
        <pt x="313" y="667" on="1"/>
        <pt x="300" y="674" on="0"/>
        <pt x="287" y="686" on="1"/>
        <pt x="255" y="718" on="0"/>
        <pt x="255" y="764" on="1"/>
        <pt x="255" y="810" on="0"/>
        <pt x="321" y="873" on="0"/>
      </contour>
      <contour>
        <pt x="229" y="257" on="1"/>
        <pt x="430" y="257" on="1"/>
        <pt x="332" y="530" on="1"/>
      </contour>
      <contour>
        <pt x="309" y="764" on="1"/>
        <pt x="309" y="741" on="0"/>
        <pt x="341" y="709" on="0"/>
        <pt x="364" y="709" on="1"/>
        <pt x="387" y="709" on="0"/>
        <pt x="419" y="741" on="0"/>
        <pt x="419" y="764" on="1"/>
        <pt x="419" y="786" on="0"/>
        <pt x="386" y="819" on="0"/>
        <pt x="364" y="819" on="1"/>
        <pt x="342" y="819" on="0"/>
        <pt x="309" y="786" on="0"/>
      </contour>
    </TTGlyph>
    <TTGlyph name="Atilde" xMin="-10" yMin="0" xMax="719" yMax="905">
      <component glyphName="A" x="0" y="0" flags="0x204"/>
      <component glyphName="tilde.case" x="171" y="-9" flags="0x4"/>
    </TTGlyph>
    <TTGlyph name="B" xMin="44" yMin="0" xMax="625" yMax="700">
      <contour>
        <pt x="44" y="0" on="1"/>
        <pt x="44" y="46" on="1"/>
        <pt x="136" y="68" on="1"/>
        <pt x="136" y="632" on="1"/>
        <pt x="44" y="654" on="1"/>
        <pt x="44" y="700" on="1"/>
        <pt x="331" y="700" on="1"/>
        <pt x="575" y="700" on="0"/>
        <pt x="575" y="530" on="1"/>
        <pt x="575" y="475" on="0"/>
        <pt x="510" y="393" on="0"/>
        <pt x="454" y="375" on="1"/>
        <pt x="454" y="373" on="1"/>
        <pt x="536" y="358" on="0"/>
        <pt x="625" y="266" on="0"/>
        <pt x="625" y="197" on="1"/>
        <pt x="625" y="107" on="0"/>
        <pt x="491" y="0" on="0"/>
        <pt x="377" y="0" on="1"/>
      </contour>
      <contour>
        <pt x="259" y="61" on="1"/>
        <pt x="346" y="61" on="1"/>
        <pt x="419" y="61" on="0"/>
        <pt x="499" y="131" on="0"/>
        <pt x="499" y="197" on="1"/>
        <pt x="499" y="258" on="0"/>
        <pt x="416" y="332" on="0"/>
        <pt x="341" y="332" on="1"/>
        <pt x="259" y="332" on="1"/>
      </contour>
      <contour>
        <pt x="259" y="395" on="1"/>
        <pt x="316" y="395" on="1"/>
        <pt x="374" y="395" on="0"/>
        <pt x="449" y="462" on="0"/>
        <pt x="449" y="521" on="1"/>
        <pt x="449" y="581" on="0"/>
        <pt x="374" y="639" on="0"/>
        <pt x="310" y="639" on="1"/>
        <pt x="259" y="639" on="1"/>
      </contour>
    </TTGlyph>
    <TTGlyph name="C" xMin="51" yMin="-15" xMax="620" yMax="715">
      <contour>
        <pt x="413" y="715" on="1"/>
        <pt x="529" y="715" on="0"/>
        <pt x="608" y="680" on="1"/>
        <pt x="608" y="491" on="1"/>
        <pt x="562" y="491" on="1"/>
        <pt x="516" y="639" on="1"/>
        <pt x="477" y="648" on="0"/>
        <pt x="426" y="648" on="1"/>
        <pt x="177" y="648" on="0"/>
        <pt x="177" y="350" on="1"/>
        <pt x="177" y="52" on="0"/>
        <pt x="406" y="52" on="1"/>
        <pt x="440" y="52" on="0"/>
        <pt x="494" y="56" on="0"/>
        <pt x="516" y="60" on="1"/>
        <pt x="574" y="218" on="1"/>
        <pt x="620" y="218" on="1"/>
        <pt x="613" y="29" on="1"/>
        <pt x="599" y="21" on="0"/>
        <pt x="547" y="5" on="0"/>
        <pt x="486" y="-7" on="0"/>
        <pt x="421" y="-15" on="0"/>
        <pt x="394" y="-15" on="1"/>
        <pt x="225" y="-15" on="0"/>
        <pt x="51" y="173" on="0"/>
        <pt x="51" y="350" on="1"/>
        <pt x="51" y="527" on="0"/>
        <pt x="232" y="715" on="0"/>
      </contour>
    </TTGlyph>
    <TTGlyph name="Ccedilla" xMin="51" yMin="-260" xMax="620" yMax="715">
      <contour>
        <pt x="285" y="-193" on="1"/>
        <pt x="323" y="-201" on="0"/>
        <pt x="347" y="-201" on="1"/>
        <pt x="376" y="-201" on="0"/>
        <pt x="409" y="-172" on="0"/>
        <pt x="409" y="-147" on="1"/>
        <pt x="409" y="-94" on="0"/>
        <pt x="336" y="-89" on="1"/>
        <pt x="356" y="-13" on="1"/>
        <pt x="215" y="-4" on="0"/>
        <pt x="138" y="79" on="1"/>
        <pt x="51" y="173" on="0"/>
        <pt x="51" y="350" on="1"/>
        <pt x="51" y="527" on="0"/>
        <pt x="232" y="715" on="0"/>
        <pt x="413" y="715" on="1"/>
        <pt x="529" y="715" on="0"/>
        <pt x="608" y="680" on="1"/>
        <pt x="608" y="491" on="1"/>
        <pt x="562" y="491" on="1"/>
        <pt x="516" y="639" on="1"/>
        <pt x="477" y="648" on="0"/>
        <pt x="426" y="648" on="1"/>
        <pt x="177" y="648" on="0"/>
        <pt x="177" y="350" on="1"/>
        <pt x="177" y="52" on="0"/>
        <pt x="406" y="52" on="1"/>
        <pt x="440" y="52" on="0"/>
        <pt x="494" y="56" on="0"/>
        <pt x="516" y="60" on="1"/>
        <pt x="574" y="218" on="1"/>
        <pt x="620" y="218" on="1"/>
        <pt x="613" y="29" on="1"/>
        <pt x="599" y="21" on="0"/>
        <pt x="547" y="5" on="0"/>
        <pt x="486" y="-7" on="0"/>
        <pt x="453" y="-11" on="1"/>
        <pt x="429" y="-14" on="0"/>
        <pt x="409" y="-15" on="1"/>
        <pt x="399" y="-54" on="1"/>
        <pt x="449" y="-56" on="0"/>
        <pt x="504" y="-106" on="0"/>
        <pt x="504" y="-146" on="1"/>
        <pt x="504" y="-199" on="0"/>
        <pt x="429" y="-260" on="0"/>
        <pt x="362" y="-260" on="1"/>
        <pt x="338" y="-260" on="0"/>
        <pt x="285" y="-249" on="1"/>
      </contour>
    </TTGlyph>
    <TTGlyph name="D" xMin="44" yMin="0" xMax="699" yMax="700">
      <contour>
        <pt x="44" y="0" on="1"/>
        <pt x="44" y="46" on="1"/>
        <pt x="136" y="68" on="1"/>
        <pt x="136" y="632" on="1"/>
        <pt x="44" y="654" on="1"/>
        <pt x="44" y="700" on="1"/>
        <pt x="304" y="700" on="1"/>
        <pt x="488" y="700" on="0"/>
        <pt x="699" y="524" on="0"/>
        <pt x="699" y="350" on="1"/>
        <pt x="699" y="193" on="0"/>
        <pt x="481" y="0" on="0"/>
        <pt x="304" y="0" on="1"/>
      </contour>
      <contour>
        <pt x="259" y="67" on="1"/>
        <pt x="299" y="67" on="1"/>
        <pt x="432" y="67" on="0"/>
        <pt x="573" y="201" on="0"/>
        <pt x="573" y="350" on="1"/>
        <pt x="573" y="488" on="0"/>
        <pt x="428" y="633" on="0"/>
        <pt x="299" y="633" on="1"/>
        <pt x="259" y="633" on="1"/>
      </contour>
    </TTGlyph>
    <TTGlyph name="E" xMin="44" yMin="0" xMax="592" yMax="700">
      <contour>
        <pt x="44" y="0" on="1"/>
        <pt x="44" y="46" on="1"/>
        <pt x="136" y="68" on="1"/>
        <pt x="136" y="632" on="1"/>
        <pt x="44" y="654" on="1"/>
        <pt x="44" y="700" on="1"/>
        <pt x="565" y="700" on="1"/>
        <pt x="565" y="495" on="1"/>
        <pt x="518" y="495" on="1"/>
        <pt x="475" y="633" on="1"/>
        <pt x="259" y="641" on="1"/>
        <pt x="259" y="384" on="1"/>
        <pt x="475" y="403" on="1"/>
        <pt x="475" y="314" on="1"/>
        <pt x="259" y="332" on="1"/>
        <pt x="259" y="59" on="1"/>
        <pt x="494" y="67" on="1"/>
        <pt x="545" y="216" on="1"/>
        <pt x="592" y="216" on="1"/>
        <pt x="584" y="0" on="1"/>
      </contour>
    </TTGlyph>
    <TTGlyph name="Eacute" xMin="44" yMin="0" xMax="592" yMax="904">
      <component glyphName="E" x="0" y="0" flags="0x204"/>
      <component glyphName="acute.case" x="255" y="0" flags="0x4"/>
    </TTGlyph>
    <TTGlyph name="Ecircumflex" xMin="44" yMin="0" xMax="592" yMax="913">
      <component glyphName="E" x="0" y="0" flags="0x204"/>
      <component glyphName="circumflex.case" x="155" y="0" flags="0x4"/>
    </TTGlyph>
    <TTGlyph name="Edieresis" xMin="44" yMin="0" xMax="592" yMax="892">
      <component glyphName="E" x="0" y="0" flags="0x204"/>
      <component glyphName="dieresis.case" x="158" y="0" flags="0x4"/>
    </TTGlyph>
    <TTGlyph name="Egrave" xMin="44" yMin="0" xMax="592" yMax="904">
      <component glyphName="E" x="0" y="0" flags="0x204"/>
      <component glyphName="grave.case" x="196" y="0" flags="0x4"/>
    </TTGlyph>
    <TTGlyph name="Eth" xMin="44" yMin="0" xMax="699" yMax="700">
      <contour>
        <pt x="44" y="0" on="1"/>
        <pt x="44" y="46" on="1"/>
        <pt x="136" y="68" on="1"/>
        <pt x="136" y="329" on="1"/>
        <pt x="44" y="329" on="1"/>
        <pt x="44" y="375" on="1"/>
        <pt x="136" y="375" on="1"/>
        <pt x="136" y="632" on="1"/>
        <pt x="44" y="654" on="1"/>
        <pt x="44" y="700" on="1"/>
        <pt x="304" y="700" on="1"/>
        <pt x="395" y="700" on="0"/>
        <pt x="542" y="656" on="0"/>
        <pt x="644" y="568" on="0"/>
        <pt x="699" y="437" on="0"/>
        <pt x="699" y="350" on="1"/>
        <pt x="699" y="263" on="0"/>
        <pt x="644" y="131" on="0"/>
        <pt x="542" y="44" on="0"/>
        <pt x="396" y="0" on="0"/>
        <pt x="304" y="0" on="1"/>
      </contour>
      <contour>
        <pt x="259" y="67" on="1"/>
        <pt x="299" y="67" on="1"/>
        <pt x="353" y="67" on="0"/>
        <pt x="452" y="96" on="0"/>
        <pt x="528" y="163" on="0"/>
        <pt x="573" y="271" on="0"/>
        <pt x="573" y="350" on="1"/>
        <pt x="573" y="429" on="0"/>
        <pt x="528" y="537" on="0"/>
        <pt x="452" y="604" on="0"/>
        <pt x="353" y="633" on="0"/>
        <pt x="299" y="633" on="1"/>
        <pt x="259" y="633" on="1"/>
        <pt x="259" y="375" on="1"/>
        <pt x="412" y="375" on="1"/>
        <pt x="412" y="329" on="1"/>
        <pt x="259" y="329" on="1"/>
      </contour>
    </TTGlyph>
    <TTGlyph name="Euro" xMin="47" yMin="-15" xMax="632" yMax="715">
      <contour>
        <pt x="47" y="240" on="1"/>
        <pt x="47" y="288" on="1"/>
        <pt x="106" y="291" on="1"/>
        <pt x="103" y="320" on="0"/>
        <pt x="103" y="350" on="1"/>
        <pt x="103" y="372" on="0"/>
        <pt x="104" y="382" on="1"/>
        <pt x="47" y="382" on="1"/>
        <pt x="47" y="429" on="1"/>
        <pt x="108" y="433" on="1"/>
        <pt x="147" y="715" on="0"/>
        <pt x="436" y="715" on="1"/>
        <pt x="536" y="715" on="0"/>
        <pt x="620" y="676" on="1"/>
        <pt x="620" y="491" on="1"/>
        <pt x="575" y="491" on="1"/>
        <pt x="529" y="640" on="1"/>
        <pt x="487" y="648" on="0"/>
        <pt x="446" y="648" on="1"/>
        <pt x="266" y="648" on="0"/>
        <pt x="235" y="439" on="1"/>
        <pt x="503" y="455" on="1"/>
        <pt x="478" y="382" on="1"/>
        <pt x="230" y="382" on="1"/>
        <pt x="229" y="372" on="0"/>
        <pt x="229" y="350" on="1"/>
        <pt x="229" y="314" on="0"/>
        <pt x="231" y="298" on="1"/>
        <pt x="455" y="312" on="1"/>
        <pt x="430" y="240" on="1"/>
        <pt x="238" y="240" on="1"/>
        <pt x="272" y="52" on="0"/>
        <pt x="429" y="52" on="1"/>
        <pt x="474" y="52" on="0"/>
        <pt x="509" y="60" on="1"/>
        <pt x="586" y="218" on="1"/>
        <pt x="632" y="218" on="1"/>
        <pt x="606" y="34" on="1"/>
        <pt x="521" y="-15" on="0"/>
        <pt x="424" y="-15" on="1"/>
        <pt x="294" y="-15" on="0"/>
        <pt x="137" y="118" on="0"/>
        <pt x="113" y="240" on="1"/>
      </contour>
    </TTGlyph>
    <TTGlyph name="F" xMin="44" yMin="0" xMax="560" yMax="700">
      <contour>
        <pt x="44" y="0" on="1"/>
        <pt x="44" y="46" on="1"/>
        <pt x="136" y="68" on="1"/>
        <pt x="136" y="632" on="1"/>
        <pt x="44" y="654" on="1"/>
        <pt x="44" y="700" on="1"/>
        <pt x="560" y="700" on="1"/>
        <pt x="560" y="495" on="1"/>
        <pt x="514" y="495" on="1"/>
        <pt x="472" y="633" on="1"/>
        <pt x="259" y="641" on="1"/>
        <pt x="259" y="385" on="1"/>
        <pt x="475" y="403" on="1"/>
        <pt x="475" y="314" on="1"/>
        <pt x="259" y="331" on="1"/>
        <pt x="259" y="68" on="1"/>
        <pt x="371" y="46" on="1"/>
        <pt x="371" y="0" on="1"/>
      </contour>
    </TTGlyph>
    <TTGlyph name="G" xMin="51" yMin="-15" xMax="702" yMax="715">
      <contour>
        <pt x="51" y="350" on="1"/>
        <pt x="51" y="524" on="0"/>
        <pt x="246" y="715" on="0"/>
        <pt x="429" y="715" on="1"/>
        <pt x="545" y="715" on="0"/>
        <pt x="623" y="681" on="1"/>
        <pt x="623" y="491" on="1"/>
        <pt x="577" y="491" on="1"/>
        <pt x="530" y="640" on="1"/>
        <pt x="480" y="648" on="0"/>
        <pt x="446" y="648" on="1"/>
        <pt x="318" y="648" on="0"/>
        <pt x="177" y="496" on="0"/>
        <pt x="177" y="350" on="1"/>
        <pt x="177" y="203" on="0"/>
        <pt x="305" y="52" on="0"/>
        <pt x="426" y="52" on="1"/>
        <pt x="470" y="52" on="0"/>
        <pt x="505" y="59" on="1"/>
        <pt x="505" y="268" on="1"/>
        <pt x="391" y="289" on="1"/>
        <pt x="391" y="324" on="1"/>
        <pt x="702" y="324" on="1"/>
        <pt x="702" y="289" on="1"/>
        <pt x="628" y="268" on="1"/>
        <pt x="628" y="34" on="1"/>
        <pt x="536" y="-15" on="0"/>
        <pt x="413" y="-15" on="1"/>
        <pt x="237" y="-15" on="0"/>
        <pt x="51" y="175" on="0"/>
      </contour>
    </TTGlyph>
    <TTGlyph name="H" xMin="44" yMin="0" xMax="783" yMax="700">
      <contour>
        <pt x="44" y="0" on="1"/>
        <pt x="44" y="46" on="1"/>
        <pt x="136" y="68" on="1"/>
        <pt x="136" y="632" on="1"/>
        <pt x="44" y="654" on="1"/>
        <pt x="44" y="700" on="1"/>
        <pt x="351" y="700" on="1"/>
        <pt x="351" y="654" on="1"/>
        <pt x="259" y="632" on="1"/>
        <pt x="259" y="387" on="1"/>
        <pt x="568" y="387" on="1"/>
        <pt x="568" y="632" on="1"/>
        <pt x="476" y="654" on="1"/>
        <pt x="476" y="700" on="1"/>
        <pt x="783" y="700" on="1"/>
        <pt x="783" y="654" on="1"/>
        <pt x="691" y="632" on="1"/>
        <pt x="691" y="68" on="1"/>
        <pt x="783" y="46" on="1"/>
        <pt x="783" y="0" on="1"/>
        <pt x="476" y="0" on="1"/>
        <pt x="476" y="46" on="1"/>
        <pt x="568" y="68" on="1"/>
        <pt x="568" y="320" on="1"/>
        <pt x="259" y="320" on="1"/>
        <pt x="259" y="68" on="1"/>
        <pt x="351" y="46" on="1"/>
        <pt x="351" y="0" on="1"/>
      </contour>
    </TTGlyph>
    <TTGlyph name="I" xMin="44" yMin="0" xMax="351" yMax="700">
      <contour>
        <pt x="44" y="0" on="1"/>
        <pt x="44" y="46" on="1"/>
        <pt x="137" y="68" on="1"/>
        <pt x="137" y="632" on="1"/>
        <pt x="44" y="654" on="1"/>
        <pt x="44" y="700" on="1"/>
        <pt x="351" y="700" on="1"/>
        <pt x="351" y="654" on="1"/>
        <pt x="259" y="632" on="1"/>
        <pt x="259" y="68" on="1"/>
        <pt x="351" y="46" on="1"/>
        <pt x="351" y="0" on="1"/>
      </contour>
    </TTGlyph>
    <TTGlyph name="Iacute" xMin="44" yMin="0" xMax="372" yMax="904">
      <component glyphName="I" x="0" y="0" flags="0x204"/>
      <component glyphName="acute.case" x="124" y="0" flags="0x4"/>
    </TTGlyph>
    <TTGlyph name="Icircumflex" xMin="23" yMin="0" xMax="372" yMax="913">
      <component glyphName="I" x="0" y="0" flags="0x204"/>
      <component glyphName="circumflex.case" x="15" y="0" flags="0x4"/>
    </TTGlyph>
    <TTGlyph name="Idieresis" xMin="33" yMin="0" xMax="378" yMax="892">
      <component glyphName="I" x="0" y="0" flags="0x204"/>
      <component glyphName="dieresis.case" x="13" y="0" flags="0x4"/>
    </TTGlyph>
    <TTGlyph name="Igrave" xMin="-1" yMin="0" xMax="351" yMax="904">
      <component glyphName="I" x="0" y="0" flags="0x204"/>
      <component glyphName="grave.case" x="31" y="0" flags="0x4"/>
    </TTGlyph>
    <TTGlyph name="J" xMin="8" yMin="-154" xMax="343" yMax="700">
      <contour>
        <pt x="8" y="-112" on="1"/>
        <pt x="128" y="-25" on="0"/>
        <pt x="128" y="150" on="1"/>
        <pt x="128" y="632" on="1"/>
        <pt x="36" y="654" on="1"/>
        <pt x="36" y="700" on="1"/>
        <pt x="343" y="700" on="1"/>
        <pt x="343" y="654" on="1"/>
        <pt x="251" y="632" on="1"/>
        <pt x="251" y="150" on="1"/>
        <pt x="251" y="47" on="0"/>
        <pt x="122" y="-120" on="0"/>
        <pt x="43" y="-154" on="1"/>
      </contour>
    </TTGlyph>
    <TTGlyph name="K" xMin="44" yMin="0" xMax="722" yMax="700">
      <contour>
        <pt x="44" y="0" on="1"/>
        <pt x="44" y="46" on="1"/>
        <pt x="136" y="63" on="1"/>
        <pt x="136" y="637" on="1"/>
        <pt x="44" y="654" on="1"/>
        <pt x="44" y="700" on="1"/>
        <pt x="351" y="700" on="1"/>
        <pt x="351" y="654" on="1"/>
        <pt x="259" y="637" on="1"/>
        <pt x="259" y="63" on="1"/>
        <pt x="351" y="46" on="1"/>
        <pt x="351" y="0" on="1"/>
      </contour>
      <contour>
        <pt x="281" y="359" on="1"/>
        <pt x="528" y="637" on="1"/>
        <pt x="456" y="654" on="1"/>
        <pt x="456" y="700" on="1"/>
        <pt x="696" y="700" on="1"/>
        <pt x="696" y="654" on="1"/>
        <pt x="607" y="632" on="1"/>
        <pt x="392" y="393" on="1"/>
        <pt x="627" y="78" on="1"/>
        <pt x="722" y="46" on="1"/>
        <pt x="722" y="0" on="1"/>
        <pt x="529" y="0" on="1"/>
      </contour>
    </TTGlyph>
    <TTGlyph name="L" xMin="44" yMin="0" xMax="594" yMax="700">
      <contour>
        <pt x="44" y="0" on="1"/>
        <pt x="44" y="46" on="1"/>
        <pt x="136" y="68" on="1"/>
        <pt x="136" y="632" on="1"/>
        <pt x="44" y="654" on="1"/>
        <pt x="44" y="700" on="1"/>
        <pt x="351" y="700" on="1"/>
        <pt x="351" y="654" on="1"/>
        <pt x="259" y="632" on="1"/>
        <pt x="259" y="67" on="1"/>
        <pt x="494" y="67" on="1"/>
        <pt x="548" y="216" on="1"/>
        <pt x="594" y="216" on="1"/>
        <pt x="584" y="0" on="1"/>
      </contour>
    </TTGlyph>
    <TTGlyph name="M" xMin="30" yMin="-5" xMax="982" yMax="700">
      <contour>
        <pt x="30" y="0" on="1"/>
        <pt x="30" y="46" on="1"/>
        <pt x="125" y="69" on="1"/>
        <pt x="157" y="633" on="1"/>
        <pt x="69" y="654" on="1"/>
        <pt x="70" y="700" on="1"/>
        <pt x="284" y="700" on="1"/>
        <pt x="509" y="178" on="1"/>
        <pt x="736" y="700" on="1"/>
        <pt x="942" y="700" on="1"/>
        <pt x="942" y="654" on="1"/>
        <pt x="852" y="633" on="1"/>
        <pt x="886" y="68" on="1"/>
        <pt x="982" y="46" on="1"/>
        <pt x="982" y="0" on="1"/>
        <pt x="678" y="0" on="1"/>
        <pt x="678" y="46" on="1"/>
        <pt x="766" y="67" on="1"/>
        <pt x="739" y="541" on="1"/>
        <pt x="502" y="-5" on="1"/>
        <pt x="458" y="-5" on="1"/>
        <pt x="218" y="542" on="1"/>
        <pt x="193" y="67" on="1"/>
        <pt x="282" y="46" on="1"/>
        <pt x="282" y="0" on="1"/>
      </contour>
    </TTGlyph>
    <TTGlyph name="N" xMin="44" yMin="0" xMax="788" yMax="700">
      <contour>
        <pt x="44" y="0" on="1"/>
        <pt x="44" y="46" on="1"/>
        <pt x="136" y="68" on="1"/>
        <pt x="136" y="632" on="1"/>
        <pt x="44" y="654" on="1"/>
        <pt x="44" y="700" on="1"/>
        <pt x="206" y="700" on="1"/>
        <pt x="623" y="205" on="1"/>
        <pt x="623" y="632" on="1"/>
        <pt x="531" y="654" on="1"/>
        <pt x="531" y="700" on="1"/>
        <pt x="788" y="700" on="1"/>
        <pt x="788" y="654" on="1"/>
        <pt x="696" y="632" on="1"/>
        <pt x="696" y="0" on="1"/>
        <pt x="636" y="0" on="1"/>
        <pt x="206" y="507" on="1"/>
        <pt x="206" y="68" on="1"/>
        <pt x="298" y="46" on="1"/>
        <pt x="298" y="0" on="1"/>
      </contour>
    </TTGlyph>
    <TTGlyph name="Ntilde" xMin="44" yMin="0" xMax="788" yMax="900">
      <component glyphName="N" x="0" y="0" flags="0x204"/>
      <component glyphName="tilde.case" x="218" y="-14" flags="0x4"/>
    </TTGlyph>
    <TTGlyph name="O" xMin="51" yMin="-15" xMax="721" yMax="715">
      <contour>
        <pt x="386" y="715" on="1"/>
        <pt x="467" y="715" on="0"/>
        <pt x="591" y="661" on="0"/>
        <pt x="677" y="565" on="0"/>
        <pt x="721" y="431" on="0"/>
        <pt x="721" y="351" on="1"/>
        <pt x="721" y="270" on="0"/>
        <pt x="678" y="136" on="0"/>
        <pt x="593" y="39" on="0"/>
        <pt x="468" y="-15" on="0"/>
        <pt x="386" y="-15" on="1"/>
        <pt x="299" y="-15" on="0"/>
        <pt x="172" y="43" on="0"/>
        <pt x="90" y="142" on="0"/>
        <pt x="51" y="276" on="0"/>
        <pt x="51" y="353" on="1"/>
        <pt x="51" y="428" on="0"/>
        <pt x="91" y="559" on="0"/>
        <pt x="173" y="658" on="0"/>
        <pt x="300" y="715" on="0"/>
      </contour>
      <contour>
        <pt x="386" y="656" on="1"/>
        <pt x="284" y="656" on="0"/>
        <pt x="179" y="485" on="0"/>
        <pt x="179" y="350" on="1"/>
        <pt x="179" y="207" on="0"/>
        <pt x="290" y="44" on="0"/>
        <pt x="386" y="44" on="1"/>
        <pt x="482" y="44" on="0"/>
        <pt x="593" y="207" on="0"/>
        <pt x="593" y="350" on="1"/>
        <pt x="593" y="485" on="0"/>
        <pt x="488" y="656" on="0"/>
      </contour>
    </TTGlyph>
    <TTGlyph name="OE" xMin="51" yMin="-15" xMax="1050" yMax="715">
      <contour>
        <pt x="179" y="350" on="1"/>
        <pt x="179" y="285" on="0"/>
        <pt x="206" y="173" on="0"/>
        <pt x="258" y="91" on="0"/>
        <pt x="336" y="44" on="0"/>
        <pt x="386" y="44" on="1"/>
        <pt x="436" y="44" on="0"/>
        <pt x="516" y="91" on="0"/>
        <pt x="573" y="173" on="0"/>
        <pt x="603" y="282" on="0"/>
        <pt x="603" y="345" on="1"/>
        <pt x="603" y="413" on="0"/>
        <pt x="574" y="527" on="0"/>
        <pt x="519" y="610" on="0"/>
        <pt x="438" y="656" on="0"/>
        <pt x="386" y="656" on="1"/>
        <pt x="335" y="656" on="0"/>
        <pt x="258" y="610" on="0"/>
        <pt x="205" y="528" on="0"/>
        <pt x="179" y="416" on="0"/>
      </contour>
      <contour>
        <pt x="51" y="350" on="1"/>
        <pt x="51" y="427" on="0"/>
        <pt x="91" y="557" on="0"/>
        <pt x="171" y="658" on="0"/>
        <pt x="302" y="715" on="0"/>
        <pt x="386" y="715" on="1"/>
        <pt x="516" y="715" on="0"/>
        <pt x="596" y="606" on="1"/>
        <pt x="596" y="700" on="1"/>
        <pt x="1020" y="700" on="1"/>
        <pt x="1020" y="495" on="1"/>
        <pt x="974" y="495" on="1"/>
        <pt x="932" y="633" on="1"/>
        <pt x="707" y="633" on="1"/>
        <pt x="707" y="383" on="1"/>
        <pt x="930" y="403" on="1"/>
        <pt x="930" y="314" on="1"/>
        <pt x="707" y="333" on="1"/>
        <pt x="707" y="67" on="1"/>
        <pt x="931" y="67" on="1"/>
        <pt x="1004" y="216" on="1"/>
        <pt x="1050" y="216" on="1"/>
        <pt x="1020" y="0" on="1"/>
        <pt x="596" y="0" on="1"/>
        <pt x="596" y="93" on="1"/>
        <pt x="517" y="-15" on="0"/>
        <pt x="386" y="-15" on="1"/>
        <pt x="274" y="-15" on="0"/>
        <pt x="120" y="85" on="0"/>
        <pt x="51" y="246" on="0"/>
      </contour>
    </TTGlyph>
    <TTGlyph name="Oacute" xMin="51" yMin="-15" xMax="721" yMax="904">
      <component glyphName="O" x="0" y="0" flags="0x204"/>
      <component glyphName="acute.case" x="307" y="0" flags="0x4"/>
    </TTGlyph>
    <TTGlyph name="Ocircumflex" xMin="51" yMin="-15" xMax="721" yMax="913">
      <component glyphName="O" x="0" y="0" flags="0x204"/>
      <component glyphName="circumflex.case" x="203" y="0" flags="0x4"/>
    </TTGlyph>
    <TTGlyph name="Odieresis" xMin="51" yMin="-15" xMax="721" yMax="892">
      <component glyphName="O" x="0" y="0" flags="0x204"/>
      <component glyphName="dieresis.case" x="201" y="0" flags="0x4"/>
    </TTGlyph>
    <TTGlyph name="Ograve" xMin="51" yMin="-15" xMax="721" yMax="904">
      <component glyphName="O" x="0" y="0" flags="0x204"/>
      <component glyphName="grave.case" x="278" y="0" flags="0x4"/>
    </TTGlyph>
    <TTGlyph name="Oslash" xMin="51" yMin="-40" xMax="721" yMax="739">
      <contour>
        <pt x="51" y="350" on="1"/>
        <pt x="51" y="427" on="0"/>
        <pt x="91" y="557" on="0"/>
        <pt x="171" y="658" on="0"/>
        <pt x="302" y="715" on="0"/>
        <pt x="386" y="715" on="1"/>
        <pt x="466" y="715" on="0"/>
        <pt x="527" y="689" on="1"/>
        <pt x="554" y="739" on="1"/>
        <pt x="618" y="739" on="1"/>
        <pt x="577" y="663" on="1"/>
        <pt x="648" y="617" on="0"/>
        <pt x="721" y="452" on="0"/>
        <pt x="721" y="350" on="1"/>
        <pt x="721" y="190" on="0"/>
        <pt x="551" y="-15" on="0"/>
        <pt x="386" y="-15" on="1"/>
        <pt x="303" y="-15" on="0"/>
        <pt x="236" y="13" on="1"/>
        <pt x="209" y="-40" on="1"/>
        <pt x="144" y="-40" on="1"/>
        <pt x="186" y="42" on="1"/>
        <pt x="119" y="89" on="0"/>
        <pt x="51" y="250" on="0"/>
      </contour>
      <contour>
        <pt x="179" y="350" on="1"/>
        <pt x="179" y="212" on="0"/>
        <pt x="233" y="130" on="1"/>
        <pt x="492" y="623" on="1"/>
        <pt x="446" y="656" on="0"/>
        <pt x="386" y="656" on="1"/>
        <pt x="284" y="656" on="0"/>
        <pt x="179" y="485" on="0"/>
      </contour>
      <contour>
        <pt x="273" y="83" on="1"/>
        <pt x="318" y="44" on="0"/>
        <pt x="386" y="44" on="1"/>
        <pt x="488" y="44" on="0"/>
        <pt x="593" y="215" on="0"/>
        <pt x="593" y="350" on="1"/>
        <pt x="593" y="494" on="0"/>
        <pt x="533" y="580" on="1"/>
      </contour>
    </TTGlyph>
    <TTGlyph name="Otilde" xMin="51" yMin="-15" xMax="721" yMax="914">
      <component glyphName="O" x="0" y="0" flags="0x204"/>
      <component glyphName="tilde.case" x="194" y="0" flags="0x4"/>
    </TTGlyph>
    <TTGlyph name="P" xMin="44" yMin="0" xMax="604" yMax="700">
      <contour>
        <pt x="259" y="328" on="1"/>
        <pt x="274" y="326" on="0"/>
        <pt x="304" y="324" on="0"/>
        <pt x="318" y="324" on="1"/>
        <pt x="352" y="324" on="0"/>
        <pt x="411" y="344" on="0"/>
        <pt x="454" y="384" on="0"/>
        <pt x="478" y="442" on="0"/>
        <pt x="478" y="481" on="1"/>
        <pt x="478" y="559" on="0"/>
        <pt x="385" y="637" on="0"/>
        <pt x="310" y="637" on="1"/>
        <pt x="259" y="637" on="1"/>
      </contour>
      <contour>
        <pt x="44" y="0" on="1"/>
        <pt x="44" y="46" on="1"/>
        <pt x="136" y="68" on="1"/>
        <pt x="136" y="632" on="1"/>
        <pt x="44" y="654" on="1"/>
        <pt x="44" y="700" on="1"/>
        <pt x="310" y="700" on="1"/>
        <pt x="604" y="700" on="0"/>
        <pt x="604" y="481" on="1"/>
        <pt x="604" y="370" on="0"/>
        <pt x="451" y="261" on="0"/>
        <pt x="326" y="261" on="1"/>
        <pt x="291" y="261" on="0"/>
        <pt x="259" y="266" on="1"/>
        <pt x="259" y="68" on="1"/>
        <pt x="381" y="46" on="1"/>
        <pt x="381" y="0" on="1"/>
      </contour>
    </TTGlyph>
    <TTGlyph name="Q" xMin="51" yMin="-142" xMax="782" yMax="715">
      <contour>
        <pt x="51" y="350" on="1"/>
        <pt x="51" y="510" on="0"/>
        <pt x="219" y="715" on="0"/>
        <pt x="549" y="715" on="0"/>
        <pt x="716" y="510" on="0"/>
        <pt x="716" y="350" on="1"/>
        <pt x="716" y="273" on="0"/>
        <pt x="676" y="143" on="0"/>
        <pt x="598" y="42" on="0"/>
        <pt x="533" y="13" on="1"/>
        <pt x="518" y="7" on="0"/>
        <pt x="502" y="2" on="1"/>
        <pt x="538" y="-43" on="0"/>
        <pt x="601" y="-66" on="1"/>
        <pt x="671" y="-92" on="0"/>
        <pt x="758" y="-92" on="1"/>
        <pt x="782" y="-92" on="1"/>
        <pt x="770" y="-135" on="1"/>
        <pt x="724" y="-140" on="0"/>
        <pt x="676" y="-142" on="0"/>
        <pt x="658" y="-142" on="1"/>
        <pt x="600" y="-141" on="0"/>
        <pt x="498" y="-121" on="0"/>
        <pt x="453" y="-88" on="1"/>
        <pt x="413" y="-59" on="0"/>
        <pt x="387" y="-15" on="1"/>
        <pt x="384" y="-15" on="1"/>
        <pt x="299" y="-15" on="0"/>
        <pt x="170" y="42" on="0"/>
        <pt x="91" y="143" on="0"/>
        <pt x="51" y="273" on="0"/>
      </contour>
      <contour>
        <pt x="386" y="656" on="1"/>
        <pt x="284" y="656" on="0"/>
        <pt x="179" y="485" on="0"/>
        <pt x="179" y="350" on="1"/>
        <pt x="179" y="207" on="0"/>
        <pt x="290" y="42" on="0"/>
        <pt x="386" y="42" on="1"/>
        <pt x="494" y="42" on="0"/>
        <pt x="588" y="207" on="0"/>
        <pt x="588" y="350" on="1"/>
        <pt x="588" y="487" on="0"/>
        <pt x="483" y="656" on="0"/>
      </contour>
    </TTGlyph>
    <TTGlyph name="R" xMin="44" yMin="0" xMax="694" yMax="700">
      <contour>
        <pt x="44" y="0" on="1"/>
        <pt x="44" y="46" on="1"/>
        <pt x="136" y="68" on="1"/>
        <pt x="136" y="632" on="1"/>
        <pt x="44" y="654" on="1"/>
        <pt x="44" y="700" on="1"/>
        <pt x="327" y="700" on="1"/>
        <pt x="381" y="700" on="0"/>
        <pt x="471" y="683" on="0"/>
        <pt x="556" y="642" on="0"/>
        <pt x="605" y="561" on="0"/>
        <pt x="605" y="504" on="1"/>
        <pt x="605" y="371" on="0"/>
        <pt x="467" y="324" on="1"/>
        <pt x="606" y="67" on="1"/>
        <pt x="694" y="45" on="1"/>
        <pt x="694" y="0" on="1"/>
        <pt x="512" y="0" on="1"/>
        <pt x="347" y="309" on="1"/>
        <pt x="259" y="309" on="1"/>
        <pt x="259" y="68" on="1"/>
        <pt x="351" y="46" on="1"/>
        <pt x="351" y="0" on="1"/>
      </contour>
      <contour>
        <pt x="259" y="369" on="1"/>
        <pt x="317" y="369" on="1"/>
        <pt x="390" y="369" on="0"/>
        <pt x="479" y="441" on="0"/>
        <pt x="479" y="506" on="1"/>
        <pt x="479" y="570" on="0"/>
        <pt x="391" y="637" on="0"/>
        <pt x="317" y="637" on="1"/>
        <pt x="259" y="637" on="1"/>
      </contour>
    </TTGlyph>
    <TTGlyph name="S" xMin="61" yMin="-16" xMax="542" yMax="715">
      <contour>
        <pt x="61" y="540" on="1"/>
        <pt x="61" y="623" on="0"/>
        <pt x="193" y="715" on="0"/>
        <pt x="298" y="715" on="1"/>
        <pt x="410" y="715" on="0"/>
        <pt x="503" y="692" on="1"/>
        <pt x="498" y="500" on="1"/>
        <pt x="453" y="500" on="1"/>
        <pt x="403" y="644" on="1"/>
        <pt x="361" y="652" on="0"/>
        <pt x="318" y="652" on="1"/>
        <pt x="249" y="652" on="0"/>
        <pt x="170" y="598" on="0"/>
        <pt x="170" y="550" on="1"/>
        <pt x="170" y="509" on="0"/>
        <pt x="241" y="454" on="0"/>
        <pt x="329" y="417" on="1"/>
        <pt x="376" y="398" on="0"/>
        <pt x="437" y="365" on="0"/>
        <pt x="507" y="311" on="0"/>
        <pt x="542" y="235" on="0"/>
        <pt x="542" y="188" on="1"/>
        <pt x="542" y="88" on="0"/>
        <pt x="468" y="34" on="1"/>
        <pt x="399" y="-16" on="0"/>
        <pt x="295" y="-15" on="1"/>
        <pt x="267" y="-15" on="0"/>
        <pt x="138" y="-5" on="0"/>
        <pt x="63" y="17" on="1"/>
        <pt x="63" y="214" on="1"/>
        <pt x="109" y="214" on="1"/>
        <pt x="160" y="64" on="1"/>
        <pt x="202" y="51" on="0"/>
        <pt x="258" y="51" on="1"/>
        <pt x="336" y="51" on="0"/>
        <pt x="432" y="106" on="0"/>
        <pt x="432" y="165" on="1"/>
        <pt x="432" y="210" on="0"/>
        <pt x="346" y="276" on="0"/>
        <pt x="263" y="312" on="1"/>
        <pt x="149" y="361" on="0"/>
        <pt x="61" y="453" on="0"/>
      </contour>
    </TTGlyph>
    <TTGlyph name="T" xMin="30" yMin="0" xMax="625" yMax="700">
      <contour>
        <pt x="30" y="488" on="1"/>
        <pt x="30" y="700" on="1"/>
        <pt x="625" y="700" on="1"/>
        <pt x="625" y="488" on="1"/>
        <pt x="578" y="488" on="1"/>
        <pt x="533" y="633" on="1"/>
        <pt x="389" y="641" on="1"/>
        <pt x="389" y="68" on="1"/>
        <pt x="481" y="46" on="1"/>
        <pt x="481" y="0" on="1"/>
        <pt x="174" y="0" on="1"/>
        <pt x="174" y="46" on="1"/>
        <pt x="266" y="68" on="1"/>
        <pt x="266" y="641" on="1"/>
        <pt x="121" y="633" on="1"/>
        <pt x="77" y="488" on="1"/>
      </contour>
    </TTGlyph>
    <TTGlyph name="Thorn" xMin="44" yMin="0" xMax="605" yMax="700">
      <contour>
        <pt x="44" y="0" on="1"/>
        <pt x="44" y="46" on="1"/>
        <pt x="136" y="68" on="1"/>
        <pt x="136" y="632" on="1"/>
        <pt x="44" y="654" on="1"/>
        <pt x="44" y="700" on="1"/>
        <pt x="351" y="700" on="1"/>
        <pt x="351" y="654" on="1"/>
        <pt x="259" y="632" on="1"/>
        <pt x="259" y="546" on="1"/>
        <pt x="327" y="546" on="1"/>
        <pt x="605" y="546" on="0"/>
        <pt x="605" y="350" on="1"/>
        <pt x="605" y="152" on="0"/>
        <pt x="327" y="152" on="1"/>
        <pt x="259" y="152" on="1"/>
        <pt x="259" y="68" on="1"/>
        <pt x="351" y="46" on="1"/>
        <pt x="351" y="0" on="1"/>
      </contour>
      <contour>
        <pt x="259" y="212" on="1"/>
        <pt x="312" y="212" on="1"/>
        <pt x="387" y="212" on="0"/>
        <pt x="479" y="282" on="0"/>
        <pt x="479" y="350" on="1"/>
        <pt x="479" y="483" on="0"/>
        <pt x="312" y="483" on="1"/>
        <pt x="259" y="483" on="1"/>
      </contour>
    </TTGlyph>
    <TTGlyph name="U" xMin="22" yMin="-15" xMax="768" yMax="700">
      <contour>
        <pt x="22" y="654" on="1"/>
        <pt x="22" y="700" on="1"/>
        <pt x="329" y="700" on="1"/>
        <pt x="329" y="654" on="1"/>
        <pt x="237" y="632" on="1"/>
        <pt x="237" y="262" on="1"/>
        <pt x="237" y="162" on="0"/>
        <pt x="336" y="62" on="0"/>
        <pt x="420" y="62" on="1"/>
        <pt x="503" y="62" on="0"/>
        <pt x="605" y="163" on="0"/>
        <pt x="605" y="262" on="1"/>
        <pt x="605" y="632" on="1"/>
        <pt x="512" y="654" on="1"/>
        <pt x="512" y="700" on="1"/>
        <pt x="768" y="700" on="1"/>
        <pt x="768" y="654" on="1"/>
        <pt x="676" y="632" on="1"/>
        <pt x="676" y="262" on="1"/>
        <pt x="676" y="196" on="0"/>
        <pt x="635" y="92" on="0"/>
        <pt x="561" y="22" on="0"/>
        <pt x="458" y="-15" on="0"/>
        <pt x="397" y="-15" on="1"/>
        <pt x="335" y="-15" on="0"/>
        <pt x="231" y="21" on="0"/>
        <pt x="156" y="92" on="0"/>
        <pt x="114" y="195" on="0"/>
        <pt x="114" y="262" on="1"/>
        <pt x="114" y="632" on="1"/>
      </contour>
    </TTGlyph>
    <TTGlyph name="Uacute" xMin="22" yMin="-15" xMax="768" yMax="904">
      <component glyphName="U" x="0" y="0" flags="0x204"/>
      <component glyphName="acute.case" x="339" y="0" flags="0x4"/>
    </TTGlyph>
    <TTGlyph name="Ucircumflex" xMin="22" yMin="-15" xMax="768" yMax="913">
      <component glyphName="U" x="0" y="0" flags="0x204"/>
      <component glyphName="circumflex.case" x="239" y="0" flags="0x4"/>
    </TTGlyph>
    <TTGlyph name="Udieresis" xMin="22" yMin="-15" xMax="768" yMax="892">
      <component glyphName="U" x="0" y="0" flags="0x204"/>
      <component glyphName="dieresis.case" x="232" y="0" flags="0x4"/>
    </TTGlyph>
    <TTGlyph name="Ugrave" xMin="22" yMin="-15" xMax="768" yMax="904">
      <component glyphName="U" x="0" y="0" flags="0x204"/>
      <component glyphName="grave.case" x="250" y="0" flags="0x4"/>
    </TTGlyph>
    <TTGlyph name="V" xMin="-7" yMin="-7" xMax="706" yMax="700">
      <contour>
        <pt x="-7" y="654" on="1"/>
        <pt x="-7" y="700" on="1"/>
        <pt x="296" y="700" on="1"/>
        <pt x="296" y="654" on="1"/>
        <pt x="214" y="637" on="1"/>
        <pt x="384" y="157" on="1"/>
        <pt x="544" y="632" on="1"/>
        <pt x="465" y="654" on="1"/>
        <pt x="465" y="700" on="1"/>
        <pt x="706" y="700" on="1"/>
        <pt x="706" y="654" on="1"/>
        <pt x="614" y="632" on="1"/>
        <pt x="394" y="-7" on="1"/>
        <pt x="315" y="-7" on="1"/>
        <pt x="82" y="632" on="1"/>
      </contour>
    </TTGlyph>
    <TTGlyph name="W" xMin="-11" yMin="-7" xMax="1023" yMax="700">
      <contour>
        <pt x="-11" y="654" on="1"/>
        <pt x="-11" y="700" on="1"/>
        <pt x="289" y="700" on="1"/>
        <pt x="289" y="654" on="1"/>
        <pt x="205" y="636" on="1"/>
        <pt x="348" y="182" on="1"/>
        <pt x="492" y="700" on="1"/>
        <pt x="577" y="700" on="1"/>
        <pt x="744" y="184" on="1"/>
        <pt x="862" y="632" on="1"/>
        <pt x="781" y="654" on="1"/>
        <pt x="781" y="700" on="1"/>
        <pt x="1023" y="700" on="1"/>
        <pt x="1023" y="654" on="1"/>
        <pt x="931" y="632" on="1"/>
        <pt x="761" y="-7" on="1"/>
        <pt x="682" y="-7" on="1"/>
        <pt x="508" y="515" on="1"/>
        <pt x="361" y="-7" on="1"/>
        <pt x="284" y="-7" on="1"/>
        <pt x="76" y="633" on="1"/>
      </contour>
    </TTGlyph>
    <TTGlyph name="X" xMin="11" yMin="0" xMax="726" yMax="700">
      <contour>
        <pt x="14" y="0" on="1"/>
        <pt x="14" y="46" on="1"/>
        <pt x="106" y="68" on="1"/>
        <pt x="303" y="340" on="1"/>
        <pt x="100" y="631" on="1"/>
        <pt x="11" y="654" on="1"/>
        <pt x="11" y="700" on="1"/>
        <pt x="302" y="700" on="1"/>
        <pt x="302" y="654" on="1"/>
        <pt x="238" y="639" on="1"/>
        <pt x="389" y="425" on="1"/>
        <pt x="541" y="634" on="1"/>
        <pt x="472" y="654" on="1"/>
        <pt x="472" y="700" on="1"/>
        <pt x="713" y="700" on="1"/>
        <pt x="713" y="654" on="1"/>
        <pt x="621" y="632" on="1"/>
        <pt x="429" y="369" on="1"/>
        <pt x="644" y="65" on="1"/>
        <pt x="726" y="46" on="1"/>
        <pt x="726" y="0" on="1"/>
        <pt x="435" y="0" on="1"/>
        <pt x="435" y="46" on="1"/>
        <pt x="499" y="59" on="1"/>
        <pt x="340" y="286" on="1"/>
        <pt x="186" y="66" on="1"/>
        <pt x="256" y="46" on="1"/>
        <pt x="256" y="0" on="1"/>
      </contour>
    </TTGlyph>
    <TTGlyph name="Y" xMin="-9" yMin="0" xMax="698" yMax="700">
      <contour>
        <pt x="-9" y="654" on="1"/>
        <pt x="-9" y="700" on="1"/>
        <pt x="279" y="700" on="1"/>
        <pt x="279" y="654" on="1"/>
        <pt x="214" y="641" on="1"/>
        <pt x="379" y="398" on="1"/>
        <pt x="527" y="634" on="1"/>
        <pt x="453" y="654" on="1"/>
        <pt x="453" y="700" on="1"/>
        <pt x="698" y="700" on="1"/>
        <pt x="698" y="654" on="1"/>
        <pt x="606" y="632" on="1"/>
        <pt x="412" y="323" on="1"/>
        <pt x="412" y="68" on="1"/>
        <pt x="504" y="46" on="1"/>
        <pt x="504" y="0" on="1"/>
        <pt x="197" y="0" on="1"/>
        <pt x="197" y="46" on="1"/>
        <pt x="289" y="68" on="1"/>
        <pt x="289" y="320" on="1"/>
        <pt x="72" y="634" on="1"/>
      </contour>
    </TTGlyph>
    <TTGlyph name="Yacute" xMin="-9" yMin="0" xMax="698" yMax="904">
      <component glyphName="Y" x="0" y="0" flags="0x204"/>
      <component glyphName="acute.case" x="276" y="0" flags="0x4"/>
    </TTGlyph>
    <TTGlyph name="Z" xMin="51" yMin="0" xMax="592" yMax="700">
      <contour>
        <pt x="51" y="0" on="1"/>
        <pt x="51" y="62" on="1"/>
        <pt x="442" y="641" on="1"/>
        <pt x="144" y="633" on="1"/>
        <pt x="101" y="490" on="1"/>
        <pt x="55" y="490" on="1"/>
        <pt x="55" y="700" on="1"/>
        <pt x="587" y="700" on="1"/>
        <pt x="587" y="638" on="1"/>
        <pt x="199" y="62" on="1"/>
        <pt x="497" y="67" on="1"/>
        <pt x="546" y="216" on="1"/>
        <pt x="592" y="216" on="1"/>
        <pt x="586" y="0" on="1"/>
      </contour>
    </TTGlyph>
    <TTGlyph name="a" xMin="35" yMin="-15" xMax="540" yMax="515">
      <contour>
        <pt x="35" y="124" on="1"/>
        <pt x="35" y="297" on="0"/>
        <pt x="342" y="297" on="1"/>
        <pt x="342" y="332" on="1"/>
        <pt x="342" y="419" on="0"/>
        <pt x="293" y="466" on="0"/>
        <pt x="241" y="466" on="1"/>
        <pt x="124" y="366" on="1"/>
        <pt x="100" y="381" on="0"/>
        <pt x="67" y="436" on="0"/>
        <pt x="66" y="467" on="1"/>
        <pt x="108" y="490" on="0"/>
        <pt x="208" y="515" on="0"/>
        <pt x="257" y="515" on="1"/>
        <pt x="462" y="515" on="0"/>
        <pt x="462" y="343" on="1"/>
        <pt x="462" y="65" on="1"/>
        <pt x="540" y="65" on="1"/>
        <pt x="540" y="32" on="1"/>
        <pt x="517" y="10" on="0"/>
        <pt x="461" y="-15" on="0"/>
        <pt x="434" y="-15" on="1"/>
        <pt x="375" y="-15" on="0"/>
        <pt x="347" y="36" on="1"/>
        <pt x="280" y="-15" on="0"/>
        <pt x="196" y="-15" on="1"/>
        <pt x="130" y="-15" on="0"/>
        <pt x="35" y="55" on="0"/>
      </contour>
      <contour>
        <pt x="161" y="128" on="1"/>
        <pt x="161" y="91" on="0"/>
        <pt x="210" y="55" on="0"/>
        <pt x="248" y="55" on="1"/>
        <pt x="303" y="55" on="0"/>
        <pt x="342" y="89" on="1"/>
        <pt x="342" y="246" on="1"/>
        <pt x="252" y="246" on="0"/>
        <pt x="161" y="181" on="0"/>
      </contour>
    </TTGlyph>
    <TTGlyph name="aacute" xMin="35" yMin="-15" xMax="540" yMax="770">
      <component glyphName="a" x="0" y="0" flags="0x204"/>
      <component glyphName="acute" x="211" y="0" flags="0x4"/>
    </TTGlyph>
    <TTGlyph name="acircumflex" xMin="35" yMin="-15" xMax="540" yMax="766">
      <component glyphName="a" x="0" y="0" flags="0x204"/>
      <component glyphName="circumflex" x="94" y="0" flags="0x4"/>
    </TTGlyph>
    <TTGlyph name="acute" xMin="18" yMin="559" xMax="215" yMax="770">
      <contour>
        <pt x="18" y="588" on="1"/>
        <pt x="122" y="770" on="1"/>
        <pt x="180" y="760" on="0"/>
        <pt x="215" y="717" on="1"/>
        <pt x="61" y="559" on="1"/>
      </contour>
    </TTGlyph>
    <TTGlyph name="acute.case" xMin="7" yMin="735" xMax="248" yMax="904">
      <contour>
        <pt x="7" y="767" on="1"/>
        <pt x="165" y="904" on="1"/>
        <pt x="215" y="887" on="0"/>
        <pt x="248" y="826" on="1"/>
        <pt x="34" y="735" on="1"/>
      </contour>
    </TTGlyph>
    <TTGlyph name="adieresis" xMin="35" yMin="-15" xMax="540" yMax="732">
      <component glyphName="a" x="0" y="0" flags="0x204"/>
      <component glyphName="dieresis" x="77" y="0" flags="0x4"/>
    </TTGlyph>
    <TTGlyph name="ae" xMin="34" yMin="-15" xMax="796" yMax="515">
      <contour>
        <pt x="34" y="124" on="1"/>
        <pt x="34" y="297" on="0"/>
        <pt x="339" y="297" on="1"/>
        <pt x="339" y="332" on="1"/>
        <pt x="339" y="401" on="0"/>
        <pt x="298" y="468" on="0"/>
        <pt x="234" y="468" on="1"/>
        <pt x="122" y="366" on="1"/>
        <pt x="100" y="384" on="0"/>
        <pt x="70" y="440" on="0"/>
        <pt x="69" y="467" on="1"/>
        <pt x="77" y="472" on="0"/>
        <pt x="107" y="488" on="0"/>
        <pt x="202" y="515" on="0"/>
        <pt x="250" y="515" on="1"/>
        <pt x="373" y="515" on="0"/>
        <pt x="420" y="449" on="1"/>
        <pt x="484" y="515" on="0"/>
        <pt x="581" y="515" on="1"/>
        <pt x="693" y="515" on="0"/>
        <pt x="796" y="365" on="0"/>
        <pt x="796" y="247" on="1"/>
        <pt x="459" y="247" on="1"/>
        <pt x="465" y="163" on="0"/>
        <pt x="561" y="50" on="0"/>
        <pt x="644" y="50" on="1"/>
        <pt x="697" y="50" on="0"/>
        <pt x="759" y="73" on="1"/>
        <pt x="774" y="26" on="1"/>
        <pt x="681" y="-15" on="0"/>
        <pt x="599" y="-15" on="1"/>
        <pt x="541" y="-15" on="0"/>
        <pt x="421" y="33" on="0"/>
        <pt x="387" y="88" on="1"/>
        <pt x="379" y="77" on="1"/>
        <pt x="374" y="70" on="0"/>
        <pt x="338" y="34" on="0"/>
        <pt x="296" y="7" on="0"/>
        <pt x="227" y="-15" on="0"/>
        <pt x="189" y="-15" on="1"/>
        <pt x="126" y="-15" on="0"/>
        <pt x="34" y="55" on="0"/>
      </contour>
      <contour>
        <pt x="160" y="128" on="1"/>
        <pt x="160" y="94" on="0"/>
        <pt x="198" y="52" on="0"/>
        <pt x="231" y="52" on="1"/>
        <pt x="296" y="52" on="0"/>
        <pt x="335" y="110" on="1"/>
        <pt x="339" y="116" on="1"/>
        <pt x="339" y="246" on="1"/>
        <pt x="250" y="246" on="0"/>
        <pt x="160" y="178" on="0"/>
      </contour>
      <contour>
        <pt x="459" y="293" on="1"/>
        <pt x="673" y="307" on="1"/>
        <pt x="671" y="347" on="0"/>
        <pt x="656" y="410" on="0"/>
        <pt x="613" y="459" on="0"/>
        <pt x="580" y="460" on="1"/>
        <pt x="527" y="460" on="0"/>
        <pt x="464" y="365" on="0"/>
      </contour>
    </TTGlyph>
    <TTGlyph name="agrave" xMin="35" yMin="-15" xMax="540" yMax="769">
      <component glyphName="a" x="0" y="0" flags="0x204"/>
      <component glyphName="grave" x="148" y="0" flags="0x4"/>
    </TTGlyph>
    <TTGlyph name="ampersand" xMin="51" yMin="-15" xMax="760" yMax="715">
      <contour>
        <pt x="51" y="166" on="1"/>
        <pt x="51" y="287" on="0"/>
        <pt x="208" y="370" on="1"/>
        <pt x="113" y="473" on="0"/>
        <pt x="113" y="560" on="1"/>
        <pt x="113" y="637" on="0"/>
        <pt x="226" y="715" on="0"/>
        <pt x="309" y="715" on="1"/>
        <pt x="390" y="715" on="0"/>
        <pt x="504" y="635" on="0"/>
        <pt x="504" y="563" on="1"/>
        <pt x="504" y="450" on="0"/>
        <pt x="350" y="371" on="1"/>
        <pt x="513" y="209" on="1"/>
        <pt x="537" y="262" on="0"/>
        <pt x="547" y="323" on="1"/>
        <pt x="487" y="345" on="1"/>
        <pt x="487" y="390" on="1"/>
        <pt x="692" y="390" on="1"/>
        <pt x="692" y="345" on="1"/>
        <pt x="606" y="323" on="1"/>
        <pt x="595" y="238" on="0"/>
        <pt x="559" y="166" on="1"/>
        <pt x="660" y="69" on="1"/>
        <pt x="760" y="45" on="1"/>
        <pt x="760" y="0" on="1"/>
        <pt x="590" y="0" on="1"/>
        <pt x="504" y="82" on="1"/>
        <pt x="417" y="-15" on="0"/>
        <pt x="284" y="-15" on="1"/>
        <pt x="185" y="-15" on="0"/>
        <pt x="51" y="78" on="0"/>
      </contour>
      <contour>
        <pt x="164" y="166" on="1"/>
        <pt x="164" y="117" on="0"/>
        <pt x="228" y="45" on="0"/>
        <pt x="289" y="45" on="1"/>
        <pt x="392" y="45" on="0"/>
        <pt x="460" y="125" on="1"/>
        <pt x="253" y="323" on="1"/>
        <pt x="164" y="252" on="0"/>
      </contour>
      <contour>
        <pt x="221" y="561" on="1"/>
        <pt x="221" y="537" on="0"/>
        <pt x="246" y="483" on="0"/>
        <pt x="306" y="419" on="0"/>
        <pt x="308" y="417" on="1"/>
        <pt x="346" y="440" on="0"/>
        <pt x="395" y="518" on="0"/>
        <pt x="395" y="562" on="1"/>
        <pt x="395" y="607" on="0"/>
        <pt x="345" y="658" on="0"/>
        <pt x="307" y="658" on="1"/>
        <pt x="272" y="658" on="0"/>
        <pt x="221" y="607" on="0"/>
      </contour>
    </TTGlyph>
    <TTGlyph name="aring" xMin="35" yMin="-15" xMax="540" yMax="780">
      <component glyphName="a" x="0" y="0" flags="0x204"/>
      <component glyphName="ring" x="151" y="0" flags="0x4"/>
    </TTGlyph>
    <TTGlyph name="asciicircum" xMin="51" yMin="267" xMax="522" yMax="715">
      <contour>
        <pt x="51" y="267" on="1"/>
        <pt x="261" y="715" on="1"/>
        <pt x="311" y="715" on="1"/>
        <pt x="522" y="267" on="1"/>
        <pt x="447" y="267" on="1"/>
        <pt x="285" y="623" on="1"/>
        <pt x="125" y="267" on="1"/>
      </contour>
    </TTGlyph>
    <TTGlyph name="asciitilde" xMin="49" yMin="269" xMax="506" yMax="444">
      <contour>
        <pt x="49" y="282" on="1"/>
        <pt x="67" y="444" on="0"/>
        <pt x="179" y="444" on="1"/>
        <pt x="206" y="444" on="0"/>
        <pt x="266" y="412" on="0"/>
        <pt x="310" y="375" on="0"/>
        <pt x="362" y="343" on="0"/>
        <pt x="382" y="343" on="1"/>
        <pt x="430" y="343" on="0"/>
        <pt x="443" y="444" on="1"/>
        <pt x="506" y="432" on="1"/>
        <pt x="486" y="269" on="0"/>
        <pt x="377" y="269" on="1"/>
        <pt x="344" y="269" on="0"/>
        <pt x="306" y="294" on="1"/>
        <pt x="234" y="345" on="1"/>
        <pt x="200" y="370" on="0"/>
        <pt x="175" y="370" on="1"/>
        <pt x="148" y="370" on="0"/>
        <pt x="117" y="323" on="0"/>
        <pt x="112" y="269" on="1"/>
      </contour>
    </TTGlyph>
    <TTGlyph name="asterisk" xMin="44" yMin="393" xMax="427" yMax="760">
      <contour>
        <pt x="44" y="591" on="1"/>
        <pt x="70" y="670" on="1"/>
        <pt x="211" y="604" on="1"/>
        <pt x="193" y="760" on="1"/>
        <pt x="277" y="760" on="1"/>
        <pt x="259" y="604" on="1"/>
        <pt x="401" y="669" on="1"/>
        <pt x="427" y="591" on="1"/>
        <pt x="274" y="557" on="1"/>
        <pt x="380" y="443" on="1"/>
        <pt x="313" y="394" on="1"/>
        <pt x="235" y="529" on="1"/>
        <pt x="159" y="393" on="1"/>
        <pt x="90" y="444" on="1"/>
        <pt x="196" y="558" on="1"/>
      </contour>
    </TTGlyph>
    <TTGlyph name="at" xMin="53" yMin="-110" xMax="868" yMax="715">
      <contour>
        <pt x="53" y="287" on="1"/>
        <pt x="53" y="471" on="0"/>
        <pt x="306" y="715" on="0"/>
        <pt x="497" y="715" on="1"/>
        <pt x="662" y="715" on="0"/>
        <pt x="868" y="539" on="0"/>
        <pt x="868" y="402" on="1"/>
        <pt x="868" y="336" on="0"/>
        <pt x="806" y="215" on="0"/>
        <pt x="712" y="135" on="0"/>
        <pt x="600" y="93" on="0"/>
        <pt x="551" y="99" on="1"/>
        <pt x="502" y="106" on="0"/>
        <pt x="502" y="142" on="1"/>
        <pt x="507" y="182" on="1"/>
        <pt x="437" y="99" on="0"/>
        <pt x="352" y="99" on="1"/>
        <pt x="311" y="99" on="0"/>
        <pt x="253" y="159" on="0"/>
        <pt x="253" y="221" on="1"/>
        <pt x="253" y="351" on="0"/>
        <pt x="415" y="535" on="0"/>
        <pt x="528" y="535" on="1"/>
        <pt x="609" y="535" on="0"/>
        <pt x="680" y="496" on="1"/>
        <pt x="592" y="155" on="1"/>
        <pt x="681" y="154" on="0"/>
        <pt x="805" y="308" on="0"/>
        <pt x="805" y="410" on="1"/>
        <pt x="805" y="518" on="0"/>
        <pt x="631" y="662" on="0"/>
        <pt x="499" y="662" on="1"/>
        <pt x="353" y="662" on="0"/>
        <pt x="144" y="449" on="0"/>
        <pt x="144" y="286" on="1"/>
        <pt x="144" y="203" on="0"/>
        <pt x="202" y="71" on="0"/>
        <pt x="302" y="-11" on="0"/>
        <pt x="427" y="-54" on="0"/>
        <pt x="498" y="-54" on="1"/>
        <pt x="595" y="-54" on="0"/>
        <pt x="684" y="-17" on="1"/>
        <pt x="704" y="-51" on="1"/>
        <pt x="603" y="-110" on="0"/>
        <pt x="472" y="-110" on="1"/>
        <pt x="393" y="-110" on="0"/>
        <pt x="246" y="-61" on="0"/>
        <pt x="125" y="33" on="0"/>
        <pt x="53" y="189" on="0"/>
      </contour>
      <contour>
        <pt x="351" y="240" on="1"/>
        <pt x="351" y="204" on="0"/>
        <pt x="376" y="163" on="0"/>
        <pt x="399" y="163" on="1"/>
        <pt x="429" y="163" on="0"/>
        <pt x="502" y="226" on="0"/>
        <pt x="530" y="270" on="1"/>
        <pt x="587" y="488" on="1"/>
        <pt x="566" y="495" on="0"/>
        <pt x="544" y="495" on="1"/>
        <pt x="465" y="495" on="0"/>
        <pt x="351" y="334" on="0"/>
      </contour>
    </TTGlyph>
    <TTGlyph name="atilde" xMin="35" yMin="-15" xMax="540" yMax="733">
      <component glyphName="a" x="0" y="0" flags="0x204"/>
      <component glyphName="tilde" x="71" y="0" flags="0x4"/>
    </TTGlyph>
    <TTGlyph name="b" xMin="-11" yMin="-15" xMax="550" yMax="800">
      <contour>
        <pt x="-11" y="719" on="1"/>
        <pt x="-11" y="762" on="1"/>
        <pt x="149" y="800" on="1"/>
        <pt x="193" y="800" on="1"/>
        <pt x="193" y="468" on="1"/>
        <pt x="258" y="515" on="0"/>
        <pt x="335" y="515" on="1"/>
        <pt x="428" y="515" on="0"/>
        <pt x="550" y="387" on="0"/>
        <pt x="550" y="269" on="1"/>
        <pt x="550" y="139" on="0"/>
        <pt x="383" y="-15" on="0"/>
        <pt x="261" y="-15" on="1"/>
        <pt x="160" y="-15" on="0"/>
        <pt x="74" y="36" on="1"/>
        <pt x="74" y="719" on="1"/>
      </contour>
      <contour>
        <pt x="193" y="48" on="1"/>
        <pt x="221" y="41" on="0"/>
        <pt x="252" y="41" on="1"/>
        <pt x="329" y="41" on="0"/>
        <pt x="426" y="156" on="0"/>
        <pt x="426" y="265" on="1"/>
        <pt x="426" y="352" on="0"/>
        <pt x="350" y="440" on="0"/>
        <pt x="290" y="440" on="1"/>
        <pt x="247" y="440" on="0"/>
        <pt x="193" y="414" on="1"/>
      </contour>
    </TTGlyph>
    <TTGlyph name="backslash" xMin="28" yMin="0" xMax="415" yMax="700">
      <component glyphName="slash" x="444" y="0" scalex="-0.999938964844" scaley="1.0" flags="0x4"/>
    </TTGlyph>
    <TTGlyph name="bar" xMin="85" yMin="-240" xMax="150" yMax="760">
      <contour>
        <pt x="85" y="-240" on="1"/>
        <pt x="85" y="760" on="1"/>
        <pt x="150" y="760" on="1"/>
        <pt x="150" y="-240" on="1"/>
      </contour>
    </TTGlyph>
    <TTGlyph name="braceleft" xMin="11" yMin="-128" xMax="359" yMax="760">
      <contour>
        <pt x="11" y="293" on="1"/>
        <pt x="11" y="340" on="1"/>
        <pt x="67" y="343" on="0"/>
        <pt x="129" y="389" on="0"/>
        <pt x="129" y="445" on="1"/>
        <pt x="129" y="617" on="1"/>
        <pt x="129" y="686" on="0"/>
        <pt x="202" y="760" on="0"/>
        <pt x="273" y="760" on="1"/>
        <pt x="359" y="760" on="1"/>
        <pt x="359" y="712" on="1"/>
        <pt x="329" y="712" on="1"/>
        <pt x="286" y="712" on="0"/>
        <pt x="247" y="660" on="0"/>
        <pt x="247" y="607" on="1"/>
        <pt x="247" y="441" on="1"/>
        <pt x="247" y="336" on="0"/>
        <pt x="136" y="318" on="1"/>
        <pt x="136" y="317" on="1"/>
        <pt x="247" y="298" on="0"/>
        <pt x="247" y="193" on="1"/>
        <pt x="247" y="25" on="1"/>
        <pt x="247" y="-80" on="0"/>
        <pt x="329" y="-80" on="1"/>
        <pt x="359" y="-80" on="1"/>
        <pt x="359" y="-128" on="1"/>
        <pt x="273" y="-128" on="1"/>
        <pt x="204" y="-128" on="0"/>
        <pt x="129" y="-50" on="0"/>
        <pt x="129" y="16" on="1"/>
        <pt x="129" y="187" on="1"/>
        <pt x="129" y="245" on="0"/>
        <pt x="68" y="291" on="0"/>
      </contour>
    </TTGlyph>
    <TTGlyph name="braceright" xMin="19" yMin="-128" xMax="367" yMax="760">
      <contour>
        <pt x="19" y="-80" on="1"/>
        <pt x="49" y="-80" on="1"/>
        <pt x="93" y="-80" on="0"/>
        <pt x="131" y="-28" on="0"/>
        <pt x="131" y="25" on="1"/>
        <pt x="131" y="193" on="1"/>
        <pt x="131" y="298" on="0"/>
        <pt x="242" y="317" on="1"/>
        <pt x="242" y="318" on="1"/>
        <pt x="131" y="336" on="0"/>
        <pt x="131" y="441" on="1"/>
        <pt x="131" y="607" on="1"/>
        <pt x="131" y="660" on="0"/>
        <pt x="93" y="712" on="0"/>
        <pt x="49" y="712" on="1"/>
        <pt x="19" y="712" on="1"/>
        <pt x="19" y="760" on="1"/>
        <pt x="105" y="760" on="1"/>
        <pt x="176" y="760" on="0"/>
        <pt x="249" y="686" on="0"/>
        <pt x="249" y="617" on="1"/>
        <pt x="249" y="445" on="1"/>
        <pt x="249" y="389" on="0"/>
        <pt x="311" y="343" on="0"/>
        <pt x="367" y="340" on="1"/>
        <pt x="367" y="293" on="1"/>
        <pt x="310" y="291" on="0"/>
        <pt x="249" y="245" on="0"/>
        <pt x="249" y="187" on="1"/>
        <pt x="249" y="16" on="1"/>
        <pt x="249" y="-48" on="0"/>
        <pt x="156" y="-128" on="0"/>
        <pt x="85" y="-128" on="1"/>
        <pt x="19" y="-128" on="1"/>
      </contour>
    </TTGlyph>
    <TTGlyph name="bracketleft" xMin="86" yMin="-128" xMax="314" yMax="760">
      <contour>
        <pt x="86" y="-128" on="1"/>
        <pt x="86" y="760" on="1"/>
        <pt x="314" y="760" on="1"/>
        <pt x="314" y="705" on="1"/>
        <pt x="200" y="705" on="1"/>
        <pt x="200" y="-73" on="1"/>
        <pt x="314" y="-73" on="1"/>
        <pt x="314" y="-128" on="1"/>
      </contour>
    </TTGlyph>
    <TTGlyph name="bracketright" xMin="19" yMin="-128" xMax="247" yMax="760">
      <contour>
        <pt x="19" y="-73" on="1"/>
        <pt x="133" y="-73" on="1"/>
        <pt x="133" y="705" on="1"/>
        <pt x="19" y="705" on="1"/>
        <pt x="19" y="760" on="1"/>
        <pt x="247" y="760" on="1"/>
        <pt x="247" y="-128" on="1"/>
        <pt x="19" y="-128" on="1"/>
      </contour>
    </TTGlyph>
    <TTGlyph name="brokenbar" xMin="88" yMin="-240" xMax="153" yMax="760">
      <contour>
        <pt x="88" y="160" on="1"/>
        <pt x="153" y="160" on="1"/>
        <pt x="153" y="-240" on="1"/>
        <pt x="88" y="-240" on="1"/>
      </contour>
      <contour>
        <pt x="88" y="360" on="1"/>
        <pt x="88" y="760" on="1"/>
        <pt x="153" y="760" on="1"/>
        <pt x="153" y="360" on="1"/>
      </contour>
    </TTGlyph>
    <TTGlyph name="bullet" xMin="71" yMin="207" xMax="371" yMax="507">
      <contour>
        <pt x="71" y="357" on="1"/>
        <pt x="71" y="423" on="0"/>
        <pt x="164" y="507" on="0"/>
        <pt x="221" y="507" on="1"/>
        <pt x="278" y="507" on="0"/>
        <pt x="371" y="421" on="0"/>
        <pt x="371" y="357" on="1"/>
        <pt x="371" y="293" on="0"/>
        <pt x="278" y="207" on="0"/>
        <pt x="221" y="207" on="1"/>
        <pt x="166" y="207" on="0"/>
        <pt x="71" y="291" on="0"/>
      </contour>
    </TTGlyph>
    <TTGlyph name="c" xMin="43" yMin="-15" xMax="467" yMax="515">
      <contour>
        <pt x="43" y="248" on="1"/>
        <pt x="43" y="367" on="0"/>
        <pt x="188" y="515" on="0"/>
        <pt x="291" y="515" on="1"/>
        <pt x="380" y="515" on="0"/>
        <pt x="451" y="473" on="1"/>
        <pt x="450" y="439" on="0"/>
        <pt x="412" y="382" on="0"/>
        <pt x="388" y="369" on="1"/>
        <pt x="292" y="460" on="1"/>
        <pt x="286" y="460" on="1"/>
        <pt x="235" y="451" on="0"/>
        <pt x="165" y="340" on="0"/>
        <pt x="165" y="250" on="1"/>
        <pt x="165" y="147" on="0"/>
        <pt x="260" y="51" on="0"/>
        <pt x="338" y="51" on="1"/>
        <pt x="399" y="51" on="0"/>
        <pt x="450" y="79" on="1"/>
        <pt x="467" y="30" on="1"/>
        <pt x="383" y="-15" on="0"/>
        <pt x="296" y="-15" on="1"/>
        <pt x="188" y="-15" on="0"/>
        <pt x="43" y="124" on="0"/>
      </contour>
    </TTGlyph>
    <TTGlyph name="caron" xMin="18" yMin="582" xMax="334" yMax="791">
      <contour>
        <pt x="18" y="767" on="1"/>
        <pt x="63" y="791" on="1"/>
        <pt x="175" y="664" on="1"/>
        <pt x="288" y="791" on="1"/>
        <pt x="334" y="767" on="1"/>
        <pt x="217" y="582" on="1"/>
        <pt x="133" y="582" on="1"/>
      </contour>
    </TTGlyph>
    <TTGlyph name="caron.case" xMin="3" yMin="767" xMax="353" yMax="937">
      <contour>
        <pt x="3" y="913" on="1"/>
        <pt x="54" y="936" on="1"/>
        <pt x="176" y="843" on="1"/>
        <pt x="307" y="937" on="1"/>
        <pt x="353" y="913" on="1"/>
        <pt x="218" y="767" on="1"/>
        <pt x="134" y="767" on="1"/>
      </contour>
    </TTGlyph>
    <TTGlyph name="ccedilla" xMin="43" yMin="-240" xMax="467" yMax="515">
      <contour>
        <pt x="170" y="-173" on="1"/>
        <pt x="208" y="-181" on="0"/>
        <pt x="232" y="-181" on="1"/>
        <pt x="261" y="-181" on="0"/>
        <pt x="294" y="-152" on="0"/>
        <pt x="294" y="-127" on="1"/>
        <pt x="294" y="-74" on="0"/>
        <pt x="221" y="-69" on="1"/>
        <pt x="237" y="-9" on="1"/>
        <pt x="167" y="5" on="0"/>
        <pt x="115" y="54" on="1"/>
        <pt x="43" y="124" on="0"/>
        <pt x="43" y="248" on="1"/>
        <pt x="43" y="367" on="0"/>
        <pt x="188" y="515" on="0"/>
        <pt x="291" y="515" on="1"/>
        <pt x="380" y="515" on="0"/>
        <pt x="451" y="473" on="1"/>
        <pt x="450" y="439" on="0"/>
        <pt x="412" y="382" on="0"/>
        <pt x="388" y="369" on="1"/>
        <pt x="292" y="460" on="1"/>
        <pt x="286" y="460" on="1"/>
        <pt x="235" y="451" on="0"/>
        <pt x="165" y="340" on="0"/>
        <pt x="165" y="250" on="1"/>
        <pt x="165" y="147" on="0"/>
        <pt x="260" y="51" on="0"/>
        <pt x="338" y="51" on="1"/>
        <pt x="399" y="51" on="0"/>
        <pt x="450" y="79" on="1"/>
        <pt x="467" y="30" on="1"/>
        <pt x="383" y="-15" on="0"/>
        <pt x="296" y="-15" on="1"/>
        <pt x="289" y="-15" on="1"/>
        <pt x="284" y="-34" on="1"/>
        <pt x="334" y="-36" on="0"/>
        <pt x="389" y="-86" on="0"/>
        <pt x="389" y="-126" on="1"/>
        <pt x="389" y="-179" on="0"/>
        <pt x="314" y="-240" on="0"/>
        <pt x="247" y="-240" on="1"/>
        <pt x="223" y="-240" on="0"/>
        <pt x="170" y="-229" on="1"/>
      </contour>
    </TTGlyph>
    <TTGlyph name="cedilla" xMin="60" yMin="-240" xMax="279" yMax="9">
      <contour>
        <pt x="60" y="-173" on="1"/>
        <pt x="98" y="-181" on="0"/>
        <pt x="122" y="-181" on="1"/>
        <pt x="151" y="-181" on="0"/>
        <pt x="184" y="-152" on="0"/>
        <pt x="184" y="-127" on="1"/>
        <pt x="184" y="-74" on="0"/>
        <pt x="111" y="-69" on="1"/>
        <pt x="132" y="9" on="1"/>
        <pt x="185" y="9" on="1"/>
        <pt x="174" y="-34" on="1"/>
        <pt x="224" y="-36" on="0"/>
        <pt x="279" y="-86" on="0"/>
        <pt x="279" y="-126" on="1"/>
        <pt x="279" y="-179" on="0"/>
        <pt x="204" y="-240" on="0"/>
        <pt x="137" y="-240" on="1"/>
        <pt x="113" y="-240" on="0"/>
        <pt x="60" y="-229" on="1"/>
      </contour>
    </TTGlyph>
    <TTGlyph name="cent" xMin="48" yMin="-140" xMax="467" yMax="648">
      <contour>
        <pt x="48" y="250" on="1"/>
        <pt x="48" y="362" on="0"/>
        <pt x="162" y="499" on="0"/>
        <pt x="257" y="512" on="1"/>
        <pt x="257" y="648" on="1"/>
        <pt x="322" y="648" on="1"/>
        <pt x="322" y="514" on="1"/>
        <pt x="400" y="510" on="0"/>
        <pt x="466" y="473" on="1"/>
        <pt x="466" y="446" on="0"/>
        <pt x="432" y="383" on="0"/>
        <pt x="408" y="368" on="1"/>
        <pt x="322" y="459" on="1"/>
        <pt x="322" y="50" on="1"/>
        <pt x="389" y="49" on="0"/>
        <pt x="455" y="68" on="1"/>
        <pt x="467" y="19" on="1"/>
        <pt x="394" y="-11" on="0"/>
        <pt x="322" y="-15" on="1"/>
        <pt x="322" y="-140" on="1"/>
        <pt x="257" y="-140" on="1"/>
        <pt x="257" y="-12" on="1"/>
        <pt x="164" y="2" on="0"/>
        <pt x="48" y="140" on="0"/>
      </contour>
      <contour>
        <pt x="170" y="250" on="1"/>
        <pt x="170" y="112" on="0"/>
        <pt x="257" y="68" on="1"/>
        <pt x="257" y="446" on="1"/>
        <pt x="170" y="406" on="0"/>
      </contour>
    </TTGlyph>
    <TTGlyph name="circumflex" xMin="18" yMin="557" xMax="334" yMax="766">
      <contour>
        <pt x="18" y="581" on="1"/>
        <pt x="133" y="766" on="1"/>
        <pt x="217" y="766" on="1"/>
        <pt x="334" y="581" on="1"/>
        <pt x="288" y="557" on="1"/>
        <pt x="175" y="684" on="1"/>
        <pt x="63" y="557" on="1"/>
      </contour>
    </TTGlyph>
    <TTGlyph name="circumflex.case" xMin="8" yMin="743" xMax="357" yMax="913">
      <contour>
        <pt x="8" y="767" on="1"/>
        <pt x="143" y="913" on="1"/>
        <pt x="227" y="913" on="1"/>
        <pt x="357" y="767" on="1"/>
        <pt x="307" y="744" on="1"/>
        <pt x="185" y="836" on="1"/>
        <pt x="54" y="743" on="1"/>
      </contour>
    </TTGlyph>
    <TTGlyph name="colon" xMin="62" yMin="-15" xMax="197" yMax="460">
      <contour>
        <pt x="62" y="53" on="1"/>
        <pt x="62" y="81" on="0"/>
        <pt x="102" y="120" on="0"/>
        <pt x="130" y="120" on="1"/>
        <pt x="158" y="120" on="0"/>
        <pt x="197" y="81" on="0"/>
        <pt x="197" y="53" on="1"/>
        <pt x="197" y="26" on="0"/>
        <pt x="157" y="-15" on="0"/>
        <pt x="130" y="-15" on="1"/>
        <pt x="102" y="-15" on="0"/>
        <pt x="62" y="26" on="0"/>
      </contour>
      <contour>
        <pt x="62" y="393" on="1"/>
        <pt x="62" y="421" on="0"/>
        <pt x="102" y="460" on="0"/>
        <pt x="130" y="460" on="1"/>
        <pt x="158" y="460" on="0"/>
        <pt x="197" y="421" on="0"/>
        <pt x="197" y="393" on="1"/>
        <pt x="197" y="366" on="0"/>
        <pt x="157" y="325" on="0"/>
        <pt x="130" y="325" on="1"/>
        <pt x="102" y="325" on="0"/>
        <pt x="62" y="366" on="0"/>
      </contour>
    </TTGlyph>
    <TTGlyph name="comma" xMin="19" yMin="-173" xMax="191" yMax="125">
      <contour>
        <pt x="19" y="-140" on="1"/>
        <pt x="79" y="-77" on="0"/>
        <pt x="109" y="-2" on="1"/>
        <pt x="43" y="49" on="1"/>
        <pt x="43" y="82" on="0"/>
        <pt x="88" y="125" on="0"/>
        <pt x="116" y="125" on="1"/>
        <pt x="151" y="125" on="0"/>
        <pt x="191" y="83" on="0"/>
        <pt x="191" y="42" on="1"/>
        <pt x="191" y="-8" on="0"/>
        <pt x="101" y="-140" on="0"/>
        <pt x="56" y="-173" on="1"/>
      </contour>
    </TTGlyph>
    <TTGlyph name="copyright" xMin="48" yMin="-10" xMax="783" yMax="725">
      <contour>
        <pt x="416" y="725" on="1"/>
        <pt x="491" y="725" on="0"/>
        <pt x="625" y="666" on="0"/>
        <pt x="725" y="566" on="0"/>
        <pt x="783" y="432" on="0"/>
        <pt x="783" y="357" on="1"/>
        <pt x="783" y="282" on="0"/>
        <pt x="725" y="149" on="0"/>
        <pt x="626" y="49" on="0"/>
        <pt x="492" y="-10" on="0"/>
        <pt x="416" y="-10" on="1"/>
        <pt x="340" y="-10" on="0"/>
        <pt x="206" y="48" on="0"/>
        <pt x="106" y="148" on="0"/>
        <pt x="48" y="281" on="0"/>
        <pt x="48" y="357" on="1"/>
        <pt x="48" y="433" on="0"/>
        <pt x="106" y="567" on="0"/>
        <pt x="206" y="667" on="0"/>
        <pt x="340" y="725" on="0"/>
      </contour>
      <contour>
        <pt x="108" y="357" on="1"/>
        <pt x="108" y="293" on="0"/>
        <pt x="156" y="181" on="0"/>
        <pt x="240" y="97" on="0"/>
        <pt x="352" y="49" on="0"/>
        <pt x="416" y="49" on="1"/>
        <pt x="479" y="49" on="0"/>
        <pt x="591" y="98" on="0"/>
        <pt x="675" y="182" on="0"/>
        <pt x="724" y="294" on="0"/>
        <pt x="724" y="357" on="1"/>
        <pt x="724" y="421" on="0"/>
        <pt x="675" y="534" on="0"/>
        <pt x="591" y="618" on="0"/>
        <pt x="479" y="666" on="0"/>
        <pt x="416" y="666" on="1"/>
        <pt x="352" y="666" on="0"/>
        <pt x="240" y="618" on="0"/>
        <pt x="156" y="534" on="0"/>
        <pt x="108" y="421" on="0"/>
      </contour>
      <contour>
        <pt x="436" y="576" on="1"/>
        <pt x="500" y="576" on="0"/>
        <pt x="549" y="553" on="1"/>
        <pt x="549" y="442" on="1"/>
        <pt x="514" y="442" on="1"/>
        <pt x="488" y="526" on="1"/>
        <pt x="473" y="528" on="0"/>
        <pt x="451" y="530" on="0"/>
        <pt x="443" y="530" on="1"/>
        <pt x="301" y="530" on="0"/>
        <pt x="301" y="357" on="1"/>
        <pt x="301" y="185" on="0"/>
        <pt x="441" y="185" on="1"/>
        <pt x="453" y="185" on="0"/>
        <pt x="471" y="186" on="0"/>
        <pt x="478" y="187" on="1"/>
        <pt x="523" y="278" on="1"/>
        <pt x="556" y="278" on="1"/>
        <pt x="541" y="167" on="1"/>
        <pt x="485" y="138" on="0"/>
        <pt x="426" y="138" on="1"/>
        <pt x="324" y="138" on="0"/>
        <pt x="218" y="251" on="0"/>
        <pt x="218" y="357" on="1"/>
        <pt x="218" y="463" on="0"/>
        <pt x="327" y="576" on="0"/>
      </contour>
    </TTGlyph>
    <TTGlyph name="currency" xMin="64" yMin="118" xMax="545" yMax="600">
      <contour>
        <pt x="64" y="546" on="1"/>
        <pt x="118" y="600" on="1"/>
        <pt x="185" y="532" on="1"/>
        <pt x="242" y="569" on="0"/>
        <pt x="305" y="569" on="1"/>
        <pt x="366" y="569" on="0"/>
        <pt x="424" y="531" on="1"/>
        <pt x="492" y="599" on="1"/>
        <pt x="545" y="545" on="1"/>
        <pt x="478" y="478" on="1"/>
        <pt x="516" y="418" on="0"/>
        <pt x="516" y="359" on="1"/>
        <pt x="516" y="297" on="0"/>
        <pt x="478" y="239" on="1"/>
        <pt x="545" y="172" on="1"/>
        <pt x="492" y="119" on="1"/>
        <pt x="425" y="185" on="1"/>
        <pt x="369" y="148" on="0"/>
        <pt x="305" y="148" on="1"/>
        <pt x="240" y="148" on="0"/>
        <pt x="185" y="185" on="1"/>
        <pt x="119" y="118" on="1"/>
        <pt x="65" y="172" on="1"/>
        <pt x="132" y="239" on="1"/>
        <pt x="94" y="295" on="0"/>
        <pt x="94" y="359" on="1"/>
        <pt x="94" y="420" on="0"/>
        <pt x="131" y="478" on="1"/>
      </contour>
      <contour>
        <pt x="173" y="359" on="1"/>
        <pt x="173" y="304" on="0"/>
        <pt x="250" y="227" on="0"/>
        <pt x="305" y="227" on="1"/>
        <pt x="359" y="227" on="0"/>
        <pt x="437" y="304" on="0"/>
        <pt x="437" y="359" on="1"/>
        <pt x="437" y="413" on="0"/>
        <pt x="359" y="490" on="0"/>
        <pt x="305" y="490" on="1"/>
        <pt x="250" y="490" on="0"/>
        <pt x="173" y="413" on="0"/>
      </contour>
    </TTGlyph>
    <TTGlyph name="d" xMin="43" yMin="-15" xMax="598" yMax="800">
      <contour>
        <pt x="43" y="232" on="1"/>
        <pt x="43" y="367" on="0"/>
        <pt x="209" y="515" on="0"/>
        <pt x="327" y="515" on="1"/>
        <pt x="369" y="515" on="0"/>
        <pt x="400" y="506" on="1"/>
        <pt x="400" y="719" on="1"/>
        <pt x="315" y="719" on="1"/>
        <pt x="315" y="762" on="1"/>
        <pt x="475" y="800" on="1"/>
        <pt x="520" y="800" on="1"/>
        <pt x="520" y="65" on="1"/>
        <pt x="598" y="65" on="1"/>
        <pt x="598" y="32" on="1"/>
        <pt x="582" y="19" on="1"/>
        <pt x="572" y="11" on="0"/>
        <pt x="517" y="-15" on="0"/>
        <pt x="491" y="-15" on="1"/>
        <pt x="480" y="-15" on="0"/>
        <pt x="459" y="-10" on="0"/>
        <pt x="443" y="-2" on="0"/>
        <pt x="429" y="9" on="0"/>
        <pt x="420" y="19" on="0"/>
        <pt x="411" y="31" on="0"/>
        <pt x="407" y="39" on="0"/>
        <pt x="404" y="44" on="1"/>
        <pt x="402" y="48" on="1"/>
        <pt x="342" y="-15" on="0"/>
        <pt x="254" y="-15" on="1"/>
        <pt x="167" y="-15" on="0"/>
        <pt x="43" y="112" on="0"/>
      </contour>
      <contour>
        <pt x="166" y="236" on="1"/>
        <pt x="166" y="150" on="0"/>
        <pt x="243" y="60" on="0"/>
        <pt x="296" y="60" on="1"/>
        <pt x="352" y="60" on="0"/>
        <pt x="400" y="97" on="1"/>
        <pt x="400" y="450" on="1"/>
        <pt x="369" y="460" on="0"/>
        <pt x="336" y="460" on="1"/>
        <pt x="260" y="460" on="0"/>
        <pt x="166" y="346" on="0"/>
      </contour>
    </TTGlyph>
    <TTGlyph name="degree" xMin="38" yMin="462" xMax="331" yMax="755">
      <contour>
        <pt x="184" y="462" on="1"/>
        <pt x="123" y="462" on="0"/>
        <pt x="38" y="548" on="0"/>
        <pt x="38" y="609" on="1"/>
        <pt x="38" y="669" on="0"/>
        <pt x="123" y="755" on="0"/>
        <pt x="184" y="755" on="1"/>
        <pt x="244" y="755" on="0"/>
        <pt x="331" y="668" on="0"/>
        <pt x="331" y="609" on="1"/>
        <pt x="331" y="548" on="0"/>
        <pt x="244" y="462" on="0"/>
      </contour>
      <contour>
        <pt x="268" y="609" on="1"/>
        <pt x="268" y="643" on="0"/>
        <pt x="218" y="692" on="0"/>
        <pt x="184" y="692" on="1"/>
        <pt x="150" y="692" on="0"/>
        <pt x="101" y="643" on="0"/>
        <pt x="101" y="609" on="1"/>
        <pt x="101" y="575" on="0"/>
        <pt x="150" y="525" on="0"/>
        <pt x="184" y="525" on="1"/>
        <pt x="218" y="525" on="0"/>
        <pt x="268" y="575" on="0"/>
      </contour>
    </TTGlyph>
    <TTGlyph name="dieresis" xMin="32" yMin="601" xMax="363" yMax="732">
      <contour>
        <pt x="51" y="620" on="1"/>
        <pt x="32" y="638" on="0"/>
        <pt x="32" y="667" on="1"/>
        <pt x="32" y="694" on="0"/>
        <pt x="70" y="732" on="0"/>
        <pt x="98" y="732" on="1"/>
        <pt x="125" y="732" on="0"/>
        <pt x="163" y="694" on="0"/>
        <pt x="163" y="667" on="1"/>
        <pt x="163" y="639" on="0"/>
        <pt x="125" y="601" on="0"/>
        <pt x="98" y="601" on="1"/>
        <pt x="69" y="601" on="0"/>
      </contour>
      <contour>
        <pt x="251" y="620" on="1"/>
        <pt x="232" y="638" on="0"/>
        <pt x="232" y="667" on="1"/>
        <pt x="232" y="694" on="0"/>
        <pt x="270" y="732" on="0"/>
        <pt x="298" y="732" on="1"/>
        <pt x="325" y="732" on="0"/>
        <pt x="363" y="694" on="0"/>
        <pt x="363" y="667" on="1"/>
        <pt x="363" y="639" on="0"/>
        <pt x="325" y="601" on="0"/>
        <pt x="298" y="601" on="1"/>
        <pt x="269" y="601" on="0"/>
      </contour>
    </TTGlyph>
    <TTGlyph name="dieresis.case" xMin="20" yMin="761" xMax="365" yMax="892">
      <contour>
        <pt x="85" y="892" on="1"/>
        <pt x="112" y="892" on="0"/>
        <pt x="150" y="854" on="0"/>
        <pt x="150" y="827" on="1"/>
        <pt x="150" y="799" on="0"/>
        <pt x="112" y="761" on="0"/>
        <pt x="85" y="761" on="1"/>
        <pt x="58" y="761" on="0"/>
        <pt x="20" y="799" on="0"/>
        <pt x="20" y="827" on="1"/>
        <pt x="20" y="855" on="0"/>
        <pt x="58" y="892" on="0"/>
      </contour>
      <contour>
        <pt x="300" y="892" on="1"/>
        <pt x="327" y="892" on="0"/>
        <pt x="365" y="854" on="0"/>
        <pt x="365" y="827" on="1"/>
        <pt x="365" y="799" on="0"/>
        <pt x="327" y="761" on="0"/>
        <pt x="300" y="761" on="1"/>
        <pt x="273" y="761" on="0"/>
        <pt x="234" y="799" on="0"/>
        <pt x="234" y="827" on="1"/>
        <pt x="234" y="854" on="0"/>
        <pt x="272" y="892" on="0"/>
      </contour>
    </TTGlyph>
    <TTGlyph name="divide" xMin="47" yMin="119" xMax="497" yMax="593">
      <contour>
        <pt x="204" y="187" on="1"/>
        <pt x="204" y="215" on="0"/>
        <pt x="244" y="254" on="0"/>
        <pt x="272" y="254" on="1"/>
        <pt x="300" y="254" on="0"/>
        <pt x="339" y="215" on="0"/>
        <pt x="339" y="187" on="1"/>
        <pt x="339" y="160" on="0"/>
        <pt x="299" y="119" on="0"/>
        <pt x="272" y="119" on="1"/>
        <pt x="244" y="119" on="0"/>
        <pt x="204" y="160" on="0"/>
      </contour>
      <contour>
        <pt x="204" y="526" on="1"/>
        <pt x="204" y="554" on="0"/>
        <pt x="244" y="593" on="0"/>
        <pt x="272" y="593" on="1"/>
        <pt x="300" y="593" on="0"/>
        <pt x="339" y="554" on="0"/>
        <pt x="339" y="526" on="1"/>
        <pt x="339" y="499" on="0"/>
        <pt x="299" y="458" on="0"/>
        <pt x="272" y="458" on="1"/>
        <pt x="244" y="458" on="0"/>
        <pt x="204" y="499" on="0"/>
      </contour>
      <contour>
        <pt x="47" y="323" on="1"/>
        <pt x="47" y="390" on="1"/>
        <pt x="497" y="390" on="1"/>
        <pt x="497" y="323" on="1"/>
      </contour>
    </TTGlyph>
    <TTGlyph name="dollar" xMin="60" yMin="-83" xMax="550" yMax="777">
      <contour>
        <pt x="60" y="32" on="1"/>
        <pt x="60" y="216" on="1"/>
        <pt x="106" y="216" on="1"/>
        <pt x="157" y="63" on="1"/>
        <pt x="205" y="48" on="0"/>
        <pt x="271" y="48" on="1"/>
        <pt x="271" y="316" on="1"/>
        <pt x="228" y="333" on="0"/>
        <pt x="164" y="367" on="0"/>
        <pt x="99" y="418" on="0"/>
        <pt x="64" y="490" on="0"/>
        <pt x="64" y="534" on="1"/>
        <pt x="64" y="612" on="0"/>
        <pt x="178" y="707" on="0"/>
        <pt x="271" y="714" on="1"/>
        <pt x="271" y="777" on="1"/>
        <pt x="336" y="777" on="1"/>
        <pt x="336" y="714" on="1"/>
        <pt x="427" y="710" on="0"/>
        <pt x="505" y="684" on="1"/>
        <pt x="505" y="500" on="1"/>
        <pt x="459" y="500" on="1"/>
        <pt x="411" y="646" on="1"/>
        <pt x="373" y="653" on="0"/>
        <pt x="336" y="654" on="1"/>
        <pt x="336" y="415" on="1"/>
        <pt x="444" y="374" on="0"/>
        <pt x="548" y="269" on="0"/>
        <pt x="550" y="195" on="1"/>
        <pt x="550" y="103" on="0"/>
        <pt x="431" y="-2" on="0"/>
        <pt x="336" y="-12" on="1"/>
        <pt x="336" y="-83" on="1"/>
        <pt x="271" y="-83" on="1"/>
        <pt x="271" y="-15" on="1"/>
        <pt x="157" y="-14" on="0"/>
      </contour>
      <contour>
        <pt x="172" y="548" on="1"/>
        <pt x="172" y="513" on="0"/>
        <pt x="223" y="462" on="0"/>
        <pt x="271" y="441" on="1"/>
        <pt x="271" y="651" on="1"/>
        <pt x="225" y="645" on="0"/>
        <pt x="172" y="586" on="0"/>
      </contour>
      <contour>
        <pt x="336" y="53" on="1"/>
        <pt x="437" y="76" on="0"/>
        <pt x="437" y="169" on="1"/>
        <pt x="437" y="209" on="0"/>
        <pt x="386" y="263" on="0"/>
        <pt x="336" y="288" on="1"/>
      </contour>
    </TTGlyph>
    <TTGlyph name="dotlessi" xMin="36" yMin="0" xMax="326" yMax="500">
      <contour>
        <pt x="36" y="0" on="1"/>
        <pt x="36" y="43" on="1"/>
        <pt x="121" y="63" on="1"/>
        <pt x="121" y="419" on="1"/>
        <pt x="36" y="419" on="1"/>
        <pt x="36" y="462" on="1"/>
        <pt x="196" y="500" on="1"/>
        <pt x="241" y="500" on="1"/>
        <pt x="241" y="63" on="1"/>
        <pt x="326" y="43" on="1"/>
        <pt x="326" y="0" on="1"/>
      </contour>
    </TTGlyph>
    <TTGlyph name="e" xMin="42" yMin="-15" xMax="499" yMax="515">
      <contour>
        <pt x="42" y="256" on="1"/>
        <pt x="42" y="366" on="0"/>
        <pt x="168" y="515" on="0"/>
        <pt x="279" y="515" on="1"/>
        <pt x="337" y="515" on="0"/>
        <pt x="424" y="472" on="0"/>
        <pt x="475" y="396" on="0"/>
        <pt x="499" y="302" on="0"/>
        <pt x="499" y="247" on="1"/>
        <pt x="161" y="247" on="1"/>
        <pt x="168" y="165" on="0"/>
        <pt x="264" y="50" on="0"/>
        <pt x="347" y="50" on="1"/>
        <pt x="400" y="50" on="0"/>
        <pt x="462" y="73" on="1"/>
        <pt x="479" y="26" on="1"/>
        <pt x="386" y="-15" on="0"/>
        <pt x="302" y="-15" on="1"/>
        <pt x="181" y="-15" on="0"/>
        <pt x="42" y="143" on="0"/>
      </contour>
      <contour>
        <pt x="161" y="296" on="1"/>
        <pt x="375" y="312" on="1"/>
        <pt x="372" y="372" on="0"/>
        <pt x="322" y="460" on="0"/>
        <pt x="276" y="460" on="1"/>
        <pt x="226" y="460" on="0"/>
        <pt x="163" y="366" on="0"/>
      </contour>
    </TTGlyph>
    <TTGlyph name="eacute" xMin="42" yMin="-15" xMax="499" yMax="770">
      <component glyphName="e" x="0" y="0" flags="0x204"/>
      <component glyphName="acute" x="240" y="0" flags="0x4"/>
    </TTGlyph>
    <TTGlyph name="ecircumflex" xMin="42" yMin="-15" xMax="499" yMax="766">
      <component glyphName="e" x="0" y="0" flags="0x204"/>
      <component glyphName="circumflex" x="104" y="0" flags="0x4"/>
    </TTGlyph>
    <TTGlyph name="edieresis" xMin="42" yMin="-15" xMax="499" yMax="732">
      <component glyphName="e" x="0" y="0" flags="0x204"/>
      <component glyphName="dieresis" x="82" y="0" flags="0x4"/>
    </TTGlyph>
    <TTGlyph name="egrave" xMin="42" yMin="-15" xMax="499" yMax="769">
      <component glyphName="e" x="0" y="0" flags="0x204"/>
      <component glyphName="grave" x="177" y="0" flags="0x4"/>
    </TTGlyph>
    <TTGlyph name="eight" xMin="66" yMin="-15" xMax="527" yMax="715">
      <contour>
        <pt x="66" y="169" on="1"/>
        <pt x="66" y="278" on="0"/>
        <pt x="209" y="366" on="1"/>
        <pt x="150" y="406" on="0"/>
        <pt x="84" y="491" on="0"/>
        <pt x="84" y="550" on="1"/>
        <pt x="84" y="628" on="0"/>
        <pt x="209" y="715" on="0"/>
        <pt x="295" y="715" on="1"/>
        <pt x="380" y="715" on="0"/>
        <pt x="501" y="631" on="0"/>
        <pt x="501" y="556" on="1"/>
        <pt x="501" y="462" on="0"/>
        <pt x="393" y="385" on="1"/>
        <pt x="456" y="344" on="0"/>
        <pt x="527" y="249" on="0"/>
        <pt x="527" y="180" on="1"/>
        <pt x="527" y="90" on="0"/>
        <pt x="385" y="-15" on="0"/>
        <pt x="293" y="-15" on="1"/>
        <pt x="203" y="-15" on="0"/>
        <pt x="66" y="84" on="0"/>
      </contour>
      <contour>
        <pt x="167" y="169" on="1"/>
        <pt x="167" y="109" on="0"/>
        <pt x="241" y="42" on="0"/>
        <pt x="292" y="42" on="1"/>
        <pt x="341" y="42" on="0"/>
        <pt x="412" y="106" on="0"/>
        <pt x="412" y="162" on="1"/>
        <pt x="412" y="190" on="0"/>
        <pt x="390" y="237" on="0"/>
        <pt x="338" y="282" on="0"/>
        <pt x="299" y="309" on="0"/>
        <pt x="261" y="333" on="1"/>
        <pt x="213" y="297" on="0"/>
        <pt x="167" y="208" on="0"/>
      </contour>
      <contour>
        <pt x="198" y="565" on="1"/>
        <pt x="198" y="546" on="0"/>
        <pt x="216" y="509" on="0"/>
        <pt x="236" y="484" on="0"/>
        <pt x="283" y="450" on="0"/>
        <pt x="296" y="442" on="1"/>
        <pt x="341" y="416" on="1"/>
        <pt x="371" y="445" on="0"/>
        <pt x="401" y="519" on="0"/>
        <pt x="401" y="548" on="1"/>
        <pt x="401" y="599" on="0"/>
        <pt x="339" y="656" on="0"/>
        <pt x="294" y="656" on="1"/>
        <pt x="255" y="656" on="0"/>
        <pt x="198" y="607" on="0"/>
      </contour>
    </TTGlyph>
    <TTGlyph name="emdash" xMin="72" yMin="241" xMax="1082" yMax="305">
      <contour>
        <pt x="72" y="241" on="1"/>
        <pt x="72" y="305" on="1"/>
        <pt x="1082" y="305" on="1"/>
        <pt x="1082" y="241" on="1"/>
      </contour>
    </TTGlyph>
    <TTGlyph name="endash" xMin="72" yMin="241" xMax="582" yMax="305">
      <contour>
        <pt x="72" y="241" on="1"/>
        <pt x="72" y="305" on="1"/>
        <pt x="582" y="305" on="1"/>
        <pt x="582" y="241" on="1"/>
      </contour>
    </TTGlyph>
    <TTGlyph name="equal" xMin="69" yMin="241" xMax="528" yMax="473">
      <contour>
        <pt x="69" y="241" on="1"/>
        <pt x="69" y="308" on="1"/>
        <pt x="528" y="308" on="1"/>
        <pt x="528" y="241" on="1"/>
      </contour>
      <contour>
        <pt x="69" y="406" on="1"/>
        <pt x="69" y="473" on="1"/>
        <pt x="528" y="473" on="1"/>
        <pt x="528" y="406" on="1"/>
      </contour>
    </TTGlyph>
    <TTGlyph name="eth" xMin="45" yMin="-16" xMax="548" yMax="766">
      <contour>
        <pt x="45" y="240" on="1"/>
        <pt x="45" y="342" on="0"/>
        <pt x="165" y="478" on="0"/>
        <pt x="266" y="478" on="1"/>
        <pt x="352" y="478" on="0"/>
        <pt x="412" y="426" on="1"/>
        <pt x="397" y="537" on="0"/>
        <pt x="319" y="610" on="1"/>
        <pt x="177" y="523" on="1"/>
        <pt x="177" y="591" on="1"/>
        <pt x="269" y="647" on="1"/>
        <pt x="215" y="681" on="0"/>
        <pt x="147" y="692" on="1"/>
        <pt x="147" y="757" on="1"/>
        <pt x="257" y="746" on="0"/>
        <pt x="344" y="693" on="1"/>
        <pt x="462" y="766" on="1"/>
        <pt x="462" y="697" on="1"/>
        <pt x="396" y="657" on="1"/>
        <pt x="548" y="533" on="0"/>
        <pt x="548" y="310" on="1"/>
        <pt x="548" y="241" on="0"/>
        <pt x="522" y="128" on="0"/>
        <pt x="464" y="35" on="0"/>
        <pt x="360" y="-16" on="0"/>
        <pt x="288" y="-16" on="1"/>
        <pt x="164" y="-16" on="0"/>
        <pt x="45" y="123" on="0"/>
      </contour>
      <contour>
        <pt x="171" y="236" on="1"/>
        <pt x="171" y="183" on="0"/>
        <pt x="194" y="97" on="0"/>
        <pt x="250" y="39" on="0"/>
        <pt x="292" y="39" on="1"/>
        <pt x="420" y="39" on="0"/>
        <pt x="420" y="274" on="1"/>
        <pt x="420" y="294" on="0"/>
        <pt x="415" y="372" on="1"/>
        <pt x="366" y="408" on="0"/>
        <pt x="312" y="408" on="1"/>
        <pt x="249" y="408" on="0"/>
        <pt x="171" y="324" on="0"/>
      </contour>
    </TTGlyph>
    <TTGlyph name="exclam" xMin="74" yMin="-14" xMax="209" yMax="700">
      <contour>
        <pt x="79" y="700" on="1"/>
        <pt x="205" y="700" on="1"/>
        <pt x="185" y="208" on="1"/>
        <pt x="99" y="208" on="1"/>
      </contour>
      <contour>
        <pt x="74" y="54" on="1"/>
        <pt x="74" y="82" on="0"/>
        <pt x="114" y="122" on="0"/>
        <pt x="142" y="122" on="1"/>
        <pt x="170" y="122" on="0"/>
        <pt x="209" y="82" on="0"/>
        <pt x="209" y="54" on="1"/>
        <pt x="209" y="27" on="0"/>
        <pt x="169" y="-14" on="0"/>
        <pt x="142" y="-14" on="1"/>
        <pt x="114" y="-14" on="0"/>
        <pt x="74" y="27" on="0"/>
      </contour>
    </TTGlyph>
    <TTGlyph name="exclamdown" xMin="67" yMin="-199" xMax="202" yMax="514">
      <component glyphName="exclam" x="-7" y="501" scalex="1.0" scaley="-0.999938964844" flags="0x4"/>
    </TTGlyph>
    <TTGlyph name="f" xMin="32" yMin="0" xMax="488" yMax="815">
      <contour>
        <pt x="32" y="0" on="1"/>
        <pt x="32" y="43" on="1"/>
        <pt x="117" y="63" on="1"/>
        <pt x="117" y="446" on="1"/>
        <pt x="33" y="446" on="1"/>
        <pt x="33" y="493" on="1"/>
        <pt x="117" y="499" on="1"/>
        <pt x="117" y="574" on="1"/>
        <pt x="117" y="815" on="0"/>
        <pt x="311" y="815" on="1"/>
        <pt x="353" y="815" on="0"/>
        <pt x="442" y="798" on="0"/>
        <pt x="465" y="790" on="1"/>
        <pt x="488" y="782" on="1"/>
        <pt x="487" y="748" on="0"/>
        <pt x="452" y="696" on="0"/>
        <pt x="427" y="683" on="1"/>
        <pt x="329" y="760" on="1"/>
        <pt x="287" y="760" on="0"/>
        <pt x="236" y="681" on="0"/>
        <pt x="236" y="574" on="1"/>
        <pt x="236" y="507" on="1"/>
        <pt x="388" y="518" on="1"/>
        <pt x="388" y="446" on="1"/>
        <pt x="236" y="446" on="1"/>
        <pt x="236" y="63" on="1"/>
        <pt x="369" y="43" on="1"/>
        <pt x="369" y="0" on="1"/>
      </contour>
    </TTGlyph>
    <TTGlyph name="five" xMin="22" yMin="-15" xMax="484" yMax="740">
      <contour>
        <pt x="22" y="27" on="1"/>
        <pt x="44" y="74" on="1"/>
        <pt x="107" y="46" on="0"/>
        <pt x="173" y="46" on="1"/>
        <pt x="253" y="46" on="0"/>
        <pt x="356" y="138" on="0"/>
        <pt x="356" y="224" on="1"/>
        <pt x="356" y="292" on="0"/>
        <pt x="274" y="381" on="0"/>
        <pt x="193" y="381" on="1"/>
        <pt x="158" y="381" on="0"/>
        <pt x="98" y="368" on="1"/>
        <pt x="76" y="381" on="1"/>
        <pt x="105" y="700" on="1"/>
        <pt x="402" y="700" on="1"/>
        <pt x="444" y="740" on="1"/>
        <pt x="484" y="722" on="1"/>
        <pt x="438" y="604" on="1"/>
        <pt x="162" y="604" on="1"/>
        <pt x="147" y="433" on="1"/>
        <pt x="198" y="446" on="0"/>
        <pt x="250" y="446" on="1"/>
        <pt x="307" y="446" on="0"/>
        <pt x="398" y="407" on="0"/>
        <pt x="453" y="344" on="0"/>
        <pt x="481" y="270" on="0"/>
        <pt x="481" y="232" on="1"/>
        <pt x="481" y="119" on="0"/>
        <pt x="316" y="-15" on="0"/>
        <pt x="205" y="-15" on="1"/>
        <pt x="93" y="-15" on="0"/>
        <pt x="24" y="26" on="1"/>
      </contour>
    </TTGlyph>
    <TTGlyph name="foundryicon" xMin="51" yMin="138" xMax="1007" yMax="316">
      <contour>
        <pt x="1007" y="251" on="1"/>
        <pt x="991" y="251" on="1"/>
        <pt x="992" y="249" on="0"/>
        <pt x="992" y="246" on="1"/>
        <pt x="992" y="232" on="0"/>
        <pt x="970" y="211" on="0"/>
        <pt x="947" y="211" on="1"/>
        <pt x="938" y="211" on="0"/>
        <pt x="935" y="212" on="1"/>
        <pt x="935" y="197" on="1"/>
        <pt x="953" y="197" on="1"/>
        <pt x="992" y="197" on="0"/>
        <pt x="992" y="161" on="1"/>
        <pt x="992" y="153" on="0"/>
        <pt x="988" y="142" on="0"/>
        <pt x="986" y="138" on="1"/>
        <pt x="959" y="138" on="1"/>
        <pt x="959" y="167" on="1"/>
        <pt x="913" y="167" on="1"/>
        <pt x="908" y="171" on="0"/>
        <pt x="903" y="183" on="0"/>
        <pt x="903" y="189" on="1"/>
        <pt x="903" y="207" on="0"/>
        <pt x="917" y="219" on="1"/>
        <pt x="903" y="227" on="0"/>
        <pt x="903" y="247" on="1"/>
        <pt x="903" y="263" on="0"/>
        <pt x="926" y="284" on="0"/>
        <pt x="946" y="284" on="1"/>
        <pt x="964" y="284" on="0"/>
        <pt x="977" y="274" on="1"/>
        <pt x="985" y="284" on="0"/>
        <pt x="996" y="284" on="1"/>
        <pt x="1000" y="284" on="0"/>
        <pt x="1004" y="283" on="0"/>
        <pt x="1007" y="282" on="1"/>
      </contour>
      <contour>
        <pt x="245" y="175" on="1"/>
        <pt x="239" y="153" on="0"/>
        <pt x="216" y="138" on="0"/>
        <pt x="202" y="138" on="1"/>
        <pt x="183" y="138" on="0"/>
        <pt x="176" y="145" on="1"/>
        <pt x="176" y="171" on="1"/>
        <pt x="193" y="171" on="1"/>
        <pt x="209" y="171" on="0"/>
        <pt x="214" y="182" on="1"/>
        <pt x="200" y="182" on="1"/>
        <pt x="176" y="251" on="1"/>
        <pt x="166" y="251" on="1"/>
        <pt x="166" y="282" on="1"/>
        <pt x="204" y="282" on="1"/>
        <pt x="218" y="233" on="1"/>
        <pt x="223" y="209" on="1"/>
        <pt x="234" y="251" on="1"/>
        <pt x="225" y="251" on="1"/>
        <pt x="225" y="282" on="1"/>
        <pt x="268" y="282" on="1"/>
        <pt x="268" y="251" on="1"/>
      </contour>
      <contour>
        <pt x="158" y="187" on="1"/>
        <pt x="140" y="179" on="0"/>
        <pt x="117" y="179" on="1"/>
        <pt x="86" y="179" on="0"/>
        <pt x="51" y="214" on="0"/>
        <pt x="51" y="245" on="1"/>
        <pt x="51" y="277" on="0"/>
        <pt x="85" y="316" on="0"/>
        <pt x="119" y="316" on="1"/>
        <pt x="128" y="316" on="0"/>
        <pt x="148" y="312" on="0"/>
        <pt x="158" y="309" on="1"/>
        <pt x="158" y="269" on="1"/>
        <pt x="127" y="269" on="1"/>
        <pt x="127" y="284" on="1"/>
        <pt x="124" y="285" on="0"/>
        <pt x="118" y="285" on="1"/>
        <pt x="104" y="285" on="0"/>
        <pt x="89" y="265" on="0"/>
        <pt x="89" y="249" on="1"/>
        <pt x="89" y="212" on="0"/>
        <pt x="126" y="212" on="1"/>
        <pt x="158" y="212" on="1"/>
      </contour>
      <contour>
        <pt x="748" y="179" on="1"/>
        <pt x="699" y="179" on="0"/>
        <pt x="699" y="231" on="1"/>
        <pt x="699" y="256" on="0"/>
        <pt x="726" y="284" on="0"/>
        <pt x="749" y="284" on="1"/>
        <pt x="772" y="284" on="0"/>
        <pt x="799" y="257" on="0"/>
        <pt x="799" y="232" on="1"/>
        <pt x="799" y="207" on="0"/>
        <pt x="772" y="179" on="0"/>
      </contour>
      <contour>
        <pt x="484" y="277" on="1"/>
        <pt x="493" y="280" on="0"/>
        <pt x="510" y="284" on="0"/>
        <pt x="520" y="284" on="1"/>
        <pt x="566" y="284" on="0"/>
        <pt x="566" y="246" on="1"/>
        <pt x="566" y="212" on="1"/>
        <pt x="577" y="212" on="1"/>
        <pt x="577" y="185" on="1"/>
        <pt x="569" y="180" on="0"/>
        <pt x="557" y="180" on="1"/>
        <pt x="541" y="180" on="0"/>
        <pt x="535" y="187" on="1"/>
        <pt x="526" y="179" on="0"/>
        <pt x="510" y="179" on="1"/>
        <pt x="496" y="179" on="0"/>
        <pt x="476" y="195" on="0"/>
        <pt x="476" y="210" on="1"/>
        <pt x="476" y="224" on="0"/>
        <pt x="494" y="240" on="0"/>
        <pt x="515" y="240" on="1"/>
        <pt x="531" y="240" on="1"/>
        <pt x="531" y="241" on="1"/>
        <pt x="531" y="245" on="0"/>
        <pt x="522" y="251" on="0"/>
        <pt x="509" y="251" on="1"/>
        <pt x="484" y="251" on="1"/>
      </contour>
      <contour>
        <pt x="461" y="212" on="1"/>
        <pt x="461" y="186" on="1"/>
        <pt x="453" y="182" on="0"/>
        <pt x="433" y="179" on="0"/>
        <pt x="424" y="179" on="1"/>
        <pt x="398" y="179" on="0"/>
        <pt x="371" y="206" on="0"/>
        <pt x="371" y="230" on="1"/>
        <pt x="371" y="254" on="0"/>
        <pt x="395" y="284" on="0"/>
        <pt x="420" y="284" on="1"/>
        <pt x="440" y="284" on="0"/>
        <pt x="464" y="260" on="0"/>
        <pt x="464" y="242" on="1"/>
        <pt x="464" y="238" on="0"/>
        <pt x="463" y="229" on="0"/>
        <pt x="462" y="224" on="1"/>
        <pt x="407" y="224" on="1"/>
        <pt x="411" y="212" on="0"/>
        <pt x="432" y="212" on="1"/>
      </contour>
      <contour>
        <pt x="811" y="251" on="1"/>
        <pt x="811" y="282" on="1"/>
        <pt x="845" y="282" on="1"/>
        <pt x="855" y="266" on="1"/>
        <pt x="857" y="271" on="0"/>
        <pt x="862" y="276" on="0"/>
        <pt x="865" y="279" on="1"/>
        <pt x="872" y="284" on="0"/>
        <pt x="880" y="284" on="1"/>
        <pt x="886" y="284" on="0"/>
        <pt x="892" y="282" on="1"/>
        <pt x="892" y="251" on="1"/>
        <pt x="858" y="251" on="1"/>
        <pt x="858" y="212" on="1"/>
        <pt x="875" y="212" on="1"/>
        <pt x="875" y="182" on="1"/>
        <pt x="813" y="182" on="1"/>
        <pt x="813" y="212" on="1"/>
        <pt x="822" y="212" on="1"/>
        <pt x="822" y="251" on="1"/>
      </contour>
      <contour>
        <pt x="282" y="251" on="1"/>
        <pt x="282" y="282" on="1"/>
        <pt x="316" y="282" on="1"/>
        <pt x="326" y="266" on="1"/>
        <pt x="328" y="271" on="0"/>
        <pt x="333" y="276" on="0"/>
        <pt x="336" y="279" on="1"/>
        <pt x="343" y="284" on="0"/>
        <pt x="351" y="284" on="1"/>
        <pt x="357" y="284" on="0"/>
        <pt x="363" y="282" on="1"/>
        <pt x="363" y="251" on="1"/>
        <pt x="329" y="251" on="1"/>
        <pt x="329" y="212" on="1"/>
        <pt x="346" y="212" on="1"/>
        <pt x="346" y="182" on="1"/>
        <pt x="284" y="182" on="1"/>
        <pt x="284" y="212" on="1"/>
        <pt x="294" y="212" on="1"/>
        <pt x="294" y="251" on="1"/>
      </contour>
      <contour>
        <pt x="589" y="285" on="1"/>
        <pt x="577" y="285" on="1"/>
        <pt x="577" y="316" on="1"/>
        <pt x="624" y="316" on="1"/>
        <pt x="624" y="212" on="1"/>
        <pt x="638" y="212" on="1"/>
        <pt x="638" y="184" on="1"/>
        <pt x="629" y="180" on="0"/>
        <pt x="616" y="180" on="1"/>
        <pt x="589" y="180" on="0"/>
        <pt x="589" y="208" on="1"/>
      </contour>
      <contour>
        <pt x="651" y="199" on="1"/>
        <pt x="651" y="207" on="0"/>
        <pt x="661" y="219" on="0"/>
        <pt x="671" y="219" on="1"/>
        <pt x="682" y="219" on="0"/>
        <pt x="693" y="207" on="0"/>
        <pt x="693" y="199" on="1"/>
        <pt x="693" y="191" on="0"/>
        <pt x="682" y="180" on="0"/>
        <pt x="671" y="180" on="1"/>
        <pt x="661" y="180" on="0"/>
        <pt x="651" y="191" on="0"/>
      </contour>
      <contour>
        <pt x="749" y="206" on="1"/>
        <pt x="763" y="206" on="0"/>
        <pt x="763" y="232" on="1"/>
        <pt x="763" y="256" on="0"/>
        <pt x="749" y="256" on="1"/>
        <pt x="735" y="256" on="0"/>
        <pt x="735" y="232" on="1"/>
        <pt x="735" y="206" on="0"/>
      </contour>
      <contour>
        <pt x="936" y="247" on="1"/>
        <pt x="936" y="232" on="0"/>
        <pt x="948" y="232" on="1"/>
        <pt x="958" y="232" on="0"/>
        <pt x="958" y="247" on="1"/>
        <pt x="958" y="262" on="0"/>
        <pt x="948" y="262" on="1"/>
        <pt x="936" y="262" on="0"/>
      </contour>
      <contour>
        <pt x="520" y="204" on="1"/>
        <pt x="527" y="204" on="0"/>
        <pt x="531" y="207" on="1"/>
        <pt x="531" y="222" on="1"/>
        <pt x="523" y="222" on="1"/>
        <pt x="510" y="222" on="0"/>
        <pt x="510" y="213" on="1"/>
        <pt x="510" y="204" on="0"/>
      </contour>
      <contour>
        <pt x="419" y="258" on="1"/>
        <pt x="409" y="258" on="0"/>
        <pt x="406" y="242" on="1"/>
        <pt x="431" y="242" on="1"/>
        <pt x="431" y="258" on="0"/>
      </contour>
    </TTGlyph>
    <TTGlyph name="four" xMin="8" yMin="-15" xMax="521" yMax="700">
      <contour>
        <pt x="8" y="138" on="1"/>
        <pt x="8" y="181" on="1"/>
        <pt x="393" y="700" on="1"/>
        <pt x="442" y="700" on="1"/>
        <pt x="442" y="208" on="1"/>
        <pt x="521" y="208" on="1"/>
        <pt x="521" y="138" on="1"/>
        <pt x="442" y="138" on="1"/>
        <pt x="442" y="-15" on="1"/>
        <pt x="335" y="-15" on="1"/>
        <pt x="335" y="138" on="1"/>
      </contour>
      <contour>
        <pt x="116" y="208" on="1"/>
        <pt x="335" y="208" on="1"/>
        <pt x="335" y="500" on="1"/>
      </contour>
    </TTGlyph>
    <TTGlyph name="foursuperior" xMin="20" yMin="286" xMax="354" yMax="710">
      <contour>
        <pt x="20" y="371" on="1"/>
        <pt x="20" y="405" on="1"/>
        <pt x="257" y="710" on="1"/>
        <pt x="305" y="710" on="1"/>
        <pt x="305" y="418" on="1"/>
        <pt x="354" y="418" on="1"/>
        <pt x="354" y="371" on="1"/>
        <pt x="305" y="371" on="1"/>
        <pt x="305" y="286" on="1"/>
        <pt x="225" y="286" on="1"/>
        <pt x="225" y="371" on="1"/>
      </contour>
      <contour>
        <pt x="91" y="418" on="1"/>
        <pt x="224" y="418" on="1"/>
        <pt x="224" y="588" on="1"/>
      </contour>
    </TTGlyph>
    <TTGlyph name="fraction" xMin="-14" yMin="0" xMax="413" yMax="715">
      <contour>
        <pt x="-14" y="0" on="1"/>
        <pt x="343" y="715" on="1"/>
        <pt x="413" y="715" on="1"/>
        <pt x="57" y="0" on="1"/>
      </contour>
    </TTGlyph>
    <TTGlyph name="g" xMin="18" yMin="-287" xMax="607" yMax="525">
      <contour>
        <pt x="18" y="-152" on="1"/>
        <pt x="18" y="-66" on="0"/>
        <pt x="121" y="-16" on="1"/>
        <pt x="91" y="0" on="0"/>
        <pt x="47" y="53" on="0"/>
        <pt x="43" y="85" on="1"/>
        <pt x="159" y="186" on="1"/>
        <pt x="111" y="208" on="0"/>
        <pt x="58" y="286" on="0"/>
        <pt x="58" y="334" on="1"/>
        <pt x="58" y="406" on="0"/>
        <pt x="188" y="507" on="0"/>
        <pt x="288" y="507" on="1"/>
        <pt x="377" y="507" on="0"/>
        <pt x="440" y="466" on="1"/>
        <pt x="595" y="525" on="1"/>
        <pt x="607" y="501" on="0"/>
        <pt x="607" y="472" on="1"/>
        <pt x="607" y="448" on="0"/>
        <pt x="603" y="431" on="1"/>
        <pt x="482" y="431" on="1"/>
        <pt x="520" y="387" on="0"/>
        <pt x="520" y="334" on="1"/>
        <pt x="520" y="260" on="0"/>
        <pt x="395" y="161" on="0"/>
        <pt x="288" y="161" on="1"/>
        <pt x="251" y="161" on="0"/>
        <pt x="218" y="167" on="1"/>
        <pt x="160" y="99" on="1"/>
        <pt x="175" y="76" on="0"/>
        <pt x="234" y="57" on="0"/>
        <pt x="303" y="57" on="1"/>
        <pt x="368" y="57" on="1"/>
        <pt x="459" y="57" on="0"/>
        <pt x="564" y="-19" on="0"/>
        <pt x="564" y="-171" on="0"/>
        <pt x="403" y="-287" on="0"/>
        <pt x="268" y="-287" on="1"/>
        <pt x="18" y="-287" on="0"/>
      </contour>
      <contour>
        <pt x="140" y="-135" on="1"/>
        <pt x="140" y="-184" on="0"/>
        <pt x="216" y="-232" on="0"/>
        <pt x="278" y="-232" on="1"/>
        <pt x="366" y="-232" on="0"/>
        <pt x="472" y="-168" on="0"/>
        <pt x="472" y="-122" on="1"/>
        <pt x="472" y="-82" on="0"/>
        <pt x="412" y="-45" on="0"/>
        <pt x="341" y="-45" on="1"/>
        <pt x="178" y="-45" on="1"/>
        <pt x="140" y="-90" on="0"/>
      </contour>
      <contour>
        <pt x="405" y="334" on="1"/>
        <pt x="405" y="388" on="0"/>
        <pt x="345" y="455" on="0"/>
        <pt x="288" y="455" on="1"/>
        <pt x="233" y="455" on="0"/>
        <pt x="173" y="388" on="0"/>
        <pt x="173" y="334" on="1"/>
        <pt x="173" y="280" on="0"/>
        <pt x="231" y="215" on="0"/>
        <pt x="288" y="215" on="1"/>
        <pt x="343" y="215" on="0"/>
        <pt x="405" y="280" on="0"/>
      </contour>
    </TTGlyph>
    <TTGlyph name="germandbls" xMin="21" yMin="-15" xMax="638" yMax="760">
      <contour>
        <pt x="21" y="0" on="1"/>
        <pt x="21" y="43" on="1"/>
        <pt x="106" y="63" on="1"/>
        <pt x="106" y="538" on="1"/>
        <pt x="106" y="639" on="0"/>
        <pt x="220" y="760" on="0"/>
        <pt x="331" y="760" on="1"/>
        <pt x="446" y="760" on="0"/>
        <pt x="565" y="639" on="0"/>
        <pt x="565" y="538" on="1"/>
        <pt x="565" y="466" on="1"/>
        <pt x="469" y="466" on="1"/>
        <pt x="376" y="466" on="0"/>
        <pt x="376" y="397" on="1"/>
        <pt x="376" y="367" on="0"/>
        <pt x="427" y="324" on="0"/>
        <pt x="481" y="302" on="1"/>
        <pt x="556" y="272" on="0"/>
        <pt x="638" y="193" on="0"/>
        <pt x="638" y="129" on="1"/>
        <pt x="638" y="61" on="0"/>
        <pt x="527" y="-15" on="0"/>
        <pt x="438" y="-15" on="1"/>
        <pt x="363" y="-15" on="0"/>
        <pt x="288" y="8" on="1"/>
        <pt x="288" y="151" on="1"/>
        <pt x="334" y="151" on="1"/>
        <pt x="376" y="42" on="1"/>
        <pt x="396" y="40" on="0"/>
        <pt x="403" y="40" on="1"/>
        <pt x="524" y="40" on="0"/>
        <pt x="524" y="118" on="1"/>
        <pt x="524" y="136" on="0"/>
        <pt x="510" y="164" on="0"/>
        <pt x="469" y="189" on="0"/>
        <pt x="441" y="203" on="0"/>
        <pt x="405" y="218" on="1"/>
        <pt x="278" y="270" on="0"/>
        <pt x="278" y="377" on="1"/>
        <pt x="278" y="442" on="0"/>
        <pt x="370" y="519" on="0"/>
        <pt x="446" y="519" on="1"/>
        <pt x="446" y="543" on="1"/>
        <pt x="446" y="705" on="0"/>
        <pt x="339" y="705" on="1"/>
        <pt x="288" y="705" on="0"/>
        <pt x="225" y="624" on="0"/>
        <pt x="225" y="538" on="1"/>
        <pt x="225" y="0" on="1"/>
      </contour>
    </TTGlyph>
    <TTGlyph name="grave" xMin="-44" yMin="562" xMax="151" yMax="769">
      <contour>
        <pt x="-44" y="716" on="1"/>
        <pt x="-9" y="759" on="0"/>
        <pt x="50" y="769" on="1"/>
        <pt x="151" y="591" on="1"/>
        <pt x="109" y="562" on="1"/>
      </contour>
    </TTGlyph>
    <TTGlyph name="grave.case" xMin="-32" yMin="735" xMax="209" yMax="904">
      <contour>
        <pt x="-32" y="826" on="1"/>
        <pt x="-19" y="852" on="0"/>
        <pt x="26" y="896" on="0"/>
        <pt x="51" y="904" on="1"/>
        <pt x="209" y="767" on="1"/>
        <pt x="182" y="735" on="1"/>
      </contour>
    </TTGlyph>
    <TTGlyph name="greater" xMin="73" yMin="99" xMax="502" yMax="615">
      <component glyphName="less" x="540" y="715" scale="-0.999938964844" flags="0x4"/>
    </TTGlyph>
    <TTGlyph name="guillemotleft" xMin="48" yMin="80" xMax="411" yMax="460">
      <contour>
        <pt x="362" y="99" on="1"/>
        <pt x="244" y="256" on="1"/>
        <pt x="244" y="284" on="1"/>
        <pt x="362" y="441" on="1"/>
        <pt x="411" y="441" on="1"/>
        <pt x="350" y="270" on="1"/>
        <pt x="411" y="99" on="1"/>
      </contour>
      <contour>
        <pt x="201" y="80" on="1"/>
        <pt x="48" y="254" on="1"/>
        <pt x="48" y="286" on="1"/>
        <pt x="201" y="460" on="1"/>
        <pt x="256" y="460" on="1"/>
        <pt x="165" y="270" on="1"/>
        <pt x="256" y="80" on="1"/>
      </contour>
    </TTGlyph>
    <TTGlyph name="guillemotright" xMin="66" yMin="80" xMax="429" yMax="460">
      <contour>
        <pt x="66" y="99" on="1"/>
        <pt x="127" y="270" on="1"/>
        <pt x="66" y="441" on="1"/>
        <pt x="115" y="441" on="1"/>
        <pt x="233" y="284" on="1"/>
        <pt x="233" y="256" on="1"/>
        <pt x="115" y="99" on="1"/>
      </contour>
      <contour>
        <pt x="221" y="80" on="1"/>
        <pt x="312" y="270" on="1"/>
        <pt x="221" y="460" on="1"/>
        <pt x="276" y="460" on="1"/>
        <pt x="429" y="286" on="1"/>
        <pt x="429" y="254" on="1"/>
        <pt x="276" y="80" on="1"/>
      </contour>
    </TTGlyph>
    <TTGlyph name="guilsinglleft" xMin="46" yMin="70" xMax="254" yMax="470">
      <contour>
        <pt x="209" y="70" on="1"/>
        <pt x="46" y="254" on="1"/>
        <pt x="46" y="286" on="1"/>
        <pt x="209" y="470" on="1"/>
        <pt x="254" y="450" on="1"/>
        <pt x="163" y="270" on="1"/>
        <pt x="254" y="90" on="1"/>
      </contour>
    </TTGlyph>
    <TTGlyph name="guilsinglright" xMin="50" yMin="70" xMax="258" yMax="470">
      <contour>
        <pt x="50" y="90" on="1"/>
        <pt x="141" y="270" on="1"/>
        <pt x="50" y="450" on="1"/>
        <pt x="95" y="470" on="1"/>
        <pt x="258" y="286" on="1"/>
        <pt x="258" y="254" on="1"/>
        <pt x="95" y="70" on="1"/>
      </contour>
    </TTGlyph>
    <TTGlyph name="h" xMin="21" yMin="0" xMax="640" yMax="800">
      <contour>
        <pt x="21" y="0" on="1"/>
        <pt x="21" y="43" on="1"/>
        <pt x="106" y="63" on="1"/>
        <pt x="106" y="719" on="1"/>
        <pt x="21" y="719" on="1"/>
        <pt x="21" y="762" on="1"/>
        <pt x="181" y="800" on="1"/>
        <pt x="226" y="800" on="1"/>
        <pt x="226" y="452" on="1"/>
        <pt x="302" y="515" on="0"/>
        <pt x="387" y="515" on="1"/>
        <pt x="465" y="515" on="0"/>
        <pt x="555" y="427" on="0"/>
        <pt x="555" y="358" on="1"/>
        <pt x="555" y="63" on="1"/>
        <pt x="640" y="43" on="1"/>
        <pt x="640" y="0" on="1"/>
        <pt x="371" y="0" on="1"/>
        <pt x="371" y="43" on="1"/>
        <pt x="436" y="63" on="1"/>
        <pt x="436" y="340" on="1"/>
        <pt x="436" y="442" on="0"/>
        <pt x="349" y="442" on="1"/>
        <pt x="290" y="442" on="0"/>
        <pt x="226" y="396" on="1"/>
        <pt x="226" y="63" on="1"/>
        <pt x="291" y="43" on="1"/>
        <pt x="291" y="0" on="1"/>
      </contour>
    </TTGlyph>
    <TTGlyph name="hyphen" xMin="62" yMin="235" xMax="281" yMax="312">
      <contour>
        <pt x="62" y="312" on="1"/>
        <pt x="281" y="312" on="1"/>
        <pt x="281" y="235" on="1"/>
        <pt x="62" y="235" on="1"/>
      </contour>
    </TTGlyph>
    <TTGlyph name="i" xMin="36" yMin="0" xMax="325" yMax="726">
      <contour>
        <pt x="257" y="652" on="1"/>
        <pt x="257" y="621" on="0"/>
        <pt x="214" y="578" on="0"/>
        <pt x="183" y="578" on="1"/>
        <pt x="152" y="578" on="0"/>
        <pt x="109" y="621" on="0"/>
        <pt x="109" y="652" on="1"/>
        <pt x="109" y="683" on="0"/>
        <pt x="152" y="726" on="0"/>
        <pt x="183" y="726" on="1"/>
        <pt x="214" y="726" on="0"/>
        <pt x="257" y="684" on="0"/>
      </contour>
      <contour>
        <pt x="36" y="0" on="1"/>
        <pt x="36" y="43" on="1"/>
        <pt x="121" y="63" on="1"/>
        <pt x="121" y="419" on="1"/>
        <pt x="36" y="419" on="1"/>
        <pt x="36" y="462" on="1"/>
        <pt x="196" y="500" on="1"/>
        <pt x="240" y="500" on="1"/>
        <pt x="240" y="63" on="1"/>
        <pt x="325" y="43" on="1"/>
        <pt x="325" y="0" on="1"/>
      </contour>
    </TTGlyph>
    <TTGlyph name="iacute" xMin="36" yMin="0" xMax="327" yMax="770">
      <component glyphName="dotlessi" x="0" y="0" flags="0x204"/>
      <component glyphName="acute" x="112" y="0" flags="0x4"/>
    </TTGlyph>
    <TTGlyph name="icircumflex" xMin="10" yMin="0" xMax="326" yMax="766">
      <component glyphName="dotlessi" x="0" y="0" flags="0x204"/>
      <component glyphName="circumflex" x="-8" y="0" flags="0x4"/>
    </TTGlyph>
    <TTGlyph name="idieresis" xMin="17" yMin="0" xMax="348" yMax="732">
      <component glyphName="dotlessi" x="0" y="0" flags="0x204"/>
      <component glyphName="dieresis" x="-15" y="0" flags="0x4"/>
    </TTGlyph>
    <TTGlyph name="igrave" xMin="10" yMin="0" xMax="326" yMax="769">
      <component glyphName="dotlessi" x="0" y="0" flags="0x204"/>
      <component glyphName="grave" x="54" y="0" flags="0x4"/>
    </TTGlyph>
    <TTGlyph name="j" xMin="-15" yMin="-306" xMax="242" yMax="726">
      <contour>
        <pt x="-15" y="-260" on="1"/>
        <pt x="106" y="-175" on="0"/>
        <pt x="106" y="0" on="1"/>
        <pt x="106" y="419" on="1"/>
        <pt x="21" y="419" on="1"/>
        <pt x="21" y="462" on="1"/>
        <pt x="181" y="500" on="1"/>
        <pt x="225" y="500" on="1"/>
        <pt x="225" y="0" on="1"/>
        <pt x="225" y="-53" on="0"/>
        <pt x="190" y="-149" on="0"/>
        <pt x="131" y="-229" on="0"/>
        <pt x="56" y="-289" on="0"/>
        <pt x="17" y="-306" on="1"/>
      </contour>
      <contour>
        <pt x="242" y="652" on="1"/>
        <pt x="242" y="621" on="0"/>
        <pt x="199" y="578" on="0"/>
        <pt x="168" y="578" on="1"/>
        <pt x="137" y="578" on="0"/>
        <pt x="94" y="621" on="0"/>
        <pt x="94" y="652" on="1"/>
        <pt x="94" y="683" on="0"/>
        <pt x="137" y="726" on="0"/>
        <pt x="168" y="726" on="1"/>
        <pt x="199" y="726" on="0"/>
        <pt x="242" y="684" on="0"/>
      </contour>
    </TTGlyph>
    <TTGlyph name="k" xMin="21" yMin="0" xMax="605" yMax="800">
      <contour>
        <pt x="21" y="0" on="1"/>
        <pt x="21" y="43" on="1"/>
        <pt x="106" y="63" on="1"/>
        <pt x="106" y="719" on="1"/>
        <pt x="21" y="719" on="1"/>
        <pt x="21" y="762" on="1"/>
        <pt x="181" y="800" on="1"/>
        <pt x="226" y="800" on="1"/>
        <pt x="226" y="63" on="1"/>
        <pt x="291" y="43" on="1"/>
        <pt x="291" y="0" on="1"/>
      </contour>
      <contour>
        <pt x="243" y="241" on="1"/>
        <pt x="426" y="440" on="1"/>
        <pt x="359" y="457" on="1"/>
        <pt x="359" y="500" on="1"/>
        <pt x="585" y="500" on="1"/>
        <pt x="585" y="457" on="1"/>
        <pt x="497" y="437" on="1"/>
        <pt x="358" y="285" on="1"/>
        <pt x="523" y="62" on="1"/>
        <pt x="605" y="43" on="1"/>
        <pt x="605" y="0" on="1"/>
        <pt x="419" y="0" on="1"/>
      </contour>
    </TTGlyph>
    <TTGlyph name="l" xMin="21" yMin="0" xMax="311" yMax="800">
      <contour>
        <pt x="21" y="0" on="1"/>
        <pt x="21" y="43" on="1"/>
        <pt x="106" y="63" on="1"/>
        <pt x="106" y="719" on="1"/>
        <pt x="21" y="719" on="1"/>
        <pt x="21" y="762" on="1"/>
        <pt x="181" y="800" on="1"/>
        <pt x="226" y="800" on="1"/>
        <pt x="226" y="63" on="1"/>
        <pt x="311" y="43" on="1"/>
        <pt x="311" y="0" on="1"/>
      </contour>
    </TTGlyph>
    <TTGlyph name="less" xMin="38" yMin="100" xMax="467" yMax="616">
      <contour>
        <pt x="38" y="330" on="1"/>
        <pt x="38" y="385" on="1"/>
        <pt x="467" y="616" on="1"/>
        <pt x="467" y="539" on="1"/>
        <pt x="132" y="357" on="1"/>
        <pt x="467" y="177" on="1"/>
        <pt x="467" y="100" on="1"/>
      </contour>
    </TTGlyph>
    <TTGlyph name="logicalnot" xMin="55" yMin="123" xMax="484" yMax="391">
      <contour>
        <pt x="55" y="326" on="1"/>
        <pt x="55" y="391" on="1"/>
        <pt x="484" y="391" on="1"/>
        <pt x="484" y="123" on="1"/>
        <pt x="419" y="123" on="1"/>
        <pt x="419" y="326" on="1"/>
      </contour>
    </TTGlyph>
    <TTGlyph name="m" xMin="36" yMin="0" xMax="974" yMax="515">
      <contour>
        <pt x="36" y="0" on="1"/>
        <pt x="36" y="43" on="1"/>
        <pt x="121" y="63" on="1"/>
        <pt x="121" y="419" on="1"/>
        <pt x="36" y="419" on="1"/>
        <pt x="36" y="462" on="1"/>
        <pt x="196" y="500" on="1"/>
        <pt x="240" y="500" on="1"/>
        <pt x="240" y="455" on="1"/>
        <pt x="317" y="515" on="0"/>
        <pt x="398" y="515" on="1"/>
        <pt x="501" y="515" on="0"/>
        <pt x="544" y="439" on="1"/>
        <pt x="632" y="515" on="0"/>
        <pt x="723" y="515" on="1"/>
        <pt x="800" y="515" on="0"/>
        <pt x="889" y="427" on="0"/>
        <pt x="889" y="358" on="1"/>
        <pt x="889" y="63" on="1"/>
        <pt x="974" y="43" on="1"/>
        <pt x="974" y="0" on="1"/>
        <pt x="705" y="0" on="1"/>
        <pt x="705" y="43" on="1"/>
        <pt x="770" y="63" on="1"/>
        <pt x="770" y="345" on="1"/>
        <pt x="770" y="392" on="0"/>
        <pt x="725" y="442" on="0"/>
        <pt x="684" y="442" on="1"/>
        <pt x="625" y="442" on="0"/>
        <pt x="561" y="396" on="1"/>
        <pt x="565" y="372" on="0"/>
        <pt x="565" y="358" on="1"/>
        <pt x="565" y="63" on="1"/>
        <pt x="630" y="43" on="1"/>
        <pt x="630" y="0" on="1"/>
        <pt x="380" y="0" on="1"/>
        <pt x="380" y="43" on="1"/>
        <pt x="445" y="63" on="1"/>
        <pt x="445" y="345" on="1"/>
        <pt x="445" y="392" on="0"/>
        <pt x="400" y="442" on="0"/>
        <pt x="359" y="442" on="1"/>
        <pt x="303" y="442" on="0"/>
        <pt x="240" y="400" on="1"/>
        <pt x="240" y="63" on="1"/>
        <pt x="305" y="43" on="1"/>
        <pt x="305" y="0" on="1"/>
      </contour>
    </TTGlyph>
    <TTGlyph name="macron" xMin="0" yMin="636" xMax="459" yMax="700">
      <contour>
        <pt x="459" y="636" on="1"/>
        <pt x="0" y="636" on="1"/>
        <pt x="0" y="700" on="1"/>
        <pt x="459" y="700" on="1"/>
      </contour>
    </TTGlyph>
    <TTGlyph name="minus" xMin="69" yMin="323" xMax="519" yMax="390">
      <contour>
        <pt x="69" y="323" on="1"/>
        <pt x="69" y="390" on="1"/>
        <pt x="519" y="390" on="1"/>
        <pt x="519" y="323" on="1"/>
      </contour>
    </TTGlyph>
    <TTGlyph name="mu" xMin="98" yMin="-250" xMax="625" yMax="500">
      <contour>
        <pt x="98" y="-204" on="1"/>
        <pt x="98" y="500" on="1"/>
        <pt x="217" y="500" on="1"/>
        <pt x="217" y="160" on="1"/>
        <pt x="217" y="55" on="0"/>
        <pt x="307" y="55" on="1"/>
        <pt x="369" y="55" on="0"/>
        <pt x="428" y="102" on="1"/>
        <pt x="428" y="500" on="1"/>
        <pt x="547" y="500" on="1"/>
        <pt x="547" y="143" on="1"/>
        <pt x="547" y="97" on="0"/>
        <pt x="589" y="64" on="0"/>
        <pt x="613" y="64" on="1"/>
        <pt x="625" y="64" on="1"/>
        <pt x="625" y="32" on="1"/>
        <pt x="620" y="27" on="0"/>
        <pt x="602" y="11" on="0"/>
        <pt x="545" y="-15" on="0"/>
        <pt x="516" y="-15" on="1"/>
        <pt x="452" y="-15" on="0"/>
        <pt x="429" y="47" on="1"/>
        <pt x="363" y="-15" on="0"/>
        <pt x="281" y="-15" on="1"/>
        <pt x="211" y="-15" on="0"/>
        <pt x="174" y="32" on="1"/>
        <pt x="174" y="-110" on="0"/>
        <pt x="238" y="-217" on="1"/>
        <pt x="198" y="-250" on="0"/>
        <pt x="151" y="-250" on="1"/>
        <pt x="128" y="-250" on="0"/>
        <pt x="98" y="-227" on="0"/>
      </contour>
    </TTGlyph>
    <TTGlyph name="multiply" xMin="59" yMin="142" xMax="490" yMax="573">
      <contour>
        <pt x="59" y="190" on="1"/>
        <pt x="227" y="357" on="1"/>
        <pt x="59" y="525" on="1"/>
        <pt x="107" y="572" on="1"/>
        <pt x="274" y="405" on="1"/>
        <pt x="443" y="573" on="1"/>
        <pt x="490" y="525" on="1"/>
        <pt x="322" y="357" on="1"/>
        <pt x="490" y="189" on="1"/>
        <pt x="443" y="142" on="1"/>
        <pt x="275" y="310" on="1"/>
        <pt x="107" y="143" on="1"/>
      </contour>
    </TTGlyph>
    <TTGlyph name="n" xMin="36" yMin="0" xMax="655" yMax="515">
      <contour>
        <pt x="36" y="0" on="1"/>
        <pt x="36" y="43" on="1"/>
        <pt x="121" y="63" on="1"/>
        <pt x="121" y="419" on="1"/>
        <pt x="36" y="419" on="1"/>
        <pt x="36" y="462" on="1"/>
        <pt x="196" y="500" on="1"/>
        <pt x="241" y="500" on="1"/>
        <pt x="241" y="452" on="1"/>
        <pt x="317" y="515" on="0"/>
        <pt x="402" y="515" on="1"/>
        <pt x="480" y="515" on="0"/>
        <pt x="570" y="427" on="0"/>
        <pt x="570" y="358" on="1"/>
        <pt x="570" y="63" on="1"/>
        <pt x="655" y="43" on="1"/>
        <pt x="655" y="0" on="1"/>
        <pt x="386" y="0" on="1"/>
        <pt x="386" y="43" on="1"/>
        <pt x="451" y="63" on="1"/>
        <pt x="451" y="340" on="1"/>
        <pt x="451" y="442" on="0"/>
        <pt x="364" y="442" on="1"/>
        <pt x="305" y="442" on="0"/>
        <pt x="241" y="396" on="1"/>
        <pt x="241" y="63" on="1"/>
        <pt x="306" y="43" on="1"/>
        <pt x="306" y="0" on="1"/>
      </contour>
    </TTGlyph>
    <TTGlyph name="nine" xMin="34" yMin="-15" xMax="517" yMax="715">
      <contour>
        <pt x="34" y="485" on="1"/>
        <pt x="34" y="583" on="0"/>
        <pt x="154" y="715" on="0"/>
        <pt x="264" y="715" on="1"/>
        <pt x="386" y="715" on="0"/>
        <pt x="517" y="542" on="0"/>
        <pt x="517" y="400" on="1"/>
        <pt x="517" y="223" on="0"/>
        <pt x="298" y="-15" on="0"/>
        <pt x="108" y="-15" on="1"/>
        <pt x="108" y="43" on="1"/>
        <pt x="228" y="44" on="0"/>
        <pt x="377" y="201" on="0"/>
        <pt x="397" y="325" on="1"/>
        <pt x="330" y="264" on="0"/>
        <pt x="242" y="264" on="1"/>
        <pt x="143" y="264" on="0"/>
        <pt x="34" y="389" on="0"/>
      </contour>
      <contour>
        <pt x="158" y="502" on="1"/>
        <pt x="158" y="433" on="0"/>
        <pt x="226" y="343" on="0"/>
        <pt x="287" y="343" on="1"/>
        <pt x="352" y="343" on="0"/>
        <pt x="404" y="381" on="1"/>
        <pt x="404" y="409" on="1"/>
        <pt x="404" y="517" on="0"/>
        <pt x="334" y="660" on="0"/>
        <pt x="270" y="660" on="1"/>
        <pt x="220" y="660" on="0"/>
        <pt x="158" y="565" on="0"/>
      </contour>
    </TTGlyph>
    <TTGlyph name="nonbreakingspace" xMin="0" yMin="0" xMax="0" yMax="0">
      <component glyphName="space" x="0" y="0" flags="0x204"/>
    </TTGlyph>
    <TTGlyph name="ntilde" xMin="36" yMin="0" xMax="655" yMax="733">
      <component glyphName="n" x="0" y="0" flags="0x204"/>
      <component glyphName="tilde" x="138" y="0" flags="0x4"/>
    </TTGlyph>
    <TTGlyph name="numbersign" xMin="46" yMin="0" xMax="545" yMax="715">
      <contour>
        <pt x="46" y="201" on="1"/>
        <pt x="46" y="265" on="1"/>
        <pt x="139" y="265" on="1"/>
        <pt x="175" y="456" on="1"/>
        <pt x="72" y="456" on="1"/>
        <pt x="72" y="520" on="1"/>
        <pt x="188" y="520" on="1"/>
        <pt x="224" y="715" on="1"/>
        <pt x="290" y="715" on="1"/>
        <pt x="253" y="520" on="1"/>
        <pt x="387" y="520" on="1"/>
        <pt x="424" y="715" on="1"/>
        <pt x="490" y="715" on="1"/>
        <pt x="452" y="520" on="1"/>
        <pt x="545" y="520" on="1"/>
        <pt x="545" y="456" on="1"/>
        <pt x="441" y="456" on="1"/>
        <pt x="404" y="265" on="1"/>
        <pt x="518" y="265" on="1"/>
        <pt x="518" y="201" on="1"/>
        <pt x="392" y="201" on="1"/>
        <pt x="355" y="0" on="1"/>
        <pt x="290" y="0" on="1"/>
        <pt x="327" y="201" on="1"/>
        <pt x="193" y="201" on="1"/>
        <pt x="155" y="0" on="1"/>
        <pt x="90" y="0" on="1"/>
        <pt x="128" y="201" on="1"/>
      </contour>
      <contour>
        <pt x="204" y="265" on="1"/>
        <pt x="339" y="265" on="1"/>
        <pt x="376" y="456" on="1"/>
        <pt x="240" y="456" on="1"/>
      </contour>
    </TTGlyph>
    <TTGlyph name="o" xMin="42" yMin="-15" xMax="551" yMax="515">
      <contour>
        <pt x="297" y="515" on="1"/>
        <pt x="407" y="515" on="0"/>
        <pt x="551" y="366" on="0"/>
        <pt x="551" y="251" on="1"/>
        <pt x="551" y="135" on="0"/>
        <pt x="407" y="-15" on="0"/>
        <pt x="297" y="-15" on="1"/>
        <pt x="187" y="-15" on="0"/>
        <pt x="42" y="135" on="0"/>
        <pt x="42" y="251" on="1"/>
        <pt x="42" y="366" on="0"/>
        <pt x="187" y="515" on="0"/>
      </contour>
      <contour>
        <pt x="297" y="460" on="1"/>
        <pt x="235" y="460" on="0"/>
        <pt x="168" y="346" on="0"/>
        <pt x="168" y="251" on="1"/>
        <pt x="168" y="156" on="0"/>
        <pt x="235" y="40" on="0"/>
        <pt x="297" y="40" on="1"/>
        <pt x="359" y="40" on="0"/>
        <pt x="426" y="157" on="0"/>
        <pt x="426" y="251" on="1"/>
        <pt x="426" y="346" on="0"/>
        <pt x="359" y="460" on="0"/>
      </contour>
    </TTGlyph>
    <TTGlyph name="oacute" xMin="42" yMin="-15" xMax="551" yMax="770">
      <component glyphName="o" x="0" y="0" flags="0x204"/>
      <component glyphName="acute" x="253" y="0" flags="0x4"/>
    </TTGlyph>
    <TTGlyph name="ocircumflex" xMin="42" yMin="-15" xMax="551" yMax="766">
      <component glyphName="o" x="0" y="0" flags="0x204"/>
      <component glyphName="circumflex" x="121" y="0" flags="0x4"/>
    </TTGlyph>
    <TTGlyph name="odieresis" xMin="42" yMin="-15" xMax="551" yMax="732">
      <component glyphName="o" x="0" y="0" flags="0x204"/>
      <component glyphName="dieresis" x="99" y="0" flags="0x4"/>
    </TTGlyph>
    <TTGlyph name="oe" xMin="42" yMin="-15" xMax="885" yMax="515">
      <contour>
        <pt x="294" y="460" on="1"/>
        <pt x="231" y="460" on="0"/>
        <pt x="167" y="347" on="0"/>
        <pt x="167" y="250" on="1"/>
        <pt x="167" y="153" on="0"/>
        <pt x="231" y="40" on="0"/>
        <pt x="294" y="40" on="1"/>
        <pt x="325" y="40" on="0"/>
        <pt x="373" y="70" on="0"/>
        <pt x="405" y="125" on="0"/>
        <pt x="421" y="203" on="0"/>
        <pt x="421" y="250" on="1"/>
        <pt x="421" y="347" on="0"/>
        <pt x="357" y="460" on="0"/>
      </contour>
      <contour>
        <pt x="294" y="515" on="1"/>
        <pt x="416" y="515" on="0"/>
        <pt x="488" y="420" on="1"/>
        <pt x="553" y="515" on="0"/>
        <pt x="672" y="515" on="1"/>
        <pt x="731" y="515" on="0"/>
        <pt x="813" y="471" on="0"/>
        <pt x="863" y="398" on="0"/>
        <pt x="885" y="301" on="0"/>
        <pt x="885" y="247" on="1"/>
        <pt x="553" y="247" on="1"/>
        <pt x="557" y="205" on="0"/>
        <pt x="582" y="133" on="0"/>
        <pt x="627" y="80" on="0"/>
        <pt x="692" y="50" on="0"/>
        <pt x="735" y="50" on="1"/>
        <pt x="787" y="50" on="0"/>
        <pt x="850" y="73" on="1"/>
        <pt x="865" y="26" on="1"/>
        <pt x="771" y="-15" on="0"/>
        <pt x="690" y="-15" on="1"/>
        <pt x="560" y="-15" on="0"/>
        <pt x="491" y="84" on="1"/>
        <pt x="420" y="-15" on="0"/>
        <pt x="294" y="-15" on="1"/>
        <pt x="239" y="-15" on="0"/>
        <pt x="147" y="24" on="0"/>
        <pt x="80" y="95" on="0"/>
        <pt x="42" y="192" on="0"/>
        <pt x="42" y="250" on="1"/>
        <pt x="42" y="308" on="0"/>
        <pt x="80" y="405" on="0"/>
        <pt x="147" y="476" on="0"/>
        <pt x="239" y="515" on="0"/>
      </contour>
      <contour>
        <pt x="553" y="295" on="1"/>
        <pt x="765" y="312" on="1"/>
        <pt x="764" y="340" on="0"/>
        <pt x="752" y="393" on="0"/>
        <pt x="729" y="434" on="0"/>
        <pt x="694" y="459" on="0"/>
        <pt x="672" y="460" on="1"/>
        <pt x="620" y="460" on="0"/>
        <pt x="559" y="367" on="0"/>
      </contour>
    </TTGlyph>
    <TTGlyph name="ograve" xMin="42" yMin="-15" xMax="551" yMax="769">
      <component glyphName="o" x="0" y="0" flags="0x204"/>
      <component glyphName="grave" x="199" y="0" flags="0x4"/>
    </TTGlyph>
    <TTGlyph name="one" xMin="25" yMin="0" xMax="368" yMax="700">
      <contour>
        <pt x="25" y="589" on="1"/>
        <pt x="236" y="700" on="1"/>
        <pt x="283" y="700" on="1"/>
        <pt x="283" y="62" on="1"/>
        <pt x="368" y="43" on="1"/>
        <pt x="368" y="0" on="1"/>
        <pt x="46" y="0" on="1"/>
        <pt x="46" y="43" on="1"/>
        <pt x="161" y="63" on="1"/>
        <pt x="161" y="599" on="1"/>
        <pt x="41" y="548" on="1"/>
      </contour>
    </TTGlyph>
    <TTGlyph name="onehalf" xMin="43" yMin="0" xMax="795" yMax="715">
      <component glyphName="onesuperior" x="0" y="0" flags="0x4"/>
      <component glyphName="twosuperior" x="458" y="-285" flags="0x4"/>
      <component glyphName="fraction" x="206" y="0" flags="0x4"/>
    </TTGlyph>
    <TTGlyph name="onequarter" xMin="43" yMin="0" xMax="725" yMax="715">
      <component glyphName="onesuperior" x="0" y="0" flags="0x4"/>
      <component glyphName="foursuperior" x="371" y="-285" flags="0x4"/>
      <component glyphName="fraction" x="205" y="0" flags="0x4"/>
    </TTGlyph>
    <TTGlyph name="onesuperior" xMin="43" yMin="285" xMax="268" yMax="710">
      <contour>
        <pt x="43" y="640" on="1"/>
        <pt x="175" y="710" on="1"/>
        <pt x="216" y="710" on="1"/>
        <pt x="216" y="327" on="1"/>
        <pt x="268" y="315" on="1"/>
        <pt x="268" y="285" on="1"/>
        <pt x="56" y="285" on="1"/>
        <pt x="56" y="315" on="1"/>
        <pt x="128" y="327" on="1"/>
        <pt x="128" y="644" on="1"/>
        <pt x="52" y="611" on="1"/>
      </contour>
    </TTGlyph>
    <TTGlyph name="ordfeminine" xMin="42" yMin="394" xMax="354" yMax="715">
      <contour>
        <pt x="42" y="479" on="1"/>
        <pt x="42" y="584" on="0"/>
        <pt x="230" y="584" on="1"/>
        <pt x="230" y="605" on="1"/>
        <pt x="230" y="646" on="0"/>
        <pt x="205" y="684" on="0"/>
        <pt x="171" y="684" on="1"/>
        <pt x="104" y="617" on="1"/>
        <pt x="89" y="625" on="0"/>
        <pt x="62" y="668" on="0"/>
        <pt x="60" y="687" on="1"/>
        <pt x="113" y="715" on="0"/>
        <pt x="182" y="715" on="1"/>
        <pt x="313" y="715" on="0"/>
        <pt x="313" y="611" on="1"/>
        <pt x="313" y="445" on="1"/>
        <pt x="354" y="445" on="1"/>
        <pt x="354" y="423" on="1"/>
        <pt x="329" y="394" on="0"/>
        <pt x="289" y="394" on="1"/>
        <pt x="253" y="394" on="0"/>
        <pt x="233" y="426" on="1"/>
        <pt x="197" y="394" on="0"/>
        <pt x="144" y="394" on="1"/>
        <pt x="105" y="394" on="0"/>
        <pt x="42" y="437" on="0"/>
      </contour>
      <contour>
        <pt x="128" y="481" on="1"/>
        <pt x="128" y="463" on="0"/>
        <pt x="154" y="438" on="0"/>
        <pt x="177" y="438" on="1"/>
        <pt x="210" y="438" on="0"/>
        <pt x="230" y="460" on="1"/>
        <pt x="230" y="551" on="1"/>
        <pt x="188" y="550" on="0"/>
        <pt x="128" y="517" on="0"/>
      </contour>
    </TTGlyph>
    <TTGlyph name="ordmasculine" xMin="40" yMin="394" xMax="350" yMax="715">
      <contour>
        <pt x="40" y="556" on="1"/>
        <pt x="40" y="590" on="0"/>
        <pt x="61" y="649" on="0"/>
        <pt x="101" y="691" on="0"/>
        <pt x="159" y="715" on="0"/>
        <pt x="195" y="715" on="1"/>
        <pt x="231" y="715" on="0"/>
        <pt x="289" y="691" on="0"/>
        <pt x="329" y="649" on="0"/>
        <pt x="350" y="590" on="0"/>
        <pt x="350" y="556" on="1"/>
        <pt x="350" y="521" on="0"/>
        <pt x="329" y="462" on="0"/>
        <pt x="289" y="418" on="0"/>
        <pt x="231" y="394" on="0"/>
        <pt x="195" y="394" on="1"/>
        <pt x="159" y="394" on="0"/>
        <pt x="101" y="418" on="0"/>
        <pt x="61" y="462" on="0"/>
        <pt x="40" y="521" on="0"/>
      </contour>
      <contour>
        <pt x="126" y="556" on="1"/>
        <pt x="126" y="499" on="0"/>
        <pt x="161" y="429" on="0"/>
        <pt x="195" y="429" on="1"/>
        <pt x="229" y="429" on="0"/>
        <pt x="265" y="499" on="0"/>
        <pt x="265" y="556" on="1"/>
        <pt x="265" y="613" on="0"/>
        <pt x="229" y="681" on="0"/>
        <pt x="195" y="681" on="1"/>
        <pt x="161" y="681" on="0"/>
        <pt x="126" y="613" on="0"/>
      </contour>
    </TTGlyph>
    <TTGlyph name="oslash" xMin="42" yMin="-71" xMax="551" yMax="569">
      <contour>
        <pt x="42" y="251" on="1"/>
        <pt x="42" y="367" on="0"/>
        <pt x="187" y="515" on="0"/>
        <pt x="297" y="515" on="1"/>
        <pt x="353" y="515" on="0"/>
        <pt x="405" y="493" on="1"/>
        <pt x="446" y="569" on="1"/>
        <pt x="502" y="569" on="1"/>
        <pt x="447" y="469" on="1"/>
        <pt x="551" y="394" on="0"/>
        <pt x="551" y="251" on="1"/>
        <pt x="551" y="135" on="0"/>
        <pt x="407" y="-15" on="0"/>
        <pt x="297" y="-15" on="1"/>
        <pt x="242" y="-15" on="0"/>
        <pt x="194" y="5" on="1"/>
        <pt x="152" y="-71" on="1"/>
        <pt x="95" y="-71" on="1"/>
        <pt x="150" y="29" on="1"/>
        <pt x="42" y="106" on="0"/>
      </contour>
      <contour>
        <pt x="168" y="251" on="1"/>
        <pt x="168" y="165" on="0"/>
        <pt x="195" y="111" on="1"/>
        <pt x="370" y="431" on="1"/>
        <pt x="339" y="460" on="0"/>
        <pt x="297" y="460" on="1"/>
        <pt x="235" y="460" on="0"/>
        <pt x="168" y="346" on="0"/>
      </contour>
      <contour>
        <pt x="227" y="66" on="1"/>
        <pt x="256" y="40" on="0"/>
        <pt x="297" y="40" on="1"/>
        <pt x="359" y="40" on="0"/>
        <pt x="426" y="156" on="0"/>
        <pt x="426" y="251" on="1"/>
        <pt x="426" y="330" on="0"/>
        <pt x="401" y="385" on="1"/>
      </contour>
    </TTGlyph>
    <TTGlyph name="otilde" xMin="42" yMin="-15" xMax="551" yMax="733">
      <component glyphName="o" x="0" y="0" flags="0x204"/>
      <component glyphName="tilde" x="93" y="0" flags="0x4"/>
    </TTGlyph>
    <TTGlyph name="p" xMin="21" yMin="-300" xMax="582" yMax="515">
      <contour>
        <pt x="21" y="-257" on="1"/>
        <pt x="106" y="-237" on="1"/>
        <pt x="106" y="419" on="1"/>
        <pt x="21" y="419" on="1"/>
        <pt x="21" y="462" on="1"/>
        <pt x="181" y="500" on="1"/>
        <pt x="226" y="500" on="1"/>
        <pt x="226" y="454" on="1"/>
        <pt x="287" y="515" on="0"/>
        <pt x="376" y="515" on="1"/>
        <pt x="461" y="515" on="0"/>
        <pt x="582" y="389" on="0"/>
        <pt x="582" y="269" on="1"/>
        <pt x="582" y="134" on="0"/>
        <pt x="416" y="-15" on="0"/>
        <pt x="298" y="-15" on="1"/>
        <pt x="257" y="-15" on="0"/>
        <pt x="226" y="-7" on="1"/>
        <pt x="226" y="-237" on="1"/>
        <pt x="331" y="-257" on="1"/>
        <pt x="331" y="-300" on="1"/>
        <pt x="21" y="-300" on="1"/>
      </contour>
      <contour>
        <pt x="226" y="50" on="1"/>
        <pt x="256" y="40" on="0"/>
        <pt x="289" y="40" on="1"/>
        <pt x="364" y="40" on="0"/>
        <pt x="458" y="156" on="0"/>
        <pt x="458" y="265" on="1"/>
        <pt x="458" y="349" on="0"/>
        <pt x="385" y="434" on="0"/>
        <pt x="328" y="434" on="1"/>
        <pt x="272" y="434" on="0"/>
        <pt x="226" y="399" on="1"/>
      </contour>
    </TTGlyph>
    <TTGlyph name="paragraph" xMin="36" yMin="-112" xMax="587" yMax="760">
      <contour>
        <pt x="36" y="582" on="1"/>
        <pt x="36" y="760" on="0"/>
        <pt x="261" y="760" on="1"/>
        <pt x="587" y="760" on="1"/>
        <pt x="587" y="717" on="1"/>
        <pt x="502" y="697" on="1"/>
        <pt x="502" y="-112" on="1"/>
        <pt x="430" y="-112" on="1"/>
        <pt x="430" y="692" on="1"/>
        <pt x="341" y="692" on="1"/>
        <pt x="341" y="-112" on="1"/>
        <pt x="269" y="-112" on="1"/>
        <pt x="269" y="386" on="1"/>
        <pt x="36" y="383" on="0"/>
      </contour>
    </TTGlyph>
    <TTGlyph name="parenleft" xMin="34" yMin="-299" xMax="333" yMax="799">
      <contour>
        <pt x="34" y="250" on="1"/>
        <pt x="34" y="426" on="0"/>
        <pt x="188" y="717" on="0"/>
        <pt x="309" y="799" on="1"/>
        <pt x="333" y="770" on="1"/>
        <pt x="238" y="678" on="0"/>
        <pt x="133" y="402" on="0"/>
        <pt x="133" y="250" on="1"/>
        <pt x="133" y="97" on="0"/>
        <pt x="237" y="-179" on="0"/>
        <pt x="333" y="-270" on="1"/>
        <pt x="309" y="-299" on="1"/>
        <pt x="188" y="-218" on="0"/>
        <pt x="34" y="73" on="0"/>
      </contour>
    </TTGlyph>
    <TTGlyph name="parenright" xMin="-1" yMin="-299" xMax="298" yMax="799">
      <contour>
        <pt x="-1" y="-270" on="1"/>
        <pt x="95" y="-179" on="0"/>
        <pt x="199" y="97" on="0"/>
        <pt x="199" y="250" on="1"/>
        <pt x="199" y="402" on="0"/>
        <pt x="94" y="678" on="0"/>
        <pt x="-1" y="770" on="1"/>
        <pt x="23" y="799" on="1"/>
        <pt x="144" y="717" on="0"/>
        <pt x="298" y="426" on="0"/>
        <pt x="298" y="250" on="1"/>
        <pt x="298" y="73" on="0"/>
        <pt x="144" y="-218" on="0"/>
        <pt x="23" y="-299" on="1"/>
      </contour>
    </TTGlyph>
    <TTGlyph name="percent" xMin="40" yMin="-15" xMax="719" yMax="715">
      <contour>
        <pt x="80" y="419" on="1"/>
        <pt x="40" y="468" on="0"/>
        <pt x="40" y="543" on="1"/>
        <pt x="40" y="579" on="0"/>
        <pt x="60" y="642" on="0"/>
        <pt x="99" y="689" on="0"/>
        <pt x="155" y="715" on="0"/>
        <pt x="191" y="715" on="1"/>
        <pt x="227" y="715" on="0"/>
        <pt x="282" y="688" on="0"/>
        <pt x="320" y="641" on="0"/>
        <pt x="340" y="579" on="0"/>
        <pt x="340" y="543" on="1"/>
        <pt x="340" y="507" on="0"/>
        <pt x="320" y="444" on="0"/>
        <pt x="283" y="397" on="0"/>
        <pt x="227" y="370" on="0"/>
        <pt x="191" y="370" on="1"/>
        <pt x="120" y="370" on="0"/>
      </contour>
      <contour>
        <pt x="129" y="543" on="1"/>
        <pt x="129" y="409" on="0"/>
        <pt x="191" y="409" on="1"/>
        <pt x="252" y="409" on="0"/>
        <pt x="252" y="543" on="1"/>
        <pt x="252" y="675" on="0"/>
        <pt x="191" y="675" on="1"/>
        <pt x="129" y="675" on="0"/>
      </contour>
      <contour>
        <pt x="169" y="0" on="1"/>
        <pt x="526" y="715" on="1"/>
        <pt x="596" y="715" on="1"/>
        <pt x="240" y="0" on="1"/>
      </contour>
      <contour>
        <pt x="459" y="34" on="1"/>
        <pt x="419" y="83" on="0"/>
        <pt x="419" y="158" on="1"/>
        <pt x="419" y="194" on="0"/>
        <pt x="439" y="257" on="0"/>
        <pt x="478" y="303" on="0"/>
        <pt x="533" y="330" on="0"/>
        <pt x="569" y="330" on="1"/>
        <pt x="604" y="330" on="0"/>
        <pt x="660" y="303" on="0"/>
        <pt x="699" y="257" on="0"/>
        <pt x="719" y="194" on="0"/>
        <pt x="719" y="158" on="1"/>
        <pt x="719" y="122" on="0"/>
        <pt x="699" y="58" on="0"/>
        <pt x="660" y="12" on="0"/>
        <pt x="605" y="-15" on="0"/>
        <pt x="569" y="-15" on="1"/>
        <pt x="499" y="-15" on="0"/>
      </contour>
      <contour>
        <pt x="508" y="158" on="1"/>
        <pt x="508" y="24" on="0"/>
        <pt x="569" y="24" on="1"/>
        <pt x="631" y="24" on="0"/>
        <pt x="631" y="158" on="1"/>
        <pt x="631" y="290" on="0"/>
        <pt x="569" y="290" on="1"/>
        <pt x="508" y="290" on="0"/>
      </contour>
    </TTGlyph>
    <TTGlyph name="period" xMin="46" yMin="-15" xMax="181" yMax="120">
      <contour>
        <pt x="46" y="53" on="1"/>
        <pt x="46" y="81" on="0"/>
        <pt x="86" y="120" on="0"/>
        <pt x="114" y="120" on="1"/>
        <pt x="142" y="120" on="0"/>
        <pt x="181" y="81" on="0"/>
        <pt x="181" y="53" on="1"/>
        <pt x="181" y="26" on="0"/>
        <pt x="141" y="-15" on="0"/>
        <pt x="114" y="-15" on="1"/>
        <pt x="86" y="-15" on="0"/>
        <pt x="46" y="26" on="0"/>
      </contour>
    </TTGlyph>
    <TTGlyph name="periodcentered" xMin="52" yMin="222" xMax="206" yMax="376">
      <contour>
        <pt x="52" y="299" on="1"/>
        <pt x="52" y="332" on="0"/>
        <pt x="100" y="376" on="0"/>
        <pt x="129" y="376" on="1"/>
        <pt x="158" y="376" on="0"/>
        <pt x="206" y="332" on="0"/>
        <pt x="206" y="299" on="1"/>
        <pt x="206" y="265" on="0"/>
        <pt x="158" y="222" on="0"/>
        <pt x="129" y="222" on="1"/>
        <pt x="101" y="222" on="0"/>
        <pt x="52" y="265" on="0"/>
      </contour>
    </TTGlyph>
    <TTGlyph name="plus" xMin="42" yMin="127" xMax="501" yMax="585">
      <contour>
        <pt x="42" y="323" on="1"/>
        <pt x="42" y="390" on="1"/>
        <pt x="237" y="390" on="1"/>
        <pt x="237" y="585" on="1"/>
        <pt x="304" y="585" on="1"/>
        <pt x="304" y="390" on="1"/>
        <pt x="501" y="390" on="1"/>
        <pt x="501" y="323" on="1"/>
        <pt x="304" y="323" on="1"/>
        <pt x="304" y="127" on="1"/>
        <pt x="237" y="127" on="1"/>
        <pt x="237" y="323" on="1"/>
      </contour>
    </TTGlyph>
    <TTGlyph name="plusminus" xMin="54" yMin="0" xMax="503" yMax="585">
      <contour>
        <pt x="54" y="0" on="1"/>
        <pt x="54" y="67" on="1"/>
        <pt x="503" y="67" on="1"/>
        <pt x="503" y="0" on="1"/>
      </contour>
      <contour>
        <pt x="54" y="323" on="1"/>
        <pt x="54" y="390" on="1"/>
        <pt x="239" y="390" on="1"/>
        <pt x="239" y="585" on="1"/>
        <pt x="306" y="585" on="1"/>
        <pt x="306" y="390" on="1"/>
        <pt x="503" y="390" on="1"/>
        <pt x="503" y="323" on="1"/>
        <pt x="306" y="323" on="1"/>
        <pt x="306" y="127" on="1"/>
        <pt x="239" y="127" on="1"/>
        <pt x="239" y="323" on="1"/>
      </contour>
    </TTGlyph>
    <TTGlyph name="q" xMin="43" yMin="-300" xMax="604" yMax="515">
      <contour>
        <pt x="43" y="232" on="1"/>
        <pt x="43" y="367" on="0"/>
        <pt x="213" y="515" on="0"/>
        <pt x="332" y="515" on="1"/>
        <pt x="436" y="515" on="0"/>
        <pt x="519" y="464" on="1"/>
        <pt x="519" y="-237" on="1"/>
        <pt x="604" y="-257" on="1"/>
        <pt x="604" y="-300" on="1"/>
        <pt x="294" y="-300" on="1"/>
        <pt x="294" y="-257" on="1"/>
        <pt x="399" y="-237" on="1"/>
        <pt x="399" y="42" on="1"/>
        <pt x="345" y="-15" on="0"/>
        <pt x="254" y="-15" on="1"/>
        <pt x="168" y="-15" on="0"/>
        <pt x="43" y="111" on="0"/>
      </contour>
      <contour>
        <pt x="166" y="236" on="1"/>
        <pt x="166" y="153" on="0"/>
        <pt x="244" y="66" on="0"/>
        <pt x="302" y="66" on="1"/>
        <pt x="354" y="66" on="0"/>
        <pt x="399" y="97" on="1"/>
        <pt x="399" y="452" on="1"/>
        <pt x="367" y="460" on="0"/>
        <pt x="341" y="460" on="1"/>
        <pt x="261" y="460" on="0"/>
        <pt x="166" y="345" on="0"/>
      </contour>
    </TTGlyph>
    <TTGlyph name="question" xMin="35" yMin="-15" xMax="439" yMax="715">
      <contour>
        <pt x="35" y="667" on="1"/>
        <pt x="76" y="689" on="0"/>
        <pt x="182" y="715" on="0"/>
        <pt x="235" y="715" on="1"/>
        <pt x="333" y="715" on="0"/>
        <pt x="439" y="624" on="0"/>
        <pt x="439" y="544" on="1"/>
        <pt x="439" y="505" on="0"/>
        <pt x="413" y="437" on="0"/>
        <pt x="350" y="368" on="0"/>
        <pt x="300" y="324" on="0"/>
        <pt x="250" y="285" on="1"/>
        <pt x="235" y="192" on="1"/>
        <pt x="184" y="192" on="1"/>
        <pt x="169" y="314" on="1"/>
        <pt x="236" y="377" on="0"/>
        <pt x="312" y="490" on="0"/>
        <pt x="312" y="548" on="1"/>
        <pt x="312" y="603" on="0"/>
        <pt x="251" y="663" on="0"/>
        <pt x="200" y="663" on="1"/>
        <pt x="82" y="570" on="1"/>
        <pt x="40" y="606" on="0"/>
      </contour>
      <contour>
        <pt x="141" y="53" on="1"/>
        <pt x="141" y="81" on="0"/>
        <pt x="181" y="121" on="0"/>
        <pt x="209" y="121" on="1"/>
        <pt x="237" y="121" on="0"/>
        <pt x="276" y="81" on="0"/>
        <pt x="276" y="53" on="1"/>
        <pt x="276" y="26" on="0"/>
        <pt x="236" y="-15" on="0"/>
        <pt x="209" y="-15" on="1"/>
        <pt x="181" y="-15" on="0"/>
        <pt x="141" y="26" on="0"/>
      </contour>
    </TTGlyph>
    <TTGlyph name="questiondown" xMin="46" yMin="-215" xMax="450" yMax="514">
      <component glyphName="question" x="485" y="500" scale="-0.999938964844" flags="0x4"/>
    </TTGlyph>
    <TTGlyph name="quotedbl" xMin="42" yMin="480" xMax="321" yMax="715">
      <contour>
        <pt x="42" y="715" on="1"/>
        <pt x="148" y="715" on="1"/>
        <pt x="118" y="480" on="1"/>
        <pt x="72" y="480" on="1"/>
      </contour>
      <contour>
        <pt x="215" y="715" on="1"/>
        <pt x="321" y="715" on="1"/>
        <pt x="291" y="480" on="1"/>
        <pt x="245" y="480" on="1"/>
      </contour>
    </TTGlyph>
    <TTGlyph name="quotedblbase" xMin="19" yMin="-173" xMax="371" yMax="125">
      <component glyphName="comma" x="0" y="0" flags="0x4"/>
      <component glyphName="comma" x="180" y="0" flags="0x4"/>
    </TTGlyph>
    <TTGlyph name="quotedblleft" xMin="41" yMin="446" xMax="393" yMax="743">
      <component glyphName="comma" x="232" y="571" scale="-0.999938964844" flags="0x4"/>
      <component glyphName="comma" x="412" y="571" scale="-0.999938964844" flags="0x4"/>
    </TTGlyph>
    <TTGlyph name="quotedblright" xMin="38" yMin="423" xMax="391" yMax="721">
      <component glyphName="comma" x="19" y="596" flags="0x4"/>
      <component glyphName="comma" x="200" y="596" flags="0x4"/>
    </TTGlyph>
    <TTGlyph name="quoteleft" xMin="41" yMin="444" xMax="213" yMax="741">
      <component glyphName="comma" x="232" y="569" scale="-0.999938964844" flags="0x4"/>
    </TTGlyph>
    <TTGlyph name="quoteright" xMin="38" yMin="423" xMax="210" yMax="721">
      <component glyphName="comma" x="19" y="596" flags="0x4"/>
    </TTGlyph>
    <TTGlyph name="quotesinglbase" xMin="19" yMin="-173" xMax="191" yMax="125">
      <component glyphName="comma" x="0" y="0" flags="0x204"/>
    </TTGlyph>
    <TTGlyph name="quotesingle" xMin="42" yMin="480" xMax="158" yMax="715">
      <contour>
        <pt x="42" y="715" on="1"/>
        <pt x="158" y="715" on="1"/>
        <pt x="128" y="480" on="1"/>
        <pt x="72" y="480" on="1"/>
      </contour>
    </TTGlyph>
    <TTGlyph name="r" xMin="36" yMin="0" xMax="434" yMax="515">
      <contour>
        <pt x="36" y="0" on="1"/>
        <pt x="36" y="43" on="1"/>
        <pt x="121" y="63" on="1"/>
        <pt x="121" y="419" on="1"/>
        <pt x="36" y="419" on="1"/>
        <pt x="36" y="462" on="1"/>
        <pt x="196" y="500" on="1"/>
        <pt x="240" y="500" on="1"/>
        <pt x="240" y="438" on="1"/>
        <pt x="321" y="515" on="0"/>
        <pt x="428" y="515" on="1"/>
        <pt x="434" y="496" on="0"/>
        <pt x="434" y="473" on="1"/>
        <pt x="434" y="436" on="0"/>
        <pt x="425" y="407" on="1"/>
        <pt x="298" y="418" on="1"/>
        <pt x="268" y="404" on="0"/>
        <pt x="240" y="384" on="1"/>
        <pt x="240" y="63" on="1"/>
        <pt x="345" y="43" on="1"/>
        <pt x="345" y="0" on="1"/>
      </contour>
    </TTGlyph>
    <TTGlyph name="registered" xMin="48" yMin="-10" xMax="783" yMax="725">
      <contour>
        <pt x="416" y="725" on="1"/>
        <pt x="491" y="725" on="0"/>
        <pt x="625" y="666" on="0"/>
        <pt x="725" y="566" on="0"/>
        <pt x="783" y="432" on="0"/>
        <pt x="783" y="357" on="1"/>
        <pt x="783" y="282" on="0"/>
        <pt x="725" y="149" on="0"/>
        <pt x="626" y="49" on="0"/>
        <pt x="492" y="-10" on="0"/>
        <pt x="416" y="-10" on="1"/>
        <pt x="340" y="-10" on="0"/>
        <pt x="206" y="48" on="0"/>
        <pt x="106" y="148" on="0"/>
        <pt x="48" y="281" on="0"/>
        <pt x="48" y="357" on="1"/>
        <pt x="48" y="433" on="0"/>
        <pt x="106" y="567" on="0"/>
        <pt x="206" y="667" on="0"/>
        <pt x="340" y="725" on="0"/>
      </contour>
      <contour>
        <pt x="416" y="49" on="1"/>
        <pt x="480" y="49" on="0"/>
        <pt x="592" y="98" on="0"/>
        <pt x="675" y="182" on="0"/>
        <pt x="723" y="294" on="0"/>
        <pt x="723" y="357" on="1"/>
        <pt x="723" y="420" on="0"/>
        <pt x="674" y="533" on="0"/>
        <pt x="591" y="617" on="0"/>
        <pt x="479" y="666" on="0"/>
        <pt x="416" y="666" on="1"/>
        <pt x="352" y="666" on="0"/>
        <pt x="240" y="617" on="0"/>
        <pt x="156" y="533" on="0"/>
        <pt x="107" y="421" on="0"/>
        <pt x="107" y="357" on="1"/>
        <pt x="107" y="294" on="0"/>
        <pt x="155" y="182" on="0"/>
        <pt x="239" y="98" on="0"/>
        <pt x="352" y="49" on="0"/>
      </contour>
      <contour>
        <pt x="227" y="150" on="1"/>
        <pt x="227" y="178" on="1"/>
        <pt x="283" y="191" on="1"/>
        <pt x="283" y="529" on="1"/>
        <pt x="227" y="542" on="1"/>
        <pt x="227" y="570" on="1"/>
        <pt x="397" y="570" on="1"/>
        <pt x="564" y="570" on="0"/>
        <pt x="564" y="454" on="1"/>
        <pt x="564" y="409" on="0"/>
        <pt x="512" y="351" on="0"/>
        <pt x="467" y="342" on="1"/>
        <pt x="560" y="190" on="1"/>
        <pt x="613" y="177" on="1"/>
        <pt x="613" y="150" on="1"/>
        <pt x="500" y="150" on="1"/>
        <pt x="396" y="335" on="1"/>
        <pt x="356" y="335" on="1"/>
        <pt x="356" y="191" on="1"/>
        <pt x="412" y="178" on="1"/>
        <pt x="412" y="150" on="1"/>
      </contour>
      <contour>
        <pt x="356" y="372" on="1"/>
        <pt x="391" y="372" on="1"/>
        <pt x="436" y="372" on="0"/>
        <pt x="488" y="415" on="0"/>
        <pt x="488" y="454" on="1"/>
        <pt x="488" y="492" on="0"/>
        <pt x="436" y="532" on="0"/>
        <pt x="391" y="532" on="1"/>
        <pt x="356" y="532" on="1"/>
      </contour>
    </TTGlyph>
    <TTGlyph name="ring" xMin="20" yMin="562" xMax="238" yMax="780">
      <contour>
        <pt x="129" y="780" on="1"/>
        <pt x="172" y="780" on="0"/>
        <pt x="238" y="717" on="0"/>
        <pt x="238" y="671" on="1"/>
        <pt x="238" y="625" on="0"/>
        <pt x="172" y="562" on="0"/>
        <pt x="129" y="562" on="1"/>
        <pt x="85" y="562" on="0"/>
        <pt x="20" y="625" on="0"/>
        <pt x="20" y="671" on="1"/>
        <pt x="20" y="717" on="0"/>
        <pt x="86" y="780" on="0"/>
      </contour>
      <contour>
        <pt x="74" y="671" on="1"/>
        <pt x="74" y="648" on="0"/>
        <pt x="106" y="616" on="0"/>
        <pt x="129" y="616" on="1"/>
        <pt x="152" y="616" on="0"/>
        <pt x="184" y="648" on="0"/>
        <pt x="184" y="671" on="1"/>
        <pt x="184" y="693" on="0"/>
        <pt x="151" y="726" on="0"/>
        <pt x="129" y="726" on="1"/>
        <pt x="107" y="726" on="0"/>
        <pt x="74" y="693" on="0"/>
      </contour>
    </TTGlyph>
    <TTGlyph name="ring.case" xMin="17" yMin="752" xMax="235" yMax="970">
      <contour>
        <pt x="126" y="970" on="1"/>
        <pt x="169" y="970" on="0"/>
        <pt x="235" y="907" on="0"/>
        <pt x="235" y="861" on="1"/>
        <pt x="235" y="815" on="0"/>
        <pt x="169" y="752" on="0"/>
        <pt x="126" y="752" on="1"/>
        <pt x="82" y="752" on="0"/>
        <pt x="17" y="815" on="0"/>
        <pt x="17" y="861" on="1"/>
        <pt x="17" y="907" on="0"/>
        <pt x="83" y="970" on="0"/>
      </contour>
      <contour>
        <pt x="71" y="861" on="1"/>
        <pt x="71" y="838" on="0"/>
        <pt x="103" y="806" on="0"/>
        <pt x="126" y="806" on="1"/>
        <pt x="149" y="806" on="0"/>
        <pt x="181" y="838" on="0"/>
        <pt x="181" y="861" on="1"/>
        <pt x="181" y="883" on="0"/>
        <pt x="148" y="916" on="0"/>
        <pt x="126" y="916" on="1"/>
        <pt x="104" y="916" on="0"/>
        <pt x="71" y="883" on="0"/>
      </contour>
    </TTGlyph>
    <TTGlyph name="s" xMin="49" yMin="-15" xMax="437" yMax="515">
      <contour>
        <pt x="49" y="8" on="1"/>
        <pt x="49" y="151" on="1"/>
        <pt x="95" y="151" on="1"/>
        <pt x="133" y="46" on="1"/>
        <pt x="168" y="40" on="0"/>
        <pt x="211" y="40" on="1"/>
        <pt x="275" y="40" on="0"/>
        <pt x="328" y="73" on="0"/>
        <pt x="328" y="113" on="1"/>
        <pt x="328" y="144" on="0"/>
        <pt x="270" y="185" on="0"/>
        <pt x="199" y="213" on="1"/>
        <pt x="132" y="241" on="0"/>
        <pt x="58" y="318" on="0"/>
        <pt x="58" y="377" on="1"/>
        <pt x="58" y="444" on="0"/>
        <pt x="171" y="515" on="0"/>
        <pt x="262" y="515" on="1"/>
        <pt x="341" y="515" on="0"/>
        <pt x="405" y="496" on="1"/>
        <pt x="405" y="360" on="1"/>
        <pt x="363" y="360" on="1"/>
        <pt x="330" y="454" on="1"/>
        <pt x="301" y="462" on="0"/>
        <pt x="262" y="462" on="1"/>
        <pt x="208" y="462" on="0"/>
        <pt x="165" y="429" on="0"/>
        <pt x="165" y="396" on="1"/>
        <pt x="165" y="377" on="0"/>
        <pt x="193" y="347" on="0"/>
        <pt x="228" y="328" on="0"/>
        <pt x="267" y="311" on="1"/>
        <pt x="358" y="273" on="0"/>
        <pt x="437" y="196" on="0"/>
        <pt x="437" y="135" on="1"/>
        <pt x="437" y="62" on="0"/>
        <pt x="319" y="-15" on="0"/>
        <pt x="224" y="-15" on="1"/>
        <pt x="130" y="-15" on="0"/>
      </contour>
    </TTGlyph>
    <TTGlyph name="section" xMin="62" yMin="-83" xMax="481" yMax="759">
      <contour>
        <pt x="62" y="359" on="1"/>
        <pt x="62" y="434" on="0"/>
        <pt x="143" y="477" on="1"/>
        <pt x="67" y="528" on="0"/>
        <pt x="67" y="612" on="1"/>
        <pt x="67" y="680" on="0"/>
        <pt x="181" y="759" on="0"/>
        <pt x="267" y="759" on="1"/>
        <pt x="359" y="759" on="0"/>
        <pt x="434" y="733" on="1"/>
        <pt x="434" y="576" on="1"/>
        <pt x="393" y="576" on="1"/>
        <pt x="352" y="698" on="1"/>
        <pt x="315" y="705" on="0"/>
        <pt x="288" y="705" on="1"/>
        <pt x="233" y="705" on="0"/>
        <pt x="169" y="661" on="0"/>
        <pt x="169" y="625" on="1"/>
        <pt x="169" y="584" on="0"/>
        <pt x="228" y="535" on="0"/>
        <pt x="286" y="512" on="1"/>
        <pt x="321" y="498" on="0"/>
        <pt x="363" y="479" on="0"/>
        <pt x="422" y="443" on="0"/>
        <pt x="456" y="406" on="0"/>
        <pt x="481" y="351" on="0"/>
        <pt x="481" y="319" on="1"/>
        <pt x="481" y="242" on="0"/>
        <pt x="413" y="194" on="1"/>
        <pt x="475" y="144" on="0"/>
        <pt x="475" y="72" on="1"/>
        <pt x="475" y="-2" on="0"/>
        <pt x="350" y="-83" on="0"/>
        <pt x="255" y="-83" on="1"/>
        <pt x="159" y="-83" on="0"/>
        <pt x="79" y="-43" on="1"/>
        <pt x="79" y="113" on="1"/>
        <pt x="119" y="113" on="1"/>
        <pt x="162" y="-14" on="1"/>
        <pt x="200" y="-26" on="0"/>
        <pt x="232" y="-26" on="1"/>
        <pt x="365" y="-26" on="0"/>
        <pt x="365" y="65" on="1"/>
        <pt x="365" y="101" on="0"/>
        <pt x="306" y="150" on="0"/>
        <pt x="241" y="176" on="1"/>
        <pt x="157" y="209" on="0"/>
        <pt x="62" y="294" on="0"/>
      </contour>
      <contour>
        <pt x="147" y="372" on="1"/>
        <pt x="147" y="351" on="0"/>
        <pt x="166" y="318" on="0"/>
        <pt x="209" y="291" on="0"/>
        <pt x="243" y="276" on="0"/>
        <pt x="275" y="264" on="1"/>
        <pt x="333" y="242" on="0"/>
        <pt x="363" y="226" on="1"/>
        <pt x="388" y="254" on="0"/>
        <pt x="388" y="298" on="1"/>
        <pt x="388" y="341" on="0"/>
        <pt x="322" y="395" on="0"/>
        <pt x="251" y="423" on="1"/>
        <pt x="194" y="447" on="0"/>
        <pt x="192" y="448" on="1"/>
        <pt x="147" y="420" on="0"/>
      </contour>
    </TTGlyph>
    <TTGlyph name="semicolon" xMin="40" yMin="-173" xMax="212" yMax="460">
      <contour>
        <pt x="40" y="-140" on="1"/>
        <pt x="100" y="-77" on="0"/>
        <pt x="130" y="-2" on="1"/>
        <pt x="64" y="49" on="1"/>
        <pt x="64" y="82" on="0"/>
        <pt x="109" y="125" on="0"/>
        <pt x="137" y="125" on="1"/>
        <pt x="172" y="125" on="0"/>
        <pt x="212" y="83" on="0"/>
        <pt x="212" y="42" on="1"/>
        <pt x="212" y="-8" on="0"/>
        <pt x="122" y="-140" on="0"/>
        <pt x="77" y="-173" on="1"/>
      </contour>
      <contour>
        <pt x="68" y="393" on="1"/>
        <pt x="68" y="421" on="0"/>
        <pt x="108" y="460" on="0"/>
        <pt x="136" y="460" on="1"/>
        <pt x="164" y="460" on="0"/>
        <pt x="203" y="421" on="0"/>
        <pt x="203" y="393" on="1"/>
        <pt x="203" y="366" on="0"/>
        <pt x="163" y="325" on="0"/>
        <pt x="136" y="325" on="1"/>
        <pt x="108" y="325" on="0"/>
        <pt x="68" y="366" on="0"/>
      </contour>
    </TTGlyph>
    <TTGlyph name="seven" xMin="25" yMin="0" xMax="475" yMax="700">
      <contour>
        <pt x="25" y="495" on="1"/>
        <pt x="53" y="700" on="1"/>
        <pt x="475" y="700" on="1"/>
        <pt x="475" y="656" on="1"/>
        <pt x="377" y="506" on="0"/>
        <pt x="255" y="166" on="0"/>
        <pt x="238" y="0" on="1"/>
        <pt x="118" y="0" on="1"/>
        <pt x="136" y="143" on="0"/>
        <pt x="287" y="490" on="0"/>
        <pt x="364" y="603" on="1"/>
        <pt x="120" y="603" on="1"/>
        <pt x="69" y="495" on="1"/>
      </contour>
    </TTGlyph>
    <TTGlyph name="six" xMin="52" yMin="-15" xMax="535" yMax="715">
      <contour>
        <pt x="52" y="300" on="1"/>
        <pt x="52" y="477" on="0"/>
        <pt x="272" y="715" on="0"/>
        <pt x="461" y="715" on="1"/>
        <pt x="460" y="657" on="1"/>
        <pt x="341" y="656" on="0"/>
        <pt x="192" y="499" on="0"/>
        <pt x="172" y="375" on="1"/>
        <pt x="239" y="436" on="0"/>
        <pt x="327" y="436" on="1"/>
        <pt x="426" y="436" on="0"/>
        <pt x="535" y="310" on="0"/>
        <pt x="535" y="214" on="1"/>
        <pt x="535" y="117" on="0"/>
        <pt x="415" y="-15" on="0"/>
        <pt x="305" y="-15" on="1"/>
        <pt x="183" y="-15" on="0"/>
        <pt x="52" y="158" on="0"/>
      </contour>
      <contour>
        <pt x="165" y="291" on="1"/>
        <pt x="165" y="183" on="0"/>
        <pt x="235" y="40" on="0"/>
        <pt x="299" y="40" on="1"/>
        <pt x="349" y="40" on="0"/>
        <pt x="411" y="135" on="0"/>
        <pt x="411" y="197" on="1"/>
        <pt x="411" y="267" on="0"/>
        <pt x="343" y="357" on="0"/>
        <pt x="282" y="357" on="1"/>
        <pt x="219" y="357" on="0"/>
        <pt x="165" y="318" on="1"/>
      </contour>
    </TTGlyph>
    <TTGlyph name="slash" xMin="29" yMin="0" xMax="416" yMax="700">
      <contour>
        <pt x="29" y="0" on="1"/>
        <pt x="340" y="700" on="1"/>
        <pt x="416" y="700" on="1"/>
        <pt x="106" y="0" on="1"/>
      </contour>
    </TTGlyph>
    <TTGlyph name="sterling" xMin="49" yMin="0" xMax="512" yMax="715">
      <contour>
        <pt x="49" y="0" on="1"/>
        <pt x="49" y="55" on="1"/>
        <pt x="193" y="161" on="0"/>
        <pt x="193" y="267" on="1"/>
        <pt x="193" y="294" on="0"/>
        <pt x="179" y="333" on="1"/>
        <pt x="57" y="333" on="1"/>
        <pt x="57" y="380" on="1"/>
        <pt x="155" y="386" on="1"/>
        <pt x="151" y="394" on="0"/>
        <pt x="123" y="446" on="1"/>
        <pt x="118" y="455" on="0"/>
        <pt x="87" y="529" on="0"/>
        <pt x="87" y="564" on="1"/>
        <pt x="87" y="642" on="0"/>
        <pt x="204" y="715" on="0"/>
        <pt x="291" y="715" on="1"/>
        <pt x="408" y="715" on="0"/>
        <pt x="503" y="665" on="1"/>
        <pt x="501" y="635" on="0"/>
        <pt x="469" y="574" on="0"/>
        <pt x="445" y="558" on="1"/>
        <pt x="329" y="666" on="1"/>
        <pt x="271" y="666" on="0"/>
        <pt x="214" y="599" on="0"/>
        <pt x="214" y="545" on="1"/>
        <pt x="214" y="533" on="0"/>
        <pt x="219" y="506" on="0"/>
        <pt x="224" y="486" on="0"/>
        <pt x="238" y="453" on="0"/>
        <pt x="241" y="446" on="1"/>
        <pt x="263" y="399" on="0"/>
        <pt x="265" y="395" on="1"/>
        <pt x="413" y="405" on="1"/>
        <pt x="402" y="333" on="1"/>
        <pt x="287" y="333" on="1"/>
        <pt x="296" y="303" on="0"/>
        <pt x="296" y="274" on="1"/>
        <pt x="296" y="185" on="0"/>
        <pt x="190" y="97" on="1"/>
        <pt x="415" y="97" on="1"/>
        <pt x="468" y="205" on="1"/>
        <pt x="512" y="205" on="1"/>
        <pt x="484" y="0" on="1"/>
      </contour>
    </TTGlyph>
    <TTGlyph name="t" xMin="35" yMin="-15" xMax="367" yMax="591">
      <contour>
        <pt x="35" y="440" on="1"/>
        <pt x="35" y="470" on="1"/>
        <pt x="177" y="591" on="1"/>
        <pt x="207" y="591" on="1"/>
        <pt x="207" y="494" on="1"/>
        <pt x="351" y="500" on="1"/>
        <pt x="351" y="440" on="1"/>
        <pt x="207" y="440" on="1"/>
        <pt x="207" y="134" on="1"/>
        <pt x="207" y="45" on="0"/>
        <pt x="278" y="45" on="1"/>
        <pt x="308" y="45" on="0"/>
        <pt x="350" y="63" on="1"/>
        <pt x="367" y="17" on="1"/>
        <pt x="305" y="-15" on="0"/>
        <pt x="239" y="-15" on="1"/>
        <pt x="167" y="-15" on="0"/>
        <pt x="88" y="54" on="0"/>
        <pt x="88" y="139" on="1"/>
        <pt x="88" y="440" on="1"/>
      </contour>
    </TTGlyph>
    <TTGlyph name="thorn" xMin="-7" yMin="-275" xMax="544" yMax="800">
      <contour>
        <pt x="-7" y="-232" on="1"/>
        <pt x="78" y="-212" on="1"/>
        <pt x="78" y="719" on="1"/>
        <pt x="-7" y="719" on="1"/>
        <pt x="-7" y="762" on="1"/>
        <pt x="153" y="800" on="1"/>
        <pt x="195" y="800" on="1"/>
        <pt x="195" y="474" on="1"/>
        <pt x="255" y="515" on="0"/>
        <pt x="327" y="515" on="1"/>
        <pt x="420" y="515" on="0"/>
        <pt x="544" y="390" on="0"/>
        <pt x="544" y="268" on="1"/>
        <pt x="544" y="132" on="0"/>
        <pt x="384" y="-15" on="0"/>
        <pt x="265" y="-15" on="1"/>
        <pt x="226" y="-15" on="0"/>
        <pt x="195" y="-7" on="1"/>
        <pt x="195" y="-212" on="1"/>
        <pt x="300" y="-232" on="1"/>
        <pt x="300" y="-275" on="1"/>
        <pt x="-7" y="-275" on="1"/>
      </contour>
      <contour>
        <pt x="195" y="48" on="1"/>
        <pt x="222" y="40" on="0"/>
        <pt x="256" y="40" on="1"/>
        <pt x="331" y="40" on="0"/>
        <pt x="418" y="155" on="0"/>
        <pt x="418" y="264" on="1"/>
        <pt x="418" y="348" on="0"/>
        <pt x="346" y="440" on="0"/>
        <pt x="284" y="440" on="1"/>
        <pt x="241" y="440" on="0"/>
        <pt x="195" y="418" on="1"/>
      </contour>
    </TTGlyph>
    <TTGlyph name="three" xMin="20" yMin="-15" xMax="491" yMax="715">
      <contour>
        <pt x="20" y="26" on="1"/>
        <pt x="41" y="75" on="1"/>
        <pt x="118" y="47" on="0"/>
        <pt x="192" y="47" on="1"/>
        <pt x="270" y="47" on="0"/>
        <pt x="364" y="127" on="0"/>
        <pt x="364" y="191" on="1"/>
        <pt x="364" y="260" on="0"/>
        <pt x="256" y="340" on="0"/>
        <pt x="156" y="340" on="1"/>
        <pt x="156" y="396" on="1"/>
        <pt x="235" y="397" on="0"/>
        <pt x="328" y="481" on="0"/>
        <pt x="328" y="546" on="1"/>
        <pt x="328" y="600" on="0"/>
        <pt x="264" y="668" on="0"/>
        <pt x="213" y="668" on="1"/>
        <pt x="101" y="566" on="1"/>
        <pt x="83" y="578" on="0"/>
        <pt x="49" y="640" on="0"/>
        <pt x="48" y="667" on="1"/>
        <pt x="87" y="690" on="0"/>
        <pt x="188" y="715" on="0"/>
        <pt x="239" y="715" on="1"/>
        <pt x="349" y="715" on="0"/>
        <pt x="454" y="625" on="0"/>
        <pt x="454" y="553" on="1"/>
        <pt x="454" y="496" on="0"/>
        <pt x="373" y="401" on="0"/>
        <pt x="300" y="378" on="1"/>
        <pt x="394" y="364" on="0"/>
        <pt x="491" y="263" on="0"/>
        <pt x="491" y="193" on="1"/>
        <pt x="491" y="94" on="0"/>
        <pt x="336" y="-15" on="0"/>
        <pt x="223" y="-15" on="1"/>
        <pt x="113" y="-15" on="0"/>
      </contour>
    </TTGlyph>
    <TTGlyph name="threequarters" xMin="40" yMin="0" xMax="776" yMax="715">
      <component glyphName="foursuperior" x="422" y="-285" flags="0x4"/>
      <component glyphName="threesuperior" x="2" y="0" flags="0x4"/>
      <component glyphName="fraction" x="257" y="0" flags="0x4"/>
    </TTGlyph>
    <TTGlyph name="threesuperior" xMin="38" yMin="276" xMax="343" yMax="710">
      <contour>
        <pt x="38" y="301" on="1"/>
        <pt x="52" y="337" on="1"/>
        <pt x="99" y="319" on="0"/>
        <pt x="150" y="319" on="1"/>
        <pt x="196" y="319" on="0"/>
        <pt x="253" y="364" on="0"/>
        <pt x="253" y="401" on="1"/>
        <pt x="253" y="441" on="0"/>
        <pt x="187" y="486" on="0"/>
        <pt x="124" y="486" on="1"/>
        <pt x="124" y="523" on="1"/>
        <pt x="173" y="523" on="0"/>
        <pt x="231" y="577" on="0"/>
        <pt x="231" y="612" on="1"/>
        <pt x="231" y="638" on="0"/>
        <pt x="193" y="675" on="0"/>
        <pt x="161" y="679" on="1"/>
        <pt x="102" y="606" on="1"/>
        <pt x="86" y="617" on="0"/>
        <pt x="57" y="661" on="0"/>
        <pt x="56" y="681" on="1"/>
        <pt x="105" y="710" on="0"/>
        <pt x="177" y="710" on="1"/>
        <pt x="248" y="710" on="0"/>
        <pt x="320" y="656" on="0"/>
        <pt x="320" y="613" on="1"/>
        <pt x="320" y="580" on="0"/>
        <pt x="269" y="526" on="0"/>
        <pt x="223" y="512" on="1"/>
        <pt x="283" y="503" on="0"/>
        <pt x="343" y="444" on="0"/>
        <pt x="343" y="401" on="1"/>
        <pt x="343" y="340" on="0"/>
        <pt x="244" y="276" on="0"/>
        <pt x="167" y="276" on="1"/>
        <pt x="99" y="276" on="0"/>
      </contour>
    </TTGlyph>
    <TTGlyph name="tilde" xMin="11" yMin="602" xMax="396" yMax="733">
      <contour>
        <pt x="11" y="643" on="1"/>
        <pt x="40" y="684" on="0"/>
        <pt x="112" y="733" on="0"/>
        <pt x="145" y="733" on="1"/>
        <pt x="185" y="733" on="0"/>
        <pt x="248" y="679" on="0"/>
        <pt x="276" y="679" on="1"/>
        <pt x="318" y="679" on="0"/>
        <pt x="365" y="719" on="1"/>
        <pt x="396" y="692" on="1"/>
        <pt x="369" y="650" on="0"/>
        <pt x="299" y="602" on="0"/>
        <pt x="263" y="602" on="1"/>
        <pt x="223" y="602" on="0"/>
        <pt x="158" y="656" on="0"/>
        <pt x="131" y="656" on="1"/>
        <pt x="96" y="656" on="0"/>
        <pt x="42" y="615" on="1"/>
      </contour>
    </TTGlyph>
    <TTGlyph name="tilde.case" xMin="7" yMin="777" xMax="377" yMax="914">
      <contour>
        <pt x="7" y="823" on="1"/>
        <pt x="35" y="867" on="0"/>
        <pt x="90" y="911" on="0"/>
        <pt x="131" y="914" on="1"/>
        <pt x="167" y="914" on="0"/>
        <pt x="242" y="857" on="0"/>
        <pt x="268" y="857" on="1"/>
        <pt x="299" y="857" on="0"/>
        <pt x="347" y="899" on="1"/>
        <pt x="377" y="870" on="1"/>
        <pt x="361" y="835" on="0"/>
        <pt x="295" y="777" on="0"/>
        <pt x="254" y="777" on="1"/>
        <pt x="225" y="777" on="0"/>
        <pt x="152" y="834" on="0"/>
        <pt x="116" y="834" on="1"/>
        <pt x="90" y="834" on="0"/>
        <pt x="38" y="792" on="1"/>
      </contour>
    </TTGlyph>
    <TTGlyph name="two" xMin="29" yMin="0" xMax="494" yMax="715">
      <contour>
        <pt x="29" y="0" on="1"/>
        <pt x="29" y="60" on="1"/>
        <pt x="115" y="152" on="1"/>
        <pt x="145" y="185" on="0"/>
        <pt x="225" y="287" on="0"/>
        <pt x="285" y="382" on="0"/>
        <pt x="328" y="490" on="0"/>
        <pt x="328" y="534" on="1"/>
        <pt x="328" y="594" on="0"/>
        <pt x="269" y="666" on="0"/>
        <pt x="219" y="666" on="1"/>
        <pt x="101" y="558" on="1"/>
        <pt x="47" y="598" on="0"/>
        <pt x="44" y="665" on="1"/>
        <pt x="141" y="715" on="0"/>
        <pt x="256" y="715" on="1"/>
        <pt x="342" y="715" on="0"/>
        <pt x="455" y="632" on="0"/>
        <pt x="455" y="551" on="1"/>
        <pt x="455" y="493" on="0"/>
        <pt x="400" y="366" on="0"/>
        <pt x="299" y="240" on="0"/>
        <pt x="214" y="150" on="0"/>
        <pt x="157" y="97" on="1"/>
        <pt x="396" y="97" on="1"/>
        <pt x="450" y="205" on="1"/>
        <pt x="494" y="205" on="1"/>
        <pt x="466" y="0" on="1"/>
      </contour>
    </TTGlyph>
    <TTGlyph name="twosuperior" xMin="46" yMin="285" xMax="337" yMax="710">
      <contour>
        <pt x="46" y="285" on="1"/>
        <pt x="46" y="321" on="1"/>
        <pt x="67" y="339" on="0"/>
        <pt x="113" y="389" on="0"/>
        <pt x="180" y="472" on="0"/>
        <pt x="223" y="570" on="0"/>
        <pt x="223" y="613" on="1"/>
        <pt x="223" y="676" on="0"/>
        <pt x="166" y="676" on="1"/>
        <pt x="104" y="599" on="1"/>
        <pt x="85" y="609" on="0"/>
        <pt x="56" y="656" on="0"/>
        <pt x="54" y="679" on="1"/>
        <pt x="116" y="710" on="0"/>
        <pt x="192" y="710" on="1"/>
        <pt x="244" y="710" on="0"/>
        <pt x="313" y="663" on="0"/>
        <pt x="313" y="611" on="1"/>
        <pt x="313" y="496" on="0"/>
        <pt x="138" y="354" on="1"/>
        <pt x="277" y="354" on="1"/>
        <pt x="307" y="415" on="1"/>
        <pt x="337" y="415" on="1"/>
        <pt x="319" y="285" on="1"/>
      </contour>
    </TTGlyph>
    <TTGlyph name="u" xMin="13" yMin="-15" xMax="628" yMax="500">
      <contour>
        <pt x="13" y="457" on="1"/>
        <pt x="13" y="500" on="1"/>
        <pt x="217" y="500" on="1"/>
        <pt x="217" y="155" on="1"/>
        <pt x="217" y="55" on="0"/>
        <pt x="303" y="55" on="1"/>
        <pt x="371" y="55" on="0"/>
        <pt x="431" y="106" on="1"/>
        <pt x="431" y="437" on="1"/>
        <pt x="366" y="457" on="1"/>
        <pt x="366" y="500" on="1"/>
        <pt x="550" y="500" on="1"/>
        <pt x="550" y="65" on="1"/>
        <pt x="628" y="65" on="1"/>
        <pt x="628" y="32" on="1"/>
        <pt x="604" y="11" on="0"/>
        <pt x="545" y="-15" on="0"/>
        <pt x="516" y="-15" on="1"/>
        <pt x="493" y="-15" on="0"/>
        <pt x="458" y="2" on="0"/>
        <pt x="440" y="28" on="0"/>
        <pt x="432" y="45" on="0"/>
        <pt x="431" y="51" on="1"/>
        <pt x="352" y="-15" on="0"/>
        <pt x="261" y="-15" on="1"/>
        <pt x="181" y="-15" on="0"/>
        <pt x="98" y="71" on="0"/>
        <pt x="98" y="142" on="1"/>
        <pt x="98" y="437" on="1"/>
      </contour>
    </TTGlyph>
    <TTGlyph name="uacute" xMin="13" yMin="-15" xMax="628" yMax="770">
      <component glyphName="u" x="0" y="0" flags="0x204"/>
      <component glyphName="acute" x="249" y="0" flags="0x4"/>
    </TTGlyph>
    <TTGlyph name="ucircumflex" xMin="13" yMin="-15" xMax="628" yMax="766">
      <component glyphName="u" x="0" y="0" flags="0x204"/>
      <component glyphName="circumflex" x="142" y="0" flags="0x4"/>
    </TTGlyph>
    <TTGlyph name="udieresis" xMin="13" yMin="-15" xMax="628" yMax="732">
      <component glyphName="u" x="0" y="0" flags="0x204"/>
      <component glyphName="dieresis" x="125" y="0" flags="0x4"/>
    </TTGlyph>
    <TTGlyph name="ugrave" xMin="13" yMin="-15" xMax="628" yMax="769">
      <component glyphName="u" x="0" y="0" flags="0x204"/>
      <component glyphName="grave" x="220" y="0" flags="0x4"/>
    </TTGlyph>
    <TTGlyph name="underscore" xMin="148" yMin="-142" xMax="607" yMax="-78">
      <contour>
        <pt x="148" y="-78" on="1"/>
        <pt x="607" y="-78" on="1"/>
        <pt x="607" y="-142" on="1"/>
        <pt x="148" y="-142" on="1"/>
      </contour>
    </TTGlyph>
    <TTGlyph name="uni00AD" xMin="71" yMin="317" xMax="331" yMax="397">
      <contour>
        <pt x="71" y="317" on="1"/>
        <pt x="71" y="397" on="1"/>
        <pt x="331" y="397" on="1"/>
        <pt x="331" y="317" on="1"/>
      </contour>
    </TTGlyph>
    <TTGlyph name="v" xMin="2" yMin="-7" xMax="574" yMax="500">
      <contour>
        <pt x="2" y="457" on="1"/>
        <pt x="2" y="500" on="1"/>
        <pt x="268" y="500" on="1"/>
        <pt x="268" y="457" on="1"/>
        <pt x="197" y="441" on="1"/>
        <pt x="321" y="148" on="1"/>
        <pt x="437" y="438" on="1"/>
        <pt x="367" y="457" on="1"/>
        <pt x="367" y="500" on="1"/>
        <pt x="574" y="500" on="1"/>
        <pt x="574" y="457" on="1"/>
        <pt x="494" y="435" on="1"/>
        <pt x="319" y="-7" on="1"/>
        <pt x="259" y="-7" on="1"/>
        <pt x="69" y="438" on="1"/>
      </contour>
    </TTGlyph>
    <TTGlyph name="w" xMin="3" yMin="-7" xMax="818" yMax="500">
      <contour>
        <pt x="3" y="457" on="1"/>
        <pt x="3" y="500" on="1"/>
        <pt x="261" y="500" on="1"/>
        <pt x="261" y="457" on="1"/>
        <pt x="194" y="440" on="1"/>
        <pt x="292" y="167" on="1"/>
        <pt x="405" y="500" on="1"/>
        <pt x="476" y="500" on="1"/>
        <pt x="592" y="172" on="1"/>
        <pt x="683" y="437" on="1"/>
        <pt x="601" y="457" on="1"/>
        <pt x="601" y="500" on="1"/>
        <pt x="818" y="500" on="1"/>
        <pt x="818" y="457" on="1"/>
        <pt x="741" y="437" on="1"/>
        <pt x="593" y="-7" on="1"/>
        <pt x="529" y="-7" on="1"/>
        <pt x="408" y="333" on="1"/>
        <pt x="293" y="-7" on="1"/>
        <pt x="230" y="-7" on="1"/>
        <pt x="66" y="439" on="1"/>
      </contour>
    </TTGlyph>
    <TTGlyph name="x" xMin="16" yMin="0" xMax="620" yMax="500">
      <contour>
        <pt x="23" y="457" on="1"/>
        <pt x="23" y="500" on="1"/>
        <pt x="303" y="500" on="1"/>
        <pt x="303" y="457" on="1"/>
        <pt x="241" y="445" on="1"/>
        <pt x="339" y="317" on="1"/>
        <pt x="438" y="440" on="1"/>
        <pt x="369" y="457" on="1"/>
        <pt x="369" y="500" on="1"/>
        <pt x="590" y="500" on="1"/>
        <pt x="590" y="457" on="1"/>
        <pt x="508" y="437" on="1"/>
        <pt x="372" y="274" on="1"/>
        <pt x="536" y="62" on="1"/>
        <pt x="620" y="43" on="1"/>
        <pt x="620" y="0" on="1"/>
        <pt x="340" y="0" on="1"/>
        <pt x="340" y="43" on="1"/>
        <pt x="404" y="53" on="1"/>
        <pt x="287" y="203" on="1"/>
        <pt x="167" y="59" on="1"/>
        <pt x="232" y="43" on="1"/>
        <pt x="232" y="0" on="1"/>
        <pt x="16" y="0" on="1"/>
        <pt x="16" y="43" on="1"/>
        <pt x="97" y="61" on="1"/>
        <pt x="253" y="247" on="1"/>
        <pt x="105" y="438" on="1"/>
      </contour>
    </TTGlyph>
    <TTGlyph name="y" xMin="1" yMin="-299" xMax="600" yMax="500">
      <contour>
        <pt x="1" y="457" on="1"/>
        <pt x="1" y="500" on="1"/>
        <pt x="274" y="500" on="1"/>
        <pt x="274" y="457" on="1"/>
        <pt x="197" y="442" on="1"/>
        <pt x="339" y="125" on="1"/>
        <pt x="459" y="437" on="1"/>
        <pt x="379" y="457" on="1"/>
        <pt x="379" y="500" on="1"/>
        <pt x="600" y="500" on="1"/>
        <pt x="600" y="457" on="1"/>
        <pt x="521" y="436" on="1"/>
        <pt x="238" y="-299" on="1"/>
        <pt x="193" y="-299" on="0"/>
        <pt x="148" y="-273" on="0"/>
        <pt x="136" y="-254" on="1"/>
        <pt x="279" y="-27" on="1"/>
        <pt x="69" y="438" on="1"/>
      </contour>
    </TTGlyph>
    <TTGlyph name="yacute" xMin="1" yMin="-299" xMax="600" yMax="770">
      <component glyphName="y" x="0" y="0" flags="0x204"/>
      <component glyphName="acute" x="241" y="0" flags="0x4"/>
    </TTGlyph>
    <TTGlyph name="ydieresis" xMin="1" yMin="-299" xMax="600" yMax="732">
      <component glyphName="y" x="0" y="0" flags="0x204"/>
      <component glyphName="dieresis" x="122" y="0" flags="0x4"/>
    </TTGlyph>
    <TTGlyph name="yen" xMin="31" yMin="0" xMax="738" yMax="700">
      <contour>
        <pt x="31" y="654" on="1"/>
        <pt x="31" y="700" on="1"/>
        <pt x="319" y="700" on="1"/>
        <pt x="319" y="654" on="1"/>
        <pt x="254" y="641" on="1"/>
        <pt x="419" y="398" on="1"/>
        <pt x="567" y="634" on="1"/>
        <pt x="493" y="654" on="1"/>
        <pt x="493" y="700" on="1"/>
        <pt x="738" y="700" on="1"/>
        <pt x="738" y="654" on="1"/>
        <pt x="646" y="632" on="1"/>
        <pt x="483" y="374" on="1"/>
        <pt x="625" y="381" on="1"/>
        <pt x="615" y="310" on="1"/>
        <pt x="452" y="310" on="1"/>
        <pt x="452" y="256" on="1"/>
        <pt x="625" y="266" on="1"/>
        <pt x="615" y="193" on="1"/>
        <pt x="452" y="193" on="1"/>
        <pt x="452" y="68" on="1"/>
        <pt x="544" y="46" on="1"/>
        <pt x="544" y="0" on="1"/>
        <pt x="237" y="0" on="1"/>
        <pt x="237" y="46" on="1"/>
        <pt x="329" y="68" on="1"/>
        <pt x="329" y="193" on="1"/>
        <pt x="159" y="193" on="1"/>
        <pt x="159" y="240" on="1"/>
        <pt x="329" y="250" on="1"/>
        <pt x="329" y="310" on="1"/>
        <pt x="159" y="310" on="1"/>
        <pt x="159" y="356" on="1"/>
        <pt x="299" y="364" on="1"/>
        <pt x="112" y="634" on="1"/>
      </contour>
    </TTGlyph>
    <TTGlyph name="z" xMin="39" yMin="0" xMax="463" yMax="500">
      <contour>
        <pt x="39" y="0" on="1"/>
        <pt x="39" y="50" on="1"/>
        <pt x="318" y="446" on="1"/>
        <pt x="137" y="446" on="1"/>
        <pt x="89" y="345" on="1"/>
        <pt x="53" y="345" on="1"/>
        <pt x="64" y="500" on="1"/>
        <pt x="463" y="500" on="1"/>
        <pt x="463" y="451" on="1"/>
        <pt x="184" y="55" on="1"/>
        <pt x="371" y="55" on="1"/>
        <pt x="423" y="166" on="1"/>
        <pt x="462" y="166" on="1"/>
        <pt x="452" y="0" on="1"/>
      </contour>
    </TTGlyph>
    <TTGlyph name="zero" xMin="51" yMin="-15" xMax="581" yMax="715">
      <contour>
        <pt x="316" y="715" on="1"/>
        <pt x="438" y="715" on="0"/>
        <pt x="581" y="512" on="0"/>
        <pt x="581" y="350" on="1"/>
        <pt x="581" y="190" on="0"/>
        <pt x="438" y="-15" on="0"/>
        <pt x="316" y="-15" on="1"/>
        <pt x="194" y="-15" on="0"/>
        <pt x="51" y="190" on="0"/>
        <pt x="51" y="350" on="1"/>
        <pt x="51" y="511" on="0"/>
        <pt x="194" y="715" on="0"/>
      </contour>
      <contour>
        <pt x="316" y="656" on="1"/>
        <pt x="251" y="656" on="0"/>
        <pt x="179" y="478" on="0"/>
        <pt x="179" y="350" on="1"/>
        <pt x="179" y="222" on="0"/>
        <pt x="251" y="44" on="0"/>
        <pt x="316" y="44" on="1"/>
        <pt x="381" y="44" on="0"/>
        <pt x="453" y="222" on="0"/>
        <pt x="453" y="350" on="1"/>
        <pt x="453" y="478" on="0"/>
        <pt x="381" y="656" on="0"/>
      </contour>
    </TTGlyph>
</ttFont>
